M48
;DRILL file {PCBnew (2011-05-25)-stable} date Tue 19 Jun 2012 06:54:53 BST
;FORMAT={-:-/ absolute / inch / decimal}
FMAT,2
INCH,TZ
T1C0.025
T2C0.032
T3C0.040
T4C0.045
T5C0.120
%
G90
G05
M72
T1
X1.000Y2.400
X1.100Y2.650
X1.350Y2.400
X1.850Y1.500
X2.100Y1.800
X2.200Y1.800
X2.800Y1.725
X2.850Y2.300
X2.900Y1.825
X2.950Y2.300
X2.975Y2.425
X3.000Y1.300
X3.000Y2.350
X3.375Y1.825
T2
X1.000Y2.000
X1.000Y2.100
X1.050Y2.990
X1.050Y3.090
X1.150Y2.490
X1.150Y2.590
X1.150Y2.990
X1.150Y3.240
X1.200Y1.900
X1.200Y2.200
X1.250Y2.490
X1.250Y2.740
X1.250Y2.840
X1.250Y3.240
X1.300Y1.525
X1.300Y1.900
X1.300Y2.200
X1.325Y1.250
X1.350Y2.740
X1.350Y2.990
X1.350Y3.090
X1.350Y3.240
X1.400Y1.525
X1.400Y1.900
X1.400Y2.200
X1.425Y1.250
X1.450Y2.490
X1.450Y2.590
X1.450Y2.990
X1.450Y3.240
X1.500Y0.950
X1.500Y1.900
X1.500Y2.200
X1.550Y2.490
X1.550Y2.740
X1.550Y2.840
X1.550Y3.240
X1.600Y0.950
X1.600Y1.900
X1.600Y2.200
X1.650Y2.740
X1.650Y2.990
X1.650Y3.090
X1.650Y3.240
X1.700Y1.900
X1.700Y2.200
X1.750Y2.490
X1.750Y2.590
X1.750Y2.990
X1.750Y3.240
X1.800Y1.900
X1.800Y2.200
X1.850Y2.490
X1.850Y2.740
X1.850Y2.840
X1.850Y3.240
X1.900Y1.900
X1.900Y2.200
X1.950Y2.740
X1.950Y2.990
X1.950Y3.090
X1.950Y3.240
X2.050Y2.990
X2.050Y3.240
X2.200Y1.150
X2.200Y1.450
X2.300Y1.150
X2.300Y1.450
X2.300Y2.750
X2.300Y2.850
X2.300Y3.250
X2.400Y1.150
X2.400Y1.450
X2.400Y2.750
X2.400Y3.000
X2.400Y3.100
X2.400Y3.250
X2.500Y1.150
X2.500Y1.450
X2.500Y1.925
X2.500Y2.225
X2.500Y2.500
X2.500Y2.600
X2.500Y3.000
X2.500Y3.250
X2.600Y1.150
X2.600Y1.450
X2.600Y1.925
X2.600Y2.225
X2.600Y2.500
X2.600Y2.750
X2.600Y2.850
X2.600Y3.250
X2.700Y1.150
X2.700Y1.450
X2.700Y1.925
X2.700Y2.225
X2.700Y2.750
X2.700Y3.000
X2.700Y3.100
X2.700Y3.250
X2.800Y0.950
X2.800Y1.150
X2.800Y1.450
X2.800Y1.925
X2.800Y2.225
X2.800Y2.500
X2.800Y2.600
X2.800Y3.000
X2.800Y3.250
X2.900Y0.950
X2.900Y1.150
X2.900Y1.450
X2.900Y1.925
X2.900Y2.225
X2.900Y2.500
X2.900Y2.750
X2.900Y2.850
X2.900Y3.250
X3.000Y1.150
X3.000Y1.450
X3.000Y1.925
X3.000Y2.225
X3.000Y2.750
X3.000Y3.000
X3.000Y3.100
X3.000Y3.250
X3.100Y1.150
X3.100Y1.450
X3.100Y1.925
X3.100Y2.225
X3.100Y2.500
X3.100Y2.600
X3.100Y3.000
X3.100Y3.250
X3.200Y1.150
X3.200Y1.450
X3.200Y1.925
X3.200Y2.225
X3.200Y2.500
X3.200Y2.750
X3.200Y2.850
X3.200Y3.250
X3.300Y1.150
X3.300Y1.450
X3.300Y2.750
X3.400Y1.150
X3.400Y1.450
X3.400Y2.030
X3.400Y2.130
X3.500Y1.150
X3.500Y1.450
X3.675Y1.890
X3.675Y2.190
X3.675Y2.340
X3.675Y2.640
X3.775Y1.890
X3.775Y2.190
X3.775Y2.340
X3.775Y2.640
X3.875Y1.890
X3.875Y2.190
X3.975Y1.890
X3.975Y2.190
X4.150Y1.590
X4.150Y1.890
X4.300Y1.590
X4.300Y1.890
T3
X1.650Y1.250
X1.650Y1.350
X1.750Y1.250
X1.750Y1.350
X1.850Y1.250
X1.850Y1.350
X3.200Y0.950
X3.300Y0.950
X3.400Y0.950
X4.375Y2.140
X4.375Y3.040
T4
X0.900Y0.975
X1.000Y0.975
X1.100Y0.975
T5
X1.000Y1.625
T0
M30
