G04 (created by PCBNEW-RS274X (2011-05-25)-stable) date Thu 21 Jun 2012 00:23:00 BST*
G01*
G70*
G90*
%MOIN*%
G04 Gerber Fmt 3.4, Leading zero omitted, Abs format*
%FSLAX34Y34*%
G04 APERTURE LIST*
%ADD10C,0.006000*%
%ADD11C,0.015000*%
%ADD12R,0.055000X0.055000*%
%ADD13C,0.055000*%
%ADD14C,0.060000*%
%ADD15R,0.060000X0.060000*%
%ADD16C,0.090000*%
%ADD17C,0.070000*%
%ADD18R,0.070000X0.070000*%
%ADD19R,0.350000X0.350000*%
%ADD20C,0.196900*%
%ADD21R,0.100000X0.100000*%
%ADD22C,0.100000*%
%ADD23C,0.050000*%
%ADD24C,0.040000*%
%ADD25C,0.020000*%
%ADD26C,0.010000*%
G04 APERTURE END LIST*
G54D10*
G54D11*
X49200Y-08300D02*
X49200Y-10300D01*
X10200Y-08300D02*
X49200Y-08300D01*
X10200Y-10300D02*
X10200Y-08300D01*
X49200Y-36800D02*
X49200Y-10300D01*
X10200Y-36800D02*
X49200Y-36800D01*
X10200Y-36800D02*
X10200Y-35800D01*
X10200Y-10300D02*
X10200Y-36800D01*
G54D12*
X28200Y-33300D03*
G54D13*
X27200Y-33300D03*
X27200Y-34300D03*
G54D12*
X18700Y-28200D03*
G54D13*
X17700Y-28200D03*
X17700Y-29200D03*
G54D12*
X19700Y-30700D03*
G54D13*
X18700Y-30700D03*
X18700Y-31700D03*
G54D12*
X23700Y-33200D03*
G54D13*
X22700Y-33200D03*
X22700Y-34200D03*
G54D12*
X22700Y-30700D03*
G54D13*
X21700Y-30700D03*
X21700Y-31700D03*
G54D12*
X21700Y-28200D03*
G54D13*
X20700Y-28200D03*
X20700Y-29200D03*
G54D12*
X20700Y-33200D03*
G54D13*
X19700Y-33200D03*
X19700Y-34200D03*
G54D12*
X30200Y-30800D03*
G54D13*
X29200Y-30800D03*
X29200Y-31800D03*
G54D12*
X29200Y-28300D03*
G54D13*
X28200Y-28300D03*
X28200Y-29300D03*
G54D12*
X17700Y-33200D03*
G54D13*
X16700Y-33200D03*
X16700Y-34200D03*
G54D12*
X27200Y-30800D03*
G54D13*
X26200Y-30800D03*
X26200Y-31800D03*
G54D12*
X31200Y-33300D03*
G54D13*
X30200Y-33300D03*
X30200Y-34300D03*
G54D12*
X32200Y-28300D03*
G54D13*
X31200Y-28300D03*
X31200Y-29300D03*
G54D12*
X33200Y-30800D03*
G54D13*
X32200Y-30800D03*
X32200Y-31800D03*
G54D12*
X34200Y-33300D03*
G54D13*
X33200Y-33300D03*
X33200Y-34300D03*
G54D12*
X35200Y-28300D03*
G54D13*
X34200Y-28300D03*
X34200Y-29300D03*
G54D12*
X36200Y-30800D03*
G54D13*
X35200Y-30800D03*
X35200Y-31800D03*
G54D12*
X15700Y-28200D03*
G54D13*
X14700Y-28200D03*
X14700Y-29200D03*
G54D12*
X14700Y-33200D03*
G54D13*
X13700Y-33200D03*
X13700Y-34200D03*
G54D12*
X16700Y-30700D03*
G54D13*
X15700Y-30700D03*
X15700Y-31700D03*
G54D12*
X14700Y-35700D03*
G54D13*
X15700Y-35700D03*
X16700Y-35700D03*
X17700Y-35700D03*
X18700Y-35700D03*
X19700Y-35700D03*
X20700Y-35700D03*
X21700Y-35700D03*
X22700Y-35700D03*
X23700Y-35700D03*
G54D12*
X35200Y-35800D03*
G54D13*
X34200Y-35800D03*
X33200Y-35800D03*
X32200Y-35800D03*
X31200Y-35800D03*
X30200Y-35800D03*
X29200Y-35800D03*
X28200Y-35800D03*
X27200Y-35800D03*
X26200Y-35800D03*
G54D14*
X44000Y-17000D03*
X43000Y-17000D03*
X44000Y-20000D03*
X43000Y-20000D03*
G54D15*
X21700Y-15800D03*
G54D14*
X21700Y-16800D03*
X20700Y-15800D03*
X20700Y-16800D03*
X19700Y-15800D03*
X19700Y-16800D03*
G54D15*
X37200Y-12800D03*
G54D14*
X36200Y-12800D03*
X35200Y-12800D03*
G54D12*
X43000Y-15500D03*
G54D13*
X44000Y-15500D03*
X45000Y-15500D03*
X46000Y-15500D03*
X46000Y-12500D03*
X45000Y-12500D03*
X44000Y-12500D03*
X43000Y-12500D03*
X37200Y-14800D03*
X36200Y-14800D03*
X35200Y-14800D03*
X34200Y-14800D03*
X33200Y-14800D03*
X32200Y-14800D03*
X31200Y-14800D03*
X30200Y-14800D03*
X29200Y-14800D03*
X28200Y-14800D03*
X27200Y-14800D03*
X26200Y-14800D03*
X25200Y-14800D03*
G54D12*
X38200Y-14800D03*
G54D13*
X25200Y-17800D03*
X26200Y-17800D03*
X27200Y-17800D03*
X28200Y-17800D03*
X29200Y-17800D03*
X30200Y-17800D03*
X31200Y-17800D03*
X32200Y-17800D03*
X33200Y-17800D03*
X34200Y-17800D03*
X35200Y-17800D03*
X36200Y-17800D03*
X37200Y-17800D03*
X38200Y-17800D03*
G54D12*
X35200Y-22550D03*
G54D13*
X34200Y-22550D03*
X33200Y-22550D03*
X32200Y-22550D03*
X31200Y-22550D03*
X30200Y-22550D03*
X29200Y-22550D03*
X28200Y-22550D03*
X28200Y-25550D03*
X29200Y-25550D03*
X30200Y-25550D03*
X31200Y-25550D03*
X32200Y-25550D03*
X33200Y-25550D03*
X34200Y-25550D03*
X35200Y-25550D03*
G54D12*
X15200Y-25300D03*
G54D13*
X16200Y-25300D03*
X17200Y-25300D03*
X18200Y-25300D03*
X19200Y-25300D03*
X20200Y-25300D03*
X21200Y-25300D03*
X22200Y-25300D03*
X22200Y-22300D03*
X21200Y-22300D03*
X20200Y-22300D03*
X19200Y-22300D03*
X18200Y-22300D03*
X17200Y-22300D03*
X16200Y-22300D03*
X15200Y-22300D03*
G54D16*
X43000Y-33000D03*
X43000Y-24000D03*
G54D15*
X17900Y-16400D03*
G54D14*
X16900Y-16400D03*
G54D15*
X17900Y-19600D03*
G54D14*
X16900Y-19600D03*
G54D13*
X32200Y-12800D03*
X31200Y-12800D03*
X37200Y-24600D03*
X37200Y-23600D03*
X13200Y-23300D03*
X13200Y-24300D03*
X45500Y-20500D03*
X45500Y-17500D03*
X47000Y-20500D03*
X47000Y-17500D03*
G54D17*
X12250Y-13000D03*
G54D18*
X14250Y-13000D03*
G54D17*
X13250Y-13000D03*
G54D19*
X13250Y-19500D03*
G54D12*
X21000Y-12500D03*
G54D13*
X21000Y-11500D03*
G54D20*
X47000Y-24500D03*
X12500Y-31000D03*
X26750Y-11250D03*
G54D21*
X18500Y-13000D03*
G54D22*
X18500Y-11000D03*
G54D23*
X35700Y-21500D03*
X32700Y-21500D03*
X12200Y-27500D03*
G54D24*
X33300Y-27000D03*
X32700Y-26100D03*
X31700Y-24800D03*
X32950Y-27550D03*
X25200Y-21300D03*
X24200Y-21300D03*
X16700Y-27300D03*
X14200Y-29800D03*
X22200Y-17600D03*
X21100Y-17600D03*
X36200Y-20550D03*
X32050Y-20550D03*
G54D25*
X32700Y-21500D02*
X35700Y-21500D01*
X12200Y-27500D02*
X12500Y-27800D01*
X12500Y-27800D02*
X12500Y-27900D01*
X35200Y-25550D02*
X34200Y-25550D01*
X32200Y-14800D02*
X32200Y-15800D01*
X32200Y-15800D02*
X30200Y-17800D01*
G54D26*
X33300Y-27000D02*
X32700Y-26400D01*
X32700Y-26400D02*
X32700Y-26100D01*
X32950Y-27550D02*
X31700Y-26300D01*
X31700Y-26300D02*
X31700Y-24800D01*
X25200Y-21300D02*
X25200Y-17800D01*
X25200Y-14800D02*
X24700Y-14800D01*
X24200Y-15300D02*
X24200Y-21300D01*
X24700Y-14800D02*
X24200Y-15300D01*
X17700Y-28200D02*
X17100Y-28200D01*
X17100Y-28200D02*
X16700Y-27800D01*
X16700Y-27800D02*
X16700Y-27300D01*
X18100Y-30700D02*
X17200Y-29800D01*
X17200Y-29800D02*
X14200Y-29800D01*
X18700Y-30700D02*
X18100Y-30700D01*
X21100Y-17600D02*
X22200Y-17600D01*
X32050Y-20550D02*
X36200Y-20550D01*
G54D10*
G36*
X24650Y-34750D02*
X24224Y-34750D01*
X24224Y-33525D01*
X24224Y-33426D01*
X24224Y-32876D01*
X24186Y-32784D01*
X24116Y-32714D01*
X24025Y-32676D01*
X23926Y-32676D01*
X23376Y-32676D01*
X23284Y-32714D01*
X23224Y-32774D01*
X23224Y-31025D01*
X23224Y-30926D01*
X23224Y-30376D01*
X23186Y-30284D01*
X23116Y-30214D01*
X23025Y-30176D01*
X22926Y-30176D01*
X22376Y-30176D01*
X22284Y-30214D01*
X22224Y-30274D01*
X22224Y-28525D01*
X22224Y-28426D01*
X22224Y-27876D01*
X22186Y-27784D01*
X22116Y-27714D01*
X22025Y-27676D01*
X21926Y-27676D01*
X21376Y-27676D01*
X21284Y-27714D01*
X21214Y-27784D01*
X21176Y-27875D01*
X21176Y-27974D01*
X21176Y-27977D01*
X21145Y-27903D01*
X20998Y-27755D01*
X20805Y-27675D01*
X20596Y-27675D01*
X20403Y-27755D01*
X20255Y-27902D01*
X20175Y-28095D01*
X20175Y-28304D01*
X20255Y-28497D01*
X20402Y-28645D01*
X20542Y-28703D01*
X20433Y-28748D01*
X20410Y-28839D01*
X20700Y-29129D01*
X20990Y-28839D01*
X20967Y-28748D01*
X20848Y-28706D01*
X20997Y-28645D01*
X21145Y-28498D01*
X21176Y-28423D01*
X21176Y-28524D01*
X21214Y-28616D01*
X21284Y-28686D01*
X21375Y-28724D01*
X21474Y-28724D01*
X22024Y-28724D01*
X22116Y-28686D01*
X22186Y-28616D01*
X22224Y-28525D01*
X22224Y-30274D01*
X22214Y-30284D01*
X22176Y-30375D01*
X22176Y-30474D01*
X22176Y-30477D01*
X22145Y-30403D01*
X21998Y-30255D01*
X21805Y-30175D01*
X21596Y-30175D01*
X21403Y-30255D01*
X21255Y-30402D01*
X21219Y-30488D01*
X21219Y-29274D01*
X21208Y-29070D01*
X21152Y-28933D01*
X21061Y-28910D01*
X20771Y-29200D01*
X21061Y-29490D01*
X21152Y-29467D01*
X21219Y-29274D01*
X21219Y-30488D01*
X21175Y-30595D01*
X21175Y-30804D01*
X21255Y-30997D01*
X21402Y-31145D01*
X21542Y-31203D01*
X21433Y-31248D01*
X21410Y-31339D01*
X21700Y-31629D01*
X21990Y-31339D01*
X21967Y-31248D01*
X21848Y-31206D01*
X21997Y-31145D01*
X22145Y-30998D01*
X22176Y-30923D01*
X22176Y-31024D01*
X22214Y-31116D01*
X22284Y-31186D01*
X22375Y-31224D01*
X22474Y-31224D01*
X23024Y-31224D01*
X23116Y-31186D01*
X23186Y-31116D01*
X23224Y-31025D01*
X23224Y-32774D01*
X23214Y-32784D01*
X23176Y-32875D01*
X23176Y-32974D01*
X23176Y-32977D01*
X23145Y-32903D01*
X22998Y-32755D01*
X22805Y-32675D01*
X22596Y-32675D01*
X22403Y-32755D01*
X22255Y-32902D01*
X22219Y-32988D01*
X22219Y-31774D01*
X22208Y-31570D01*
X22152Y-31433D01*
X22061Y-31410D01*
X21771Y-31700D01*
X22061Y-31990D01*
X22152Y-31967D01*
X22219Y-31774D01*
X22219Y-32988D01*
X22175Y-33095D01*
X22175Y-33304D01*
X22255Y-33497D01*
X22402Y-33645D01*
X22542Y-33703D01*
X22433Y-33748D01*
X22410Y-33839D01*
X22700Y-34129D01*
X22990Y-33839D01*
X22967Y-33748D01*
X22848Y-33706D01*
X22997Y-33645D01*
X23145Y-33498D01*
X23176Y-33423D01*
X23176Y-33524D01*
X23214Y-33616D01*
X23284Y-33686D01*
X23375Y-33724D01*
X23474Y-33724D01*
X24024Y-33724D01*
X24116Y-33686D01*
X24186Y-33616D01*
X24224Y-33525D01*
X24224Y-34750D01*
X23219Y-34750D01*
X23219Y-34274D01*
X23208Y-34070D01*
X23152Y-33933D01*
X23061Y-33910D01*
X22771Y-34200D01*
X23061Y-34490D01*
X23152Y-34467D01*
X23219Y-34274D01*
X23219Y-34750D01*
X22990Y-34750D01*
X22990Y-34561D01*
X22700Y-34271D01*
X22629Y-34342D01*
X22629Y-34200D01*
X22339Y-33910D01*
X22248Y-33933D01*
X22181Y-34126D01*
X22192Y-34330D01*
X22248Y-34467D01*
X22339Y-34490D01*
X22629Y-34200D01*
X22629Y-34342D01*
X22410Y-34561D01*
X22433Y-34652D01*
X22626Y-34719D01*
X22830Y-34708D01*
X22967Y-34652D01*
X22990Y-34561D01*
X22990Y-34750D01*
X21990Y-34750D01*
X21990Y-32061D01*
X21700Y-31771D01*
X21629Y-31842D01*
X21629Y-31700D01*
X21339Y-31410D01*
X21248Y-31433D01*
X21181Y-31626D01*
X21192Y-31830D01*
X21248Y-31967D01*
X21339Y-31990D01*
X21629Y-31700D01*
X21629Y-31842D01*
X21410Y-32061D01*
X21433Y-32152D01*
X21626Y-32219D01*
X21830Y-32208D01*
X21967Y-32152D01*
X21990Y-32061D01*
X21990Y-34750D01*
X21224Y-34750D01*
X21224Y-33525D01*
X21224Y-33426D01*
X21224Y-32876D01*
X21186Y-32784D01*
X21116Y-32714D01*
X21025Y-32676D01*
X20990Y-32676D01*
X20990Y-29561D01*
X20700Y-29271D01*
X20629Y-29342D01*
X20629Y-29200D01*
X20339Y-28910D01*
X20248Y-28933D01*
X20181Y-29126D01*
X20192Y-29330D01*
X20248Y-29467D01*
X20339Y-29490D01*
X20629Y-29200D01*
X20629Y-29342D01*
X20410Y-29561D01*
X20433Y-29652D01*
X20626Y-29719D01*
X20830Y-29708D01*
X20967Y-29652D01*
X20990Y-29561D01*
X20990Y-32676D01*
X20926Y-32676D01*
X20376Y-32676D01*
X20284Y-32714D01*
X20224Y-32774D01*
X20224Y-31025D01*
X20224Y-30926D01*
X20224Y-30376D01*
X20186Y-30284D01*
X20116Y-30214D01*
X20025Y-30176D01*
X19926Y-30176D01*
X19376Y-30176D01*
X19284Y-30214D01*
X19224Y-30274D01*
X19224Y-28525D01*
X19224Y-28426D01*
X19224Y-27876D01*
X19186Y-27784D01*
X19116Y-27714D01*
X19025Y-27676D01*
X18926Y-27676D01*
X18376Y-27676D01*
X18284Y-27714D01*
X18214Y-27784D01*
X18176Y-27875D01*
X18176Y-27974D01*
X18176Y-27977D01*
X18145Y-27903D01*
X17998Y-27755D01*
X17805Y-27675D01*
X17596Y-27675D01*
X17403Y-27755D01*
X17257Y-27900D01*
X17224Y-27900D01*
X17000Y-27675D01*
X17000Y-27635D01*
X17080Y-27555D01*
X17149Y-27390D01*
X17149Y-27211D01*
X17081Y-27046D01*
X16955Y-26920D01*
X16790Y-26851D01*
X16611Y-26851D01*
X16446Y-26919D01*
X16320Y-27045D01*
X16251Y-27210D01*
X16251Y-27389D01*
X16319Y-27554D01*
X16400Y-27635D01*
X16400Y-27800D01*
X16423Y-27915D01*
X16488Y-28012D01*
X16887Y-28412D01*
X16888Y-28412D01*
X16985Y-28477D01*
X17100Y-28500D01*
X17257Y-28500D01*
X17402Y-28645D01*
X17542Y-28703D01*
X17433Y-28748D01*
X17410Y-28839D01*
X17700Y-29129D01*
X17990Y-28839D01*
X17967Y-28748D01*
X17848Y-28706D01*
X17997Y-28645D01*
X18145Y-28498D01*
X18176Y-28423D01*
X18176Y-28524D01*
X18214Y-28616D01*
X18284Y-28686D01*
X18375Y-28724D01*
X18474Y-28724D01*
X19024Y-28724D01*
X19116Y-28686D01*
X19186Y-28616D01*
X19224Y-28525D01*
X19224Y-30274D01*
X19214Y-30284D01*
X19176Y-30375D01*
X19176Y-30474D01*
X19176Y-30477D01*
X19145Y-30403D01*
X18998Y-30255D01*
X18805Y-30175D01*
X18596Y-30175D01*
X18403Y-30255D01*
X18257Y-30400D01*
X18224Y-30400D01*
X18219Y-30394D01*
X18219Y-29274D01*
X18208Y-29070D01*
X18152Y-28933D01*
X18061Y-28910D01*
X17771Y-29200D01*
X18061Y-29490D01*
X18152Y-29467D01*
X18219Y-29274D01*
X18219Y-30394D01*
X17499Y-29674D01*
X17626Y-29719D01*
X17830Y-29708D01*
X17967Y-29652D01*
X17990Y-29561D01*
X17735Y-29306D01*
X17700Y-29271D01*
X17629Y-29200D01*
X17594Y-29165D01*
X17339Y-28910D01*
X17248Y-28933D01*
X17181Y-29126D01*
X17192Y-29330D01*
X17248Y-29467D01*
X17283Y-29475D01*
X17252Y-29507D01*
X17256Y-29511D01*
X17200Y-29500D01*
X16224Y-29500D01*
X16224Y-28525D01*
X16224Y-28426D01*
X16224Y-27876D01*
X16186Y-27784D01*
X16116Y-27714D01*
X16025Y-27676D01*
X15926Y-27676D01*
X15376Y-27676D01*
X15284Y-27714D01*
X15214Y-27784D01*
X15176Y-27875D01*
X15176Y-27974D01*
X15176Y-27977D01*
X15145Y-27903D01*
X14998Y-27755D01*
X14805Y-27675D01*
X14596Y-27675D01*
X14403Y-27755D01*
X14255Y-27902D01*
X14175Y-28095D01*
X14175Y-28304D01*
X14255Y-28497D01*
X14402Y-28645D01*
X14542Y-28703D01*
X14433Y-28748D01*
X14410Y-28839D01*
X14700Y-29129D01*
X14990Y-28839D01*
X14967Y-28748D01*
X14848Y-28706D01*
X14997Y-28645D01*
X15145Y-28498D01*
X15176Y-28423D01*
X15176Y-28524D01*
X15214Y-28616D01*
X15284Y-28686D01*
X15375Y-28724D01*
X15474Y-28724D01*
X16024Y-28724D01*
X16116Y-28686D01*
X16186Y-28616D01*
X16224Y-28525D01*
X16224Y-29500D01*
X15219Y-29500D01*
X15141Y-29500D01*
X15116Y-29475D01*
X15152Y-29467D01*
X15219Y-29274D01*
X15208Y-29070D01*
X15152Y-28933D01*
X15061Y-28910D01*
X14806Y-29165D01*
X14771Y-29200D01*
X14700Y-29271D01*
X14629Y-29200D01*
X14594Y-29165D01*
X14339Y-28910D01*
X14248Y-28933D01*
X14181Y-29126D01*
X14192Y-29330D01*
X14200Y-29351D01*
X14111Y-29351D01*
X13946Y-29419D01*
X13820Y-29545D01*
X13751Y-29710D01*
X13751Y-29889D01*
X13819Y-30054D01*
X13945Y-30180D01*
X14110Y-30249D01*
X14289Y-30249D01*
X14454Y-30181D01*
X14535Y-30100D01*
X17075Y-30100D01*
X17887Y-30912D01*
X17888Y-30912D01*
X17985Y-30977D01*
X18099Y-30999D01*
X18100Y-31000D01*
X18257Y-31000D01*
X18402Y-31145D01*
X18542Y-31203D01*
X18433Y-31248D01*
X18410Y-31339D01*
X18700Y-31629D01*
X18990Y-31339D01*
X18967Y-31248D01*
X18848Y-31206D01*
X18997Y-31145D01*
X19145Y-30998D01*
X19176Y-30923D01*
X19176Y-31024D01*
X19214Y-31116D01*
X19284Y-31186D01*
X19375Y-31224D01*
X19474Y-31224D01*
X20024Y-31224D01*
X20116Y-31186D01*
X20186Y-31116D01*
X20224Y-31025D01*
X20224Y-32774D01*
X20214Y-32784D01*
X20176Y-32875D01*
X20176Y-32974D01*
X20176Y-32977D01*
X20145Y-32903D01*
X19998Y-32755D01*
X19805Y-32675D01*
X19596Y-32675D01*
X19403Y-32755D01*
X19255Y-32902D01*
X19219Y-32988D01*
X19219Y-31774D01*
X19208Y-31570D01*
X19152Y-31433D01*
X19061Y-31410D01*
X18771Y-31700D01*
X19061Y-31990D01*
X19152Y-31967D01*
X19219Y-31774D01*
X19219Y-32988D01*
X19175Y-33095D01*
X19175Y-33304D01*
X19255Y-33497D01*
X19402Y-33645D01*
X19542Y-33703D01*
X19433Y-33748D01*
X19410Y-33839D01*
X19700Y-34129D01*
X19990Y-33839D01*
X19967Y-33748D01*
X19848Y-33706D01*
X19997Y-33645D01*
X20145Y-33498D01*
X20176Y-33423D01*
X20176Y-33524D01*
X20214Y-33616D01*
X20284Y-33686D01*
X20375Y-33724D01*
X20474Y-33724D01*
X21024Y-33724D01*
X21116Y-33686D01*
X21186Y-33616D01*
X21224Y-33525D01*
X21224Y-34750D01*
X20219Y-34750D01*
X20219Y-34274D01*
X20208Y-34070D01*
X20152Y-33933D01*
X20061Y-33910D01*
X19771Y-34200D01*
X20061Y-34490D01*
X20152Y-34467D01*
X20219Y-34274D01*
X20219Y-34750D01*
X19990Y-34750D01*
X19990Y-34561D01*
X19700Y-34271D01*
X19629Y-34342D01*
X19629Y-34200D01*
X19339Y-33910D01*
X19248Y-33933D01*
X19181Y-34126D01*
X19192Y-34330D01*
X19248Y-34467D01*
X19339Y-34490D01*
X19629Y-34200D01*
X19629Y-34342D01*
X19410Y-34561D01*
X19433Y-34652D01*
X19626Y-34719D01*
X19830Y-34708D01*
X19967Y-34652D01*
X19990Y-34561D01*
X19990Y-34750D01*
X18990Y-34750D01*
X18990Y-32061D01*
X18700Y-31771D01*
X18629Y-31842D01*
X18629Y-31700D01*
X18339Y-31410D01*
X18248Y-31433D01*
X18181Y-31626D01*
X18192Y-31830D01*
X18248Y-31967D01*
X18339Y-31990D01*
X18629Y-31700D01*
X18629Y-31842D01*
X18410Y-32061D01*
X18433Y-32152D01*
X18626Y-32219D01*
X18830Y-32208D01*
X18967Y-32152D01*
X18990Y-32061D01*
X18990Y-34750D01*
X18224Y-34750D01*
X18224Y-33525D01*
X18224Y-33426D01*
X18224Y-32876D01*
X18186Y-32784D01*
X18116Y-32714D01*
X18025Y-32676D01*
X17926Y-32676D01*
X17376Y-32676D01*
X17284Y-32714D01*
X17224Y-32774D01*
X17224Y-31025D01*
X17224Y-30926D01*
X17224Y-30376D01*
X17186Y-30284D01*
X17116Y-30214D01*
X17025Y-30176D01*
X16926Y-30176D01*
X16376Y-30176D01*
X16284Y-30214D01*
X16214Y-30284D01*
X16176Y-30375D01*
X16176Y-30474D01*
X16176Y-30477D01*
X16145Y-30403D01*
X15998Y-30255D01*
X15805Y-30175D01*
X15596Y-30175D01*
X15403Y-30255D01*
X15255Y-30402D01*
X15175Y-30595D01*
X15175Y-30804D01*
X15255Y-30997D01*
X15402Y-31145D01*
X15542Y-31203D01*
X15433Y-31248D01*
X15410Y-31339D01*
X15700Y-31629D01*
X15990Y-31339D01*
X15967Y-31248D01*
X15848Y-31206D01*
X15997Y-31145D01*
X16145Y-30998D01*
X16176Y-30923D01*
X16176Y-31024D01*
X16214Y-31116D01*
X16284Y-31186D01*
X16375Y-31224D01*
X16474Y-31224D01*
X17024Y-31224D01*
X17116Y-31186D01*
X17186Y-31116D01*
X17224Y-31025D01*
X17224Y-32774D01*
X17214Y-32784D01*
X17176Y-32875D01*
X17176Y-32974D01*
X17176Y-32977D01*
X17145Y-32903D01*
X16998Y-32755D01*
X16805Y-32675D01*
X16596Y-32675D01*
X16403Y-32755D01*
X16255Y-32902D01*
X16219Y-32988D01*
X16219Y-31774D01*
X16208Y-31570D01*
X16152Y-31433D01*
X16061Y-31410D01*
X15771Y-31700D01*
X16061Y-31990D01*
X16152Y-31967D01*
X16219Y-31774D01*
X16219Y-32988D01*
X16175Y-33095D01*
X16175Y-33304D01*
X16255Y-33497D01*
X16402Y-33645D01*
X16542Y-33703D01*
X16433Y-33748D01*
X16410Y-33839D01*
X16700Y-34129D01*
X16990Y-33839D01*
X16967Y-33748D01*
X16848Y-33706D01*
X16997Y-33645D01*
X17145Y-33498D01*
X17176Y-33423D01*
X17176Y-33524D01*
X17214Y-33616D01*
X17284Y-33686D01*
X17375Y-33724D01*
X17474Y-33724D01*
X18024Y-33724D01*
X18116Y-33686D01*
X18186Y-33616D01*
X18224Y-33525D01*
X18224Y-34750D01*
X17219Y-34750D01*
X17219Y-34274D01*
X17208Y-34070D01*
X17152Y-33933D01*
X17061Y-33910D01*
X16771Y-34200D01*
X17061Y-34490D01*
X17152Y-34467D01*
X17219Y-34274D01*
X17219Y-34750D01*
X16990Y-34750D01*
X16990Y-34561D01*
X16700Y-34271D01*
X16629Y-34342D01*
X16629Y-34200D01*
X16339Y-33910D01*
X16248Y-33933D01*
X16181Y-34126D01*
X16192Y-34330D01*
X16248Y-34467D01*
X16339Y-34490D01*
X16629Y-34200D01*
X16629Y-34342D01*
X16410Y-34561D01*
X16433Y-34652D01*
X16626Y-34719D01*
X16830Y-34708D01*
X16967Y-34652D01*
X16990Y-34561D01*
X16990Y-34750D01*
X15990Y-34750D01*
X15990Y-32061D01*
X15700Y-31771D01*
X15629Y-31842D01*
X15629Y-31700D01*
X15339Y-31410D01*
X15248Y-31433D01*
X15181Y-31626D01*
X15192Y-31830D01*
X15248Y-31967D01*
X15339Y-31990D01*
X15629Y-31700D01*
X15629Y-31842D01*
X15410Y-32061D01*
X15433Y-32152D01*
X15626Y-32219D01*
X15830Y-32208D01*
X15967Y-32152D01*
X15990Y-32061D01*
X15990Y-34750D01*
X15224Y-34750D01*
X15224Y-33525D01*
X15224Y-33426D01*
X15224Y-32876D01*
X15186Y-32784D01*
X15116Y-32714D01*
X15025Y-32676D01*
X14926Y-32676D01*
X14376Y-32676D01*
X14284Y-32714D01*
X14214Y-32784D01*
X14176Y-32875D01*
X14176Y-32974D01*
X14176Y-32977D01*
X14145Y-32903D01*
X13998Y-32755D01*
X13805Y-32675D01*
X13734Y-32675D01*
X13734Y-30756D01*
X13547Y-30302D01*
X13200Y-29955D01*
X12747Y-29767D01*
X12256Y-29766D01*
X11802Y-29953D01*
X11455Y-30300D01*
X11267Y-30753D01*
X11266Y-31244D01*
X11453Y-31698D01*
X11800Y-32045D01*
X12253Y-32233D01*
X12744Y-32234D01*
X13198Y-32047D01*
X13545Y-31700D01*
X13733Y-31247D01*
X13734Y-30756D01*
X13734Y-32675D01*
X13596Y-32675D01*
X13403Y-32755D01*
X13255Y-32902D01*
X13175Y-33095D01*
X13175Y-33304D01*
X13255Y-33497D01*
X13402Y-33645D01*
X13542Y-33703D01*
X13433Y-33748D01*
X13410Y-33839D01*
X13700Y-34129D01*
X13990Y-33839D01*
X13967Y-33748D01*
X13848Y-33706D01*
X13997Y-33645D01*
X14145Y-33498D01*
X14176Y-33423D01*
X14176Y-33524D01*
X14214Y-33616D01*
X14284Y-33686D01*
X14375Y-33724D01*
X14474Y-33724D01*
X15024Y-33724D01*
X15116Y-33686D01*
X15186Y-33616D01*
X15224Y-33525D01*
X15224Y-34750D01*
X14219Y-34750D01*
X14219Y-34274D01*
X14208Y-34070D01*
X14152Y-33933D01*
X14061Y-33910D01*
X13771Y-34200D01*
X14061Y-34490D01*
X14152Y-34467D01*
X14219Y-34274D01*
X14219Y-34750D01*
X13990Y-34750D01*
X13990Y-34561D01*
X13700Y-34271D01*
X13629Y-34342D01*
X13629Y-34200D01*
X13339Y-33910D01*
X13248Y-33933D01*
X13181Y-34126D01*
X13192Y-34330D01*
X13248Y-34467D01*
X13339Y-34490D01*
X13629Y-34200D01*
X13629Y-34342D01*
X13410Y-34561D01*
X13433Y-34652D01*
X13626Y-34719D01*
X13830Y-34708D01*
X13967Y-34652D01*
X13990Y-34561D01*
X13990Y-34750D01*
X10750Y-34750D01*
X10750Y-26650D01*
X24650Y-26650D01*
X24650Y-34750D01*
X24650Y-34750D01*
G37*
G54D26*
X24650Y-34750D02*
X24224Y-34750D01*
X24224Y-33525D01*
X24224Y-33426D01*
X24224Y-32876D01*
X24186Y-32784D01*
X24116Y-32714D01*
X24025Y-32676D01*
X23926Y-32676D01*
X23376Y-32676D01*
X23284Y-32714D01*
X23224Y-32774D01*
X23224Y-31025D01*
X23224Y-30926D01*
X23224Y-30376D01*
X23186Y-30284D01*
X23116Y-30214D01*
X23025Y-30176D01*
X22926Y-30176D01*
X22376Y-30176D01*
X22284Y-30214D01*
X22224Y-30274D01*
X22224Y-28525D01*
X22224Y-28426D01*
X22224Y-27876D01*
X22186Y-27784D01*
X22116Y-27714D01*
X22025Y-27676D01*
X21926Y-27676D01*
X21376Y-27676D01*
X21284Y-27714D01*
X21214Y-27784D01*
X21176Y-27875D01*
X21176Y-27974D01*
X21176Y-27977D01*
X21145Y-27903D01*
X20998Y-27755D01*
X20805Y-27675D01*
X20596Y-27675D01*
X20403Y-27755D01*
X20255Y-27902D01*
X20175Y-28095D01*
X20175Y-28304D01*
X20255Y-28497D01*
X20402Y-28645D01*
X20542Y-28703D01*
X20433Y-28748D01*
X20410Y-28839D01*
X20700Y-29129D01*
X20990Y-28839D01*
X20967Y-28748D01*
X20848Y-28706D01*
X20997Y-28645D01*
X21145Y-28498D01*
X21176Y-28423D01*
X21176Y-28524D01*
X21214Y-28616D01*
X21284Y-28686D01*
X21375Y-28724D01*
X21474Y-28724D01*
X22024Y-28724D01*
X22116Y-28686D01*
X22186Y-28616D01*
X22224Y-28525D01*
X22224Y-30274D01*
X22214Y-30284D01*
X22176Y-30375D01*
X22176Y-30474D01*
X22176Y-30477D01*
X22145Y-30403D01*
X21998Y-30255D01*
X21805Y-30175D01*
X21596Y-30175D01*
X21403Y-30255D01*
X21255Y-30402D01*
X21219Y-30488D01*
X21219Y-29274D01*
X21208Y-29070D01*
X21152Y-28933D01*
X21061Y-28910D01*
X20771Y-29200D01*
X21061Y-29490D01*
X21152Y-29467D01*
X21219Y-29274D01*
X21219Y-30488D01*
X21175Y-30595D01*
X21175Y-30804D01*
X21255Y-30997D01*
X21402Y-31145D01*
X21542Y-31203D01*
X21433Y-31248D01*
X21410Y-31339D01*
X21700Y-31629D01*
X21990Y-31339D01*
X21967Y-31248D01*
X21848Y-31206D01*
X21997Y-31145D01*
X22145Y-30998D01*
X22176Y-30923D01*
X22176Y-31024D01*
X22214Y-31116D01*
X22284Y-31186D01*
X22375Y-31224D01*
X22474Y-31224D01*
X23024Y-31224D01*
X23116Y-31186D01*
X23186Y-31116D01*
X23224Y-31025D01*
X23224Y-32774D01*
X23214Y-32784D01*
X23176Y-32875D01*
X23176Y-32974D01*
X23176Y-32977D01*
X23145Y-32903D01*
X22998Y-32755D01*
X22805Y-32675D01*
X22596Y-32675D01*
X22403Y-32755D01*
X22255Y-32902D01*
X22219Y-32988D01*
X22219Y-31774D01*
X22208Y-31570D01*
X22152Y-31433D01*
X22061Y-31410D01*
X21771Y-31700D01*
X22061Y-31990D01*
X22152Y-31967D01*
X22219Y-31774D01*
X22219Y-32988D01*
X22175Y-33095D01*
X22175Y-33304D01*
X22255Y-33497D01*
X22402Y-33645D01*
X22542Y-33703D01*
X22433Y-33748D01*
X22410Y-33839D01*
X22700Y-34129D01*
X22990Y-33839D01*
X22967Y-33748D01*
X22848Y-33706D01*
X22997Y-33645D01*
X23145Y-33498D01*
X23176Y-33423D01*
X23176Y-33524D01*
X23214Y-33616D01*
X23284Y-33686D01*
X23375Y-33724D01*
X23474Y-33724D01*
X24024Y-33724D01*
X24116Y-33686D01*
X24186Y-33616D01*
X24224Y-33525D01*
X24224Y-34750D01*
X23219Y-34750D01*
X23219Y-34274D01*
X23208Y-34070D01*
X23152Y-33933D01*
X23061Y-33910D01*
X22771Y-34200D01*
X23061Y-34490D01*
X23152Y-34467D01*
X23219Y-34274D01*
X23219Y-34750D01*
X22990Y-34750D01*
X22990Y-34561D01*
X22700Y-34271D01*
X22629Y-34342D01*
X22629Y-34200D01*
X22339Y-33910D01*
X22248Y-33933D01*
X22181Y-34126D01*
X22192Y-34330D01*
X22248Y-34467D01*
X22339Y-34490D01*
X22629Y-34200D01*
X22629Y-34342D01*
X22410Y-34561D01*
X22433Y-34652D01*
X22626Y-34719D01*
X22830Y-34708D01*
X22967Y-34652D01*
X22990Y-34561D01*
X22990Y-34750D01*
X21990Y-34750D01*
X21990Y-32061D01*
X21700Y-31771D01*
X21629Y-31842D01*
X21629Y-31700D01*
X21339Y-31410D01*
X21248Y-31433D01*
X21181Y-31626D01*
X21192Y-31830D01*
X21248Y-31967D01*
X21339Y-31990D01*
X21629Y-31700D01*
X21629Y-31842D01*
X21410Y-32061D01*
X21433Y-32152D01*
X21626Y-32219D01*
X21830Y-32208D01*
X21967Y-32152D01*
X21990Y-32061D01*
X21990Y-34750D01*
X21224Y-34750D01*
X21224Y-33525D01*
X21224Y-33426D01*
X21224Y-32876D01*
X21186Y-32784D01*
X21116Y-32714D01*
X21025Y-32676D01*
X20990Y-32676D01*
X20990Y-29561D01*
X20700Y-29271D01*
X20629Y-29342D01*
X20629Y-29200D01*
X20339Y-28910D01*
X20248Y-28933D01*
X20181Y-29126D01*
X20192Y-29330D01*
X20248Y-29467D01*
X20339Y-29490D01*
X20629Y-29200D01*
X20629Y-29342D01*
X20410Y-29561D01*
X20433Y-29652D01*
X20626Y-29719D01*
X20830Y-29708D01*
X20967Y-29652D01*
X20990Y-29561D01*
X20990Y-32676D01*
X20926Y-32676D01*
X20376Y-32676D01*
X20284Y-32714D01*
X20224Y-32774D01*
X20224Y-31025D01*
X20224Y-30926D01*
X20224Y-30376D01*
X20186Y-30284D01*
X20116Y-30214D01*
X20025Y-30176D01*
X19926Y-30176D01*
X19376Y-30176D01*
X19284Y-30214D01*
X19224Y-30274D01*
X19224Y-28525D01*
X19224Y-28426D01*
X19224Y-27876D01*
X19186Y-27784D01*
X19116Y-27714D01*
X19025Y-27676D01*
X18926Y-27676D01*
X18376Y-27676D01*
X18284Y-27714D01*
X18214Y-27784D01*
X18176Y-27875D01*
X18176Y-27974D01*
X18176Y-27977D01*
X18145Y-27903D01*
X17998Y-27755D01*
X17805Y-27675D01*
X17596Y-27675D01*
X17403Y-27755D01*
X17257Y-27900D01*
X17224Y-27900D01*
X17000Y-27675D01*
X17000Y-27635D01*
X17080Y-27555D01*
X17149Y-27390D01*
X17149Y-27211D01*
X17081Y-27046D01*
X16955Y-26920D01*
X16790Y-26851D01*
X16611Y-26851D01*
X16446Y-26919D01*
X16320Y-27045D01*
X16251Y-27210D01*
X16251Y-27389D01*
X16319Y-27554D01*
X16400Y-27635D01*
X16400Y-27800D01*
X16423Y-27915D01*
X16488Y-28012D01*
X16887Y-28412D01*
X16888Y-28412D01*
X16985Y-28477D01*
X17100Y-28500D01*
X17257Y-28500D01*
X17402Y-28645D01*
X17542Y-28703D01*
X17433Y-28748D01*
X17410Y-28839D01*
X17700Y-29129D01*
X17990Y-28839D01*
X17967Y-28748D01*
X17848Y-28706D01*
X17997Y-28645D01*
X18145Y-28498D01*
X18176Y-28423D01*
X18176Y-28524D01*
X18214Y-28616D01*
X18284Y-28686D01*
X18375Y-28724D01*
X18474Y-28724D01*
X19024Y-28724D01*
X19116Y-28686D01*
X19186Y-28616D01*
X19224Y-28525D01*
X19224Y-30274D01*
X19214Y-30284D01*
X19176Y-30375D01*
X19176Y-30474D01*
X19176Y-30477D01*
X19145Y-30403D01*
X18998Y-30255D01*
X18805Y-30175D01*
X18596Y-30175D01*
X18403Y-30255D01*
X18257Y-30400D01*
X18224Y-30400D01*
X18219Y-30394D01*
X18219Y-29274D01*
X18208Y-29070D01*
X18152Y-28933D01*
X18061Y-28910D01*
X17771Y-29200D01*
X18061Y-29490D01*
X18152Y-29467D01*
X18219Y-29274D01*
X18219Y-30394D01*
X17499Y-29674D01*
X17626Y-29719D01*
X17830Y-29708D01*
X17967Y-29652D01*
X17990Y-29561D01*
X17735Y-29306D01*
X17700Y-29271D01*
X17629Y-29200D01*
X17594Y-29165D01*
X17339Y-28910D01*
X17248Y-28933D01*
X17181Y-29126D01*
X17192Y-29330D01*
X17248Y-29467D01*
X17283Y-29475D01*
X17252Y-29507D01*
X17256Y-29511D01*
X17200Y-29500D01*
X16224Y-29500D01*
X16224Y-28525D01*
X16224Y-28426D01*
X16224Y-27876D01*
X16186Y-27784D01*
X16116Y-27714D01*
X16025Y-27676D01*
X15926Y-27676D01*
X15376Y-27676D01*
X15284Y-27714D01*
X15214Y-27784D01*
X15176Y-27875D01*
X15176Y-27974D01*
X15176Y-27977D01*
X15145Y-27903D01*
X14998Y-27755D01*
X14805Y-27675D01*
X14596Y-27675D01*
X14403Y-27755D01*
X14255Y-27902D01*
X14175Y-28095D01*
X14175Y-28304D01*
X14255Y-28497D01*
X14402Y-28645D01*
X14542Y-28703D01*
X14433Y-28748D01*
X14410Y-28839D01*
X14700Y-29129D01*
X14990Y-28839D01*
X14967Y-28748D01*
X14848Y-28706D01*
X14997Y-28645D01*
X15145Y-28498D01*
X15176Y-28423D01*
X15176Y-28524D01*
X15214Y-28616D01*
X15284Y-28686D01*
X15375Y-28724D01*
X15474Y-28724D01*
X16024Y-28724D01*
X16116Y-28686D01*
X16186Y-28616D01*
X16224Y-28525D01*
X16224Y-29500D01*
X15219Y-29500D01*
X15141Y-29500D01*
X15116Y-29475D01*
X15152Y-29467D01*
X15219Y-29274D01*
X15208Y-29070D01*
X15152Y-28933D01*
X15061Y-28910D01*
X14806Y-29165D01*
X14771Y-29200D01*
X14700Y-29271D01*
X14629Y-29200D01*
X14594Y-29165D01*
X14339Y-28910D01*
X14248Y-28933D01*
X14181Y-29126D01*
X14192Y-29330D01*
X14200Y-29351D01*
X14111Y-29351D01*
X13946Y-29419D01*
X13820Y-29545D01*
X13751Y-29710D01*
X13751Y-29889D01*
X13819Y-30054D01*
X13945Y-30180D01*
X14110Y-30249D01*
X14289Y-30249D01*
X14454Y-30181D01*
X14535Y-30100D01*
X17075Y-30100D01*
X17887Y-30912D01*
X17888Y-30912D01*
X17985Y-30977D01*
X18099Y-30999D01*
X18100Y-31000D01*
X18257Y-31000D01*
X18402Y-31145D01*
X18542Y-31203D01*
X18433Y-31248D01*
X18410Y-31339D01*
X18700Y-31629D01*
X18990Y-31339D01*
X18967Y-31248D01*
X18848Y-31206D01*
X18997Y-31145D01*
X19145Y-30998D01*
X19176Y-30923D01*
X19176Y-31024D01*
X19214Y-31116D01*
X19284Y-31186D01*
X19375Y-31224D01*
X19474Y-31224D01*
X20024Y-31224D01*
X20116Y-31186D01*
X20186Y-31116D01*
X20224Y-31025D01*
X20224Y-32774D01*
X20214Y-32784D01*
X20176Y-32875D01*
X20176Y-32974D01*
X20176Y-32977D01*
X20145Y-32903D01*
X19998Y-32755D01*
X19805Y-32675D01*
X19596Y-32675D01*
X19403Y-32755D01*
X19255Y-32902D01*
X19219Y-32988D01*
X19219Y-31774D01*
X19208Y-31570D01*
X19152Y-31433D01*
X19061Y-31410D01*
X18771Y-31700D01*
X19061Y-31990D01*
X19152Y-31967D01*
X19219Y-31774D01*
X19219Y-32988D01*
X19175Y-33095D01*
X19175Y-33304D01*
X19255Y-33497D01*
X19402Y-33645D01*
X19542Y-33703D01*
X19433Y-33748D01*
X19410Y-33839D01*
X19700Y-34129D01*
X19990Y-33839D01*
X19967Y-33748D01*
X19848Y-33706D01*
X19997Y-33645D01*
X20145Y-33498D01*
X20176Y-33423D01*
X20176Y-33524D01*
X20214Y-33616D01*
X20284Y-33686D01*
X20375Y-33724D01*
X20474Y-33724D01*
X21024Y-33724D01*
X21116Y-33686D01*
X21186Y-33616D01*
X21224Y-33525D01*
X21224Y-34750D01*
X20219Y-34750D01*
X20219Y-34274D01*
X20208Y-34070D01*
X20152Y-33933D01*
X20061Y-33910D01*
X19771Y-34200D01*
X20061Y-34490D01*
X20152Y-34467D01*
X20219Y-34274D01*
X20219Y-34750D01*
X19990Y-34750D01*
X19990Y-34561D01*
X19700Y-34271D01*
X19629Y-34342D01*
X19629Y-34200D01*
X19339Y-33910D01*
X19248Y-33933D01*
X19181Y-34126D01*
X19192Y-34330D01*
X19248Y-34467D01*
X19339Y-34490D01*
X19629Y-34200D01*
X19629Y-34342D01*
X19410Y-34561D01*
X19433Y-34652D01*
X19626Y-34719D01*
X19830Y-34708D01*
X19967Y-34652D01*
X19990Y-34561D01*
X19990Y-34750D01*
X18990Y-34750D01*
X18990Y-32061D01*
X18700Y-31771D01*
X18629Y-31842D01*
X18629Y-31700D01*
X18339Y-31410D01*
X18248Y-31433D01*
X18181Y-31626D01*
X18192Y-31830D01*
X18248Y-31967D01*
X18339Y-31990D01*
X18629Y-31700D01*
X18629Y-31842D01*
X18410Y-32061D01*
X18433Y-32152D01*
X18626Y-32219D01*
X18830Y-32208D01*
X18967Y-32152D01*
X18990Y-32061D01*
X18990Y-34750D01*
X18224Y-34750D01*
X18224Y-33525D01*
X18224Y-33426D01*
X18224Y-32876D01*
X18186Y-32784D01*
X18116Y-32714D01*
X18025Y-32676D01*
X17926Y-32676D01*
X17376Y-32676D01*
X17284Y-32714D01*
X17224Y-32774D01*
X17224Y-31025D01*
X17224Y-30926D01*
X17224Y-30376D01*
X17186Y-30284D01*
X17116Y-30214D01*
X17025Y-30176D01*
X16926Y-30176D01*
X16376Y-30176D01*
X16284Y-30214D01*
X16214Y-30284D01*
X16176Y-30375D01*
X16176Y-30474D01*
X16176Y-30477D01*
X16145Y-30403D01*
X15998Y-30255D01*
X15805Y-30175D01*
X15596Y-30175D01*
X15403Y-30255D01*
X15255Y-30402D01*
X15175Y-30595D01*
X15175Y-30804D01*
X15255Y-30997D01*
X15402Y-31145D01*
X15542Y-31203D01*
X15433Y-31248D01*
X15410Y-31339D01*
X15700Y-31629D01*
X15990Y-31339D01*
X15967Y-31248D01*
X15848Y-31206D01*
X15997Y-31145D01*
X16145Y-30998D01*
X16176Y-30923D01*
X16176Y-31024D01*
X16214Y-31116D01*
X16284Y-31186D01*
X16375Y-31224D01*
X16474Y-31224D01*
X17024Y-31224D01*
X17116Y-31186D01*
X17186Y-31116D01*
X17224Y-31025D01*
X17224Y-32774D01*
X17214Y-32784D01*
X17176Y-32875D01*
X17176Y-32974D01*
X17176Y-32977D01*
X17145Y-32903D01*
X16998Y-32755D01*
X16805Y-32675D01*
X16596Y-32675D01*
X16403Y-32755D01*
X16255Y-32902D01*
X16219Y-32988D01*
X16219Y-31774D01*
X16208Y-31570D01*
X16152Y-31433D01*
X16061Y-31410D01*
X15771Y-31700D01*
X16061Y-31990D01*
X16152Y-31967D01*
X16219Y-31774D01*
X16219Y-32988D01*
X16175Y-33095D01*
X16175Y-33304D01*
X16255Y-33497D01*
X16402Y-33645D01*
X16542Y-33703D01*
X16433Y-33748D01*
X16410Y-33839D01*
X16700Y-34129D01*
X16990Y-33839D01*
X16967Y-33748D01*
X16848Y-33706D01*
X16997Y-33645D01*
X17145Y-33498D01*
X17176Y-33423D01*
X17176Y-33524D01*
X17214Y-33616D01*
X17284Y-33686D01*
X17375Y-33724D01*
X17474Y-33724D01*
X18024Y-33724D01*
X18116Y-33686D01*
X18186Y-33616D01*
X18224Y-33525D01*
X18224Y-34750D01*
X17219Y-34750D01*
X17219Y-34274D01*
X17208Y-34070D01*
X17152Y-33933D01*
X17061Y-33910D01*
X16771Y-34200D01*
X17061Y-34490D01*
X17152Y-34467D01*
X17219Y-34274D01*
X17219Y-34750D01*
X16990Y-34750D01*
X16990Y-34561D01*
X16700Y-34271D01*
X16629Y-34342D01*
X16629Y-34200D01*
X16339Y-33910D01*
X16248Y-33933D01*
X16181Y-34126D01*
X16192Y-34330D01*
X16248Y-34467D01*
X16339Y-34490D01*
X16629Y-34200D01*
X16629Y-34342D01*
X16410Y-34561D01*
X16433Y-34652D01*
X16626Y-34719D01*
X16830Y-34708D01*
X16967Y-34652D01*
X16990Y-34561D01*
X16990Y-34750D01*
X15990Y-34750D01*
X15990Y-32061D01*
X15700Y-31771D01*
X15629Y-31842D01*
X15629Y-31700D01*
X15339Y-31410D01*
X15248Y-31433D01*
X15181Y-31626D01*
X15192Y-31830D01*
X15248Y-31967D01*
X15339Y-31990D01*
X15629Y-31700D01*
X15629Y-31842D01*
X15410Y-32061D01*
X15433Y-32152D01*
X15626Y-32219D01*
X15830Y-32208D01*
X15967Y-32152D01*
X15990Y-32061D01*
X15990Y-34750D01*
X15224Y-34750D01*
X15224Y-33525D01*
X15224Y-33426D01*
X15224Y-32876D01*
X15186Y-32784D01*
X15116Y-32714D01*
X15025Y-32676D01*
X14926Y-32676D01*
X14376Y-32676D01*
X14284Y-32714D01*
X14214Y-32784D01*
X14176Y-32875D01*
X14176Y-32974D01*
X14176Y-32977D01*
X14145Y-32903D01*
X13998Y-32755D01*
X13805Y-32675D01*
X13734Y-32675D01*
X13734Y-30756D01*
X13547Y-30302D01*
X13200Y-29955D01*
X12747Y-29767D01*
X12256Y-29766D01*
X11802Y-29953D01*
X11455Y-30300D01*
X11267Y-30753D01*
X11266Y-31244D01*
X11453Y-31698D01*
X11800Y-32045D01*
X12253Y-32233D01*
X12744Y-32234D01*
X13198Y-32047D01*
X13545Y-31700D01*
X13733Y-31247D01*
X13734Y-30756D01*
X13734Y-32675D01*
X13596Y-32675D01*
X13403Y-32755D01*
X13255Y-32902D01*
X13175Y-33095D01*
X13175Y-33304D01*
X13255Y-33497D01*
X13402Y-33645D01*
X13542Y-33703D01*
X13433Y-33748D01*
X13410Y-33839D01*
X13700Y-34129D01*
X13990Y-33839D01*
X13967Y-33748D01*
X13848Y-33706D01*
X13997Y-33645D01*
X14145Y-33498D01*
X14176Y-33423D01*
X14176Y-33524D01*
X14214Y-33616D01*
X14284Y-33686D01*
X14375Y-33724D01*
X14474Y-33724D01*
X15024Y-33724D01*
X15116Y-33686D01*
X15186Y-33616D01*
X15224Y-33525D01*
X15224Y-34750D01*
X14219Y-34750D01*
X14219Y-34274D01*
X14208Y-34070D01*
X14152Y-33933D01*
X14061Y-33910D01*
X13771Y-34200D01*
X14061Y-34490D01*
X14152Y-34467D01*
X14219Y-34274D01*
X14219Y-34750D01*
X13990Y-34750D01*
X13990Y-34561D01*
X13700Y-34271D01*
X13629Y-34342D01*
X13629Y-34200D01*
X13339Y-33910D01*
X13248Y-33933D01*
X13181Y-34126D01*
X13192Y-34330D01*
X13248Y-34467D01*
X13339Y-34490D01*
X13629Y-34200D01*
X13629Y-34342D01*
X13410Y-34561D01*
X13433Y-34652D01*
X13626Y-34719D01*
X13830Y-34708D01*
X13967Y-34652D01*
X13990Y-34561D01*
X13990Y-34750D01*
X10750Y-34750D01*
X10750Y-26650D01*
X24650Y-26650D01*
X24650Y-34750D01*
G54D10*
G36*
X48650Y-34750D02*
X48234Y-34750D01*
X48234Y-24256D01*
X48047Y-23802D01*
X47700Y-23455D01*
X47525Y-23382D01*
X47525Y-20605D01*
X47525Y-20396D01*
X47525Y-17605D01*
X47525Y-17396D01*
X47445Y-17203D01*
X47298Y-17055D01*
X47105Y-16975D01*
X46896Y-16975D01*
X46703Y-17055D01*
X46555Y-17202D01*
X46525Y-17274D01*
X46525Y-12605D01*
X46525Y-12396D01*
X46445Y-12203D01*
X46298Y-12055D01*
X46105Y-11975D01*
X45896Y-11975D01*
X45703Y-12055D01*
X45555Y-12202D01*
X45499Y-12335D01*
X45445Y-12203D01*
X45298Y-12055D01*
X45105Y-11975D01*
X44896Y-11975D01*
X44703Y-12055D01*
X44555Y-12202D01*
X44499Y-12335D01*
X44445Y-12203D01*
X44298Y-12055D01*
X44105Y-11975D01*
X43896Y-11975D01*
X43703Y-12055D01*
X43555Y-12202D01*
X43499Y-12335D01*
X43445Y-12203D01*
X43298Y-12055D01*
X43105Y-11975D01*
X42896Y-11975D01*
X42703Y-12055D01*
X42555Y-12202D01*
X42475Y-12395D01*
X42475Y-12604D01*
X42555Y-12797D01*
X42702Y-12945D01*
X42895Y-13025D01*
X43104Y-13025D01*
X43297Y-12945D01*
X43445Y-12798D01*
X43500Y-12664D01*
X43555Y-12797D01*
X43702Y-12945D01*
X43895Y-13025D01*
X44104Y-13025D01*
X44297Y-12945D01*
X44445Y-12798D01*
X44500Y-12664D01*
X44555Y-12797D01*
X44702Y-12945D01*
X44895Y-13025D01*
X45104Y-13025D01*
X45297Y-12945D01*
X45445Y-12798D01*
X45500Y-12664D01*
X45555Y-12797D01*
X45702Y-12945D01*
X45895Y-13025D01*
X46104Y-13025D01*
X46297Y-12945D01*
X46445Y-12798D01*
X46525Y-12605D01*
X46525Y-17274D01*
X46519Y-17288D01*
X46519Y-15574D01*
X46508Y-15370D01*
X46452Y-15233D01*
X46361Y-15210D01*
X46290Y-15281D01*
X46290Y-15139D01*
X46267Y-15048D01*
X46074Y-14981D01*
X45870Y-14992D01*
X45733Y-15048D01*
X45710Y-15139D01*
X46000Y-15429D01*
X46290Y-15139D01*
X46290Y-15281D01*
X46071Y-15500D01*
X46361Y-15790D01*
X46452Y-15767D01*
X46519Y-15574D01*
X46519Y-17288D01*
X46475Y-17395D01*
X46475Y-17604D01*
X46555Y-17797D01*
X46702Y-17945D01*
X46895Y-18025D01*
X47104Y-18025D01*
X47297Y-17945D01*
X47445Y-17798D01*
X47525Y-17605D01*
X47525Y-20396D01*
X47445Y-20203D01*
X47298Y-20055D01*
X47105Y-19975D01*
X46896Y-19975D01*
X46703Y-20055D01*
X46555Y-20202D01*
X46475Y-20395D01*
X46475Y-20604D01*
X46555Y-20797D01*
X46702Y-20945D01*
X46895Y-21025D01*
X47104Y-21025D01*
X47297Y-20945D01*
X47445Y-20798D01*
X47525Y-20605D01*
X47525Y-23382D01*
X47247Y-23267D01*
X46756Y-23266D01*
X46302Y-23453D01*
X46290Y-23465D01*
X46290Y-15861D01*
X46000Y-15571D01*
X45929Y-15642D01*
X45929Y-15500D01*
X45639Y-15210D01*
X45548Y-15233D01*
X45506Y-15351D01*
X45445Y-15203D01*
X45298Y-15055D01*
X45105Y-14975D01*
X44896Y-14975D01*
X44703Y-15055D01*
X44555Y-15202D01*
X44499Y-15335D01*
X44445Y-15203D01*
X44298Y-15055D01*
X44105Y-14975D01*
X43896Y-14975D01*
X43703Y-15055D01*
X43555Y-15202D01*
X43524Y-15276D01*
X43524Y-15176D01*
X43486Y-15084D01*
X43416Y-15014D01*
X43325Y-14976D01*
X43226Y-14976D01*
X42676Y-14976D01*
X42584Y-15014D01*
X42514Y-15084D01*
X42476Y-15175D01*
X42476Y-15274D01*
X42476Y-15824D01*
X42514Y-15916D01*
X42584Y-15986D01*
X42675Y-16024D01*
X42774Y-16024D01*
X43324Y-16024D01*
X43416Y-15986D01*
X43486Y-15916D01*
X43524Y-15825D01*
X43524Y-15726D01*
X43524Y-15722D01*
X43555Y-15797D01*
X43702Y-15945D01*
X43895Y-16025D01*
X44104Y-16025D01*
X44297Y-15945D01*
X44445Y-15798D01*
X44500Y-15664D01*
X44555Y-15797D01*
X44702Y-15945D01*
X44895Y-16025D01*
X45104Y-16025D01*
X45297Y-15945D01*
X45445Y-15798D01*
X45503Y-15657D01*
X45548Y-15767D01*
X45639Y-15790D01*
X45929Y-15500D01*
X45929Y-15642D01*
X45710Y-15861D01*
X45733Y-15952D01*
X45926Y-16019D01*
X46130Y-16008D01*
X46267Y-15952D01*
X46290Y-15861D01*
X46290Y-23465D01*
X46025Y-23730D01*
X46025Y-20605D01*
X46025Y-20396D01*
X46025Y-17605D01*
X46025Y-17396D01*
X45945Y-17203D01*
X45798Y-17055D01*
X45605Y-16975D01*
X45396Y-16975D01*
X45203Y-17055D01*
X45055Y-17202D01*
X44975Y-17395D01*
X44975Y-17604D01*
X45055Y-17797D01*
X45202Y-17945D01*
X45395Y-18025D01*
X45604Y-18025D01*
X45797Y-17945D01*
X45945Y-17798D01*
X46025Y-17605D01*
X46025Y-20396D01*
X45945Y-20203D01*
X45798Y-20055D01*
X45605Y-19975D01*
X45396Y-19975D01*
X45203Y-20055D01*
X45055Y-20202D01*
X44975Y-20395D01*
X44975Y-20604D01*
X45055Y-20797D01*
X45202Y-20945D01*
X45395Y-21025D01*
X45604Y-21025D01*
X45797Y-20945D01*
X45945Y-20798D01*
X46025Y-20605D01*
X46025Y-23730D01*
X45955Y-23800D01*
X45767Y-24253D01*
X45766Y-24744D01*
X45953Y-25198D01*
X46300Y-25545D01*
X46753Y-25733D01*
X47244Y-25734D01*
X47698Y-25547D01*
X48045Y-25200D01*
X48233Y-24747D01*
X48234Y-24256D01*
X48234Y-34750D01*
X44549Y-34750D01*
X44549Y-20109D01*
X44549Y-19891D01*
X44549Y-17109D01*
X44549Y-16891D01*
X44465Y-16689D01*
X44311Y-16535D01*
X44109Y-16451D01*
X43891Y-16451D01*
X43689Y-16535D01*
X43535Y-16689D01*
X43500Y-16773D01*
X43465Y-16689D01*
X43311Y-16535D01*
X43109Y-16451D01*
X42891Y-16451D01*
X42689Y-16535D01*
X42535Y-16689D01*
X42451Y-16891D01*
X42451Y-17109D01*
X42535Y-17311D01*
X42689Y-17465D01*
X42891Y-17549D01*
X43109Y-17549D01*
X43311Y-17465D01*
X43465Y-17311D01*
X43500Y-17226D01*
X43535Y-17311D01*
X43689Y-17465D01*
X43891Y-17549D01*
X44109Y-17549D01*
X44311Y-17465D01*
X44465Y-17311D01*
X44549Y-17109D01*
X44549Y-19891D01*
X44465Y-19689D01*
X44311Y-19535D01*
X44109Y-19451D01*
X43891Y-19451D01*
X43689Y-19535D01*
X43535Y-19689D01*
X43500Y-19773D01*
X43465Y-19689D01*
X43311Y-19535D01*
X43109Y-19451D01*
X42891Y-19451D01*
X42689Y-19535D01*
X42535Y-19689D01*
X42451Y-19891D01*
X42451Y-20109D01*
X42535Y-20311D01*
X42689Y-20465D01*
X42891Y-20549D01*
X43109Y-20549D01*
X43311Y-20465D01*
X43465Y-20311D01*
X43500Y-20226D01*
X43535Y-20311D01*
X43689Y-20465D01*
X43891Y-20549D01*
X44109Y-20549D01*
X44311Y-20465D01*
X44465Y-20311D01*
X44549Y-20109D01*
X44549Y-34750D01*
X43699Y-34750D01*
X43699Y-24140D01*
X43699Y-23862D01*
X43593Y-23605D01*
X43397Y-23408D01*
X43140Y-23301D01*
X42862Y-23301D01*
X42605Y-23407D01*
X42408Y-23603D01*
X42301Y-23860D01*
X42301Y-24138D01*
X42407Y-24395D01*
X42603Y-24592D01*
X42860Y-24699D01*
X43138Y-24699D01*
X43395Y-24593D01*
X43592Y-24397D01*
X43699Y-24140D01*
X43699Y-34750D01*
X43691Y-34750D01*
X43691Y-33114D01*
X43682Y-32841D01*
X43595Y-32630D01*
X43485Y-32586D01*
X43414Y-32657D01*
X43414Y-32515D01*
X43370Y-32405D01*
X43114Y-32309D01*
X42841Y-32318D01*
X42630Y-32405D01*
X42586Y-32515D01*
X43000Y-32929D01*
X43414Y-32515D01*
X43414Y-32657D01*
X43071Y-33000D01*
X43485Y-33414D01*
X43595Y-33370D01*
X43691Y-33114D01*
X43691Y-34750D01*
X43414Y-34750D01*
X43414Y-33485D01*
X43000Y-33071D01*
X42929Y-33142D01*
X42929Y-33000D01*
X42515Y-32586D01*
X42405Y-32630D01*
X42309Y-32886D01*
X42318Y-33159D01*
X42405Y-33370D01*
X42515Y-33414D01*
X42929Y-33000D01*
X42929Y-33142D01*
X42586Y-33485D01*
X42630Y-33595D01*
X42886Y-33691D01*
X43159Y-33682D01*
X43370Y-33595D01*
X43414Y-33485D01*
X43414Y-34750D01*
X38725Y-34750D01*
X38725Y-17905D01*
X38725Y-17696D01*
X38724Y-17693D01*
X38724Y-15125D01*
X38724Y-15026D01*
X38724Y-14476D01*
X38686Y-14384D01*
X38616Y-14314D01*
X38525Y-14276D01*
X38426Y-14276D01*
X37876Y-14276D01*
X37784Y-14314D01*
X37749Y-14349D01*
X37749Y-13150D01*
X37749Y-13051D01*
X37749Y-12451D01*
X37711Y-12359D01*
X37641Y-12289D01*
X37550Y-12251D01*
X37451Y-12251D01*
X36851Y-12251D01*
X36759Y-12289D01*
X36689Y-12359D01*
X36651Y-12450D01*
X36651Y-12475D01*
X36511Y-12335D01*
X36309Y-12251D01*
X36091Y-12251D01*
X35889Y-12335D01*
X35735Y-12489D01*
X35697Y-12580D01*
X35672Y-12519D01*
X35578Y-12492D01*
X35508Y-12562D01*
X35508Y-12422D01*
X35481Y-12328D01*
X35279Y-12257D01*
X35066Y-12268D01*
X34919Y-12328D01*
X34892Y-12422D01*
X35200Y-12729D01*
X35508Y-12422D01*
X35508Y-12562D01*
X35271Y-12800D01*
X35578Y-13108D01*
X35672Y-13081D01*
X35695Y-13015D01*
X35735Y-13111D01*
X35889Y-13265D01*
X36091Y-13349D01*
X36309Y-13349D01*
X36511Y-13265D01*
X36651Y-13125D01*
X36651Y-13149D01*
X36689Y-13241D01*
X36759Y-13311D01*
X36850Y-13349D01*
X36949Y-13349D01*
X37549Y-13349D01*
X37641Y-13311D01*
X37711Y-13241D01*
X37749Y-13150D01*
X37749Y-14349D01*
X37714Y-14384D01*
X37676Y-14475D01*
X37676Y-14574D01*
X37676Y-14577D01*
X37645Y-14503D01*
X37498Y-14355D01*
X37305Y-14275D01*
X37096Y-14275D01*
X36903Y-14355D01*
X36755Y-14502D01*
X36699Y-14635D01*
X36645Y-14503D01*
X36498Y-14355D01*
X36305Y-14275D01*
X36096Y-14275D01*
X35903Y-14355D01*
X35755Y-14502D01*
X35699Y-14635D01*
X35645Y-14503D01*
X35508Y-14365D01*
X35508Y-13178D01*
X35200Y-12871D01*
X35129Y-12941D01*
X35129Y-12800D01*
X34822Y-12492D01*
X34728Y-12519D01*
X34657Y-12721D01*
X34668Y-12934D01*
X34728Y-13081D01*
X34822Y-13108D01*
X35129Y-12800D01*
X35129Y-12941D01*
X34892Y-13178D01*
X34919Y-13272D01*
X35121Y-13343D01*
X35334Y-13332D01*
X35481Y-13272D01*
X35508Y-13178D01*
X35508Y-14365D01*
X35498Y-14355D01*
X35305Y-14275D01*
X35096Y-14275D01*
X34903Y-14355D01*
X34755Y-14502D01*
X34699Y-14635D01*
X34645Y-14503D01*
X34498Y-14355D01*
X34305Y-14275D01*
X34096Y-14275D01*
X33903Y-14355D01*
X33755Y-14502D01*
X33699Y-14635D01*
X33645Y-14503D01*
X33498Y-14355D01*
X33305Y-14275D01*
X33096Y-14275D01*
X32903Y-14355D01*
X32755Y-14502D01*
X32725Y-14573D01*
X32725Y-12905D01*
X32725Y-12696D01*
X32645Y-12503D01*
X32498Y-12355D01*
X32305Y-12275D01*
X32096Y-12275D01*
X31903Y-12355D01*
X31755Y-12502D01*
X31696Y-12642D01*
X31652Y-12533D01*
X31561Y-12510D01*
X31490Y-12581D01*
X31490Y-12439D01*
X31467Y-12348D01*
X31274Y-12281D01*
X31070Y-12292D01*
X30933Y-12348D01*
X30910Y-12439D01*
X31200Y-12729D01*
X31490Y-12439D01*
X31490Y-12581D01*
X31271Y-12800D01*
X31561Y-13090D01*
X31652Y-13067D01*
X31693Y-12948D01*
X31755Y-13097D01*
X31902Y-13245D01*
X32095Y-13325D01*
X32304Y-13325D01*
X32497Y-13245D01*
X32645Y-13098D01*
X32725Y-12905D01*
X32725Y-14573D01*
X32699Y-14635D01*
X32645Y-14503D01*
X32498Y-14355D01*
X32305Y-14275D01*
X32096Y-14275D01*
X31903Y-14355D01*
X31755Y-14502D01*
X31696Y-14642D01*
X31652Y-14533D01*
X31561Y-14510D01*
X31490Y-14581D01*
X31490Y-14439D01*
X31490Y-13161D01*
X31200Y-12871D01*
X31129Y-12942D01*
X31129Y-12800D01*
X30839Y-12510D01*
X30748Y-12533D01*
X30681Y-12726D01*
X30692Y-12930D01*
X30748Y-13067D01*
X30839Y-13090D01*
X31129Y-12800D01*
X31129Y-12942D01*
X30910Y-13161D01*
X30933Y-13252D01*
X31126Y-13319D01*
X31330Y-13308D01*
X31467Y-13252D01*
X31490Y-13161D01*
X31490Y-14439D01*
X31467Y-14348D01*
X31274Y-14281D01*
X31070Y-14292D01*
X30933Y-14348D01*
X30910Y-14439D01*
X31200Y-14729D01*
X31490Y-14439D01*
X31490Y-14581D01*
X31271Y-14800D01*
X31561Y-15090D01*
X31652Y-15067D01*
X31693Y-14948D01*
X31755Y-15097D01*
X31850Y-15192D01*
X31850Y-15655D01*
X31490Y-16015D01*
X31490Y-15161D01*
X31200Y-14871D01*
X31129Y-14942D01*
X31129Y-14800D01*
X30839Y-14510D01*
X30748Y-14533D01*
X30706Y-14651D01*
X30645Y-14503D01*
X30498Y-14355D01*
X30305Y-14275D01*
X30096Y-14275D01*
X29903Y-14355D01*
X29755Y-14502D01*
X29699Y-14635D01*
X29645Y-14503D01*
X29498Y-14355D01*
X29305Y-14275D01*
X29096Y-14275D01*
X28903Y-14355D01*
X28755Y-14502D01*
X28699Y-14635D01*
X28645Y-14503D01*
X28498Y-14355D01*
X28305Y-14275D01*
X28096Y-14275D01*
X27984Y-14321D01*
X27984Y-11006D01*
X27797Y-10552D01*
X27450Y-10205D01*
X26997Y-10017D01*
X26506Y-10016D01*
X26052Y-10203D01*
X25705Y-10550D01*
X25517Y-11003D01*
X25516Y-11494D01*
X25703Y-11948D01*
X26050Y-12295D01*
X26503Y-12483D01*
X26994Y-12484D01*
X27448Y-12297D01*
X27795Y-11950D01*
X27983Y-11497D01*
X27984Y-11006D01*
X27984Y-14321D01*
X27903Y-14355D01*
X27755Y-14502D01*
X27699Y-14635D01*
X27645Y-14503D01*
X27498Y-14355D01*
X27305Y-14275D01*
X27096Y-14275D01*
X26903Y-14355D01*
X26755Y-14502D01*
X26699Y-14635D01*
X26645Y-14503D01*
X26498Y-14355D01*
X26305Y-14275D01*
X26096Y-14275D01*
X25903Y-14355D01*
X25755Y-14502D01*
X25699Y-14635D01*
X25645Y-14503D01*
X25498Y-14355D01*
X25305Y-14275D01*
X25096Y-14275D01*
X24903Y-14355D01*
X24757Y-14500D01*
X24700Y-14500D01*
X24585Y-14523D01*
X24488Y-14588D01*
X23988Y-15088D01*
X23923Y-15185D01*
X23900Y-15300D01*
X23900Y-20965D01*
X23820Y-21045D01*
X23751Y-21210D01*
X23751Y-21389D01*
X23819Y-21554D01*
X23945Y-21680D01*
X24110Y-21749D01*
X24289Y-21749D01*
X24454Y-21681D01*
X24580Y-21555D01*
X24649Y-21390D01*
X24649Y-21211D01*
X24581Y-21046D01*
X24500Y-20965D01*
X24500Y-15424D01*
X24790Y-15133D01*
X24902Y-15245D01*
X25095Y-15325D01*
X25304Y-15325D01*
X25497Y-15245D01*
X25645Y-15098D01*
X25700Y-14964D01*
X25755Y-15097D01*
X25902Y-15245D01*
X26095Y-15325D01*
X26304Y-15325D01*
X26497Y-15245D01*
X26645Y-15098D01*
X26700Y-14964D01*
X26755Y-15097D01*
X26902Y-15245D01*
X27095Y-15325D01*
X27304Y-15325D01*
X27497Y-15245D01*
X27645Y-15098D01*
X27700Y-14964D01*
X27755Y-15097D01*
X27902Y-15245D01*
X28095Y-15325D01*
X28304Y-15325D01*
X28497Y-15245D01*
X28645Y-15098D01*
X28700Y-14964D01*
X28755Y-15097D01*
X28902Y-15245D01*
X29095Y-15325D01*
X29304Y-15325D01*
X29497Y-15245D01*
X29645Y-15098D01*
X29700Y-14964D01*
X29755Y-15097D01*
X29902Y-15245D01*
X30095Y-15325D01*
X30304Y-15325D01*
X30497Y-15245D01*
X30645Y-15098D01*
X30703Y-14957D01*
X30748Y-15067D01*
X30839Y-15090D01*
X31129Y-14800D01*
X31129Y-14942D01*
X30910Y-15161D01*
X30933Y-15252D01*
X31126Y-15319D01*
X31330Y-15308D01*
X31467Y-15252D01*
X31490Y-15161D01*
X31490Y-16015D01*
X30230Y-17275D01*
X30096Y-17275D01*
X29903Y-17355D01*
X29755Y-17502D01*
X29699Y-17635D01*
X29645Y-17503D01*
X29498Y-17355D01*
X29305Y-17275D01*
X29096Y-17275D01*
X28903Y-17355D01*
X28755Y-17502D01*
X28699Y-17635D01*
X28645Y-17503D01*
X28498Y-17355D01*
X28305Y-17275D01*
X28096Y-17275D01*
X27903Y-17355D01*
X27755Y-17502D01*
X27699Y-17635D01*
X27645Y-17503D01*
X27498Y-17355D01*
X27305Y-17275D01*
X27096Y-17275D01*
X26903Y-17355D01*
X26755Y-17502D01*
X26699Y-17635D01*
X26645Y-17503D01*
X26498Y-17355D01*
X26305Y-17275D01*
X26096Y-17275D01*
X25903Y-17355D01*
X25755Y-17502D01*
X25699Y-17635D01*
X25645Y-17503D01*
X25498Y-17355D01*
X25305Y-17275D01*
X25096Y-17275D01*
X24903Y-17355D01*
X24755Y-17502D01*
X24675Y-17695D01*
X24675Y-17904D01*
X24755Y-18097D01*
X24900Y-18242D01*
X24900Y-20965D01*
X24820Y-21045D01*
X24751Y-21210D01*
X24751Y-21389D01*
X24819Y-21554D01*
X24945Y-21680D01*
X25110Y-21749D01*
X25289Y-21749D01*
X25454Y-21681D01*
X25580Y-21555D01*
X25649Y-21390D01*
X25649Y-21211D01*
X25581Y-21046D01*
X25500Y-20965D01*
X25500Y-18242D01*
X25645Y-18098D01*
X25700Y-17964D01*
X25755Y-18097D01*
X25902Y-18245D01*
X26095Y-18325D01*
X26304Y-18325D01*
X26497Y-18245D01*
X26645Y-18098D01*
X26700Y-17964D01*
X26755Y-18097D01*
X26902Y-18245D01*
X27095Y-18325D01*
X27304Y-18325D01*
X27497Y-18245D01*
X27645Y-18098D01*
X27700Y-17964D01*
X27755Y-18097D01*
X27902Y-18245D01*
X28095Y-18325D01*
X28304Y-18325D01*
X28497Y-18245D01*
X28645Y-18098D01*
X28700Y-17964D01*
X28755Y-18097D01*
X28902Y-18245D01*
X29095Y-18325D01*
X29304Y-18325D01*
X29497Y-18245D01*
X29645Y-18098D01*
X29700Y-17964D01*
X29755Y-18097D01*
X29902Y-18245D01*
X30095Y-18325D01*
X30304Y-18325D01*
X30497Y-18245D01*
X30645Y-18098D01*
X30700Y-17964D01*
X30755Y-18097D01*
X30902Y-18245D01*
X31095Y-18325D01*
X31304Y-18325D01*
X31497Y-18245D01*
X31645Y-18098D01*
X31703Y-17957D01*
X31748Y-18067D01*
X31839Y-18090D01*
X32129Y-17800D01*
X31839Y-17510D01*
X31748Y-17533D01*
X31706Y-17651D01*
X31645Y-17503D01*
X31498Y-17355D01*
X31305Y-17275D01*
X31219Y-17275D01*
X32447Y-16048D01*
X32447Y-16047D01*
X32523Y-15934D01*
X32549Y-15800D01*
X32550Y-15800D01*
X32550Y-15192D01*
X32645Y-15098D01*
X32700Y-14964D01*
X32755Y-15097D01*
X32902Y-15245D01*
X33095Y-15325D01*
X33304Y-15325D01*
X33497Y-15245D01*
X33645Y-15098D01*
X33700Y-14964D01*
X33755Y-15097D01*
X33902Y-15245D01*
X34095Y-15325D01*
X34304Y-15325D01*
X34497Y-15245D01*
X34645Y-15098D01*
X34700Y-14964D01*
X34755Y-15097D01*
X34902Y-15245D01*
X35095Y-15325D01*
X35304Y-15325D01*
X35497Y-15245D01*
X35645Y-15098D01*
X35700Y-14964D01*
X35755Y-15097D01*
X35902Y-15245D01*
X36095Y-15325D01*
X36304Y-15325D01*
X36497Y-15245D01*
X36645Y-15098D01*
X36700Y-14964D01*
X36755Y-15097D01*
X36902Y-15245D01*
X37095Y-15325D01*
X37304Y-15325D01*
X37497Y-15245D01*
X37645Y-15098D01*
X37676Y-15023D01*
X37676Y-15124D01*
X37714Y-15216D01*
X37784Y-15286D01*
X37875Y-15324D01*
X37974Y-15324D01*
X38524Y-15324D01*
X38616Y-15286D01*
X38686Y-15216D01*
X38724Y-15125D01*
X38724Y-17693D01*
X38645Y-17503D01*
X38498Y-17355D01*
X38305Y-17275D01*
X38096Y-17275D01*
X37903Y-17355D01*
X37755Y-17502D01*
X37699Y-17635D01*
X37645Y-17503D01*
X37498Y-17355D01*
X37305Y-17275D01*
X37096Y-17275D01*
X36903Y-17355D01*
X36755Y-17502D01*
X36699Y-17635D01*
X36645Y-17503D01*
X36498Y-17355D01*
X36305Y-17275D01*
X36096Y-17275D01*
X35903Y-17355D01*
X35755Y-17502D01*
X35699Y-17635D01*
X35645Y-17503D01*
X35498Y-17355D01*
X35305Y-17275D01*
X35096Y-17275D01*
X34903Y-17355D01*
X34755Y-17502D01*
X34699Y-17635D01*
X34645Y-17503D01*
X34498Y-17355D01*
X34305Y-17275D01*
X34096Y-17275D01*
X33903Y-17355D01*
X33755Y-17502D01*
X33699Y-17635D01*
X33645Y-17503D01*
X33498Y-17355D01*
X33305Y-17275D01*
X33096Y-17275D01*
X32903Y-17355D01*
X32755Y-17502D01*
X32696Y-17642D01*
X32652Y-17533D01*
X32561Y-17510D01*
X32490Y-17581D01*
X32490Y-17439D01*
X32467Y-17348D01*
X32274Y-17281D01*
X32070Y-17292D01*
X31933Y-17348D01*
X31910Y-17439D01*
X32200Y-17729D01*
X32490Y-17439D01*
X32490Y-17581D01*
X32271Y-17800D01*
X32561Y-18090D01*
X32652Y-18067D01*
X32693Y-17948D01*
X32755Y-18097D01*
X32902Y-18245D01*
X33095Y-18325D01*
X33304Y-18325D01*
X33497Y-18245D01*
X33645Y-18098D01*
X33700Y-17964D01*
X33755Y-18097D01*
X33902Y-18245D01*
X34095Y-18325D01*
X34304Y-18325D01*
X34497Y-18245D01*
X34645Y-18098D01*
X34700Y-17964D01*
X34755Y-18097D01*
X34902Y-18245D01*
X35095Y-18325D01*
X35304Y-18325D01*
X35497Y-18245D01*
X35645Y-18098D01*
X35700Y-17964D01*
X35755Y-18097D01*
X35902Y-18245D01*
X36095Y-18325D01*
X36304Y-18325D01*
X36497Y-18245D01*
X36645Y-18098D01*
X36700Y-17964D01*
X36755Y-18097D01*
X36902Y-18245D01*
X37095Y-18325D01*
X37304Y-18325D01*
X37497Y-18245D01*
X37645Y-18098D01*
X37700Y-17964D01*
X37755Y-18097D01*
X37902Y-18245D01*
X38095Y-18325D01*
X38304Y-18325D01*
X38497Y-18245D01*
X38645Y-18098D01*
X38725Y-17905D01*
X38725Y-34750D01*
X37725Y-34750D01*
X37725Y-24705D01*
X37725Y-24496D01*
X37719Y-24481D01*
X37719Y-23674D01*
X37708Y-23470D01*
X37652Y-23333D01*
X37561Y-23310D01*
X37490Y-23381D01*
X37490Y-23239D01*
X37467Y-23148D01*
X37274Y-23081D01*
X37070Y-23092D01*
X36933Y-23148D01*
X36910Y-23239D01*
X37200Y-23529D01*
X37490Y-23239D01*
X37490Y-23381D01*
X37271Y-23600D01*
X37561Y-23890D01*
X37652Y-23867D01*
X37719Y-23674D01*
X37719Y-24481D01*
X37645Y-24303D01*
X37498Y-24155D01*
X37357Y-24096D01*
X37467Y-24052D01*
X37490Y-23961D01*
X37200Y-23671D01*
X37129Y-23742D01*
X37129Y-23600D01*
X36839Y-23310D01*
X36748Y-23333D01*
X36681Y-23526D01*
X36692Y-23730D01*
X36748Y-23867D01*
X36839Y-23890D01*
X37129Y-23600D01*
X37129Y-23742D01*
X36910Y-23961D01*
X36933Y-24052D01*
X37051Y-24093D01*
X36903Y-24155D01*
X36755Y-24302D01*
X36675Y-24495D01*
X36675Y-24704D01*
X36755Y-24897D01*
X36902Y-25045D01*
X37095Y-25125D01*
X37304Y-25125D01*
X37497Y-25045D01*
X37645Y-24898D01*
X37725Y-24705D01*
X37725Y-34750D01*
X37450Y-34750D01*
X37450Y-26350D01*
X36649Y-26350D01*
X36649Y-20640D01*
X36649Y-20461D01*
X36581Y-20296D01*
X36455Y-20170D01*
X36290Y-20101D01*
X36111Y-20101D01*
X35946Y-20169D01*
X35865Y-20250D01*
X32490Y-20250D01*
X32490Y-18161D01*
X32200Y-17871D01*
X31910Y-18161D01*
X31933Y-18252D01*
X32126Y-18319D01*
X32330Y-18308D01*
X32467Y-18252D01*
X32490Y-18161D01*
X32490Y-20250D01*
X32385Y-20250D01*
X32305Y-20170D01*
X32140Y-20101D01*
X31961Y-20101D01*
X31796Y-20169D01*
X31670Y-20295D01*
X31601Y-20460D01*
X31601Y-20639D01*
X31669Y-20804D01*
X31795Y-20930D01*
X31960Y-20999D01*
X32139Y-20999D01*
X32304Y-20931D01*
X32385Y-20850D01*
X35865Y-20850D01*
X35945Y-20930D01*
X36110Y-20999D01*
X36289Y-20999D01*
X36454Y-20931D01*
X36580Y-20805D01*
X36649Y-20640D01*
X36649Y-26350D01*
X36199Y-26350D01*
X36199Y-21599D01*
X36199Y-21401D01*
X36123Y-21218D01*
X35983Y-21077D01*
X35799Y-21001D01*
X35601Y-21001D01*
X35418Y-21077D01*
X35344Y-21150D01*
X33055Y-21150D01*
X32983Y-21077D01*
X32799Y-21001D01*
X32601Y-21001D01*
X32418Y-21077D01*
X32277Y-21217D01*
X32201Y-21401D01*
X32201Y-21599D01*
X32277Y-21782D01*
X32417Y-21923D01*
X32601Y-21999D01*
X32799Y-21999D01*
X32982Y-21923D01*
X33055Y-21850D01*
X35344Y-21850D01*
X35417Y-21923D01*
X35601Y-21999D01*
X35799Y-21999D01*
X35982Y-21923D01*
X36123Y-21783D01*
X36199Y-21599D01*
X36199Y-26350D01*
X33082Y-26350D01*
X33149Y-26190D01*
X33149Y-26075D01*
X33304Y-26075D01*
X33497Y-25995D01*
X33645Y-25848D01*
X33700Y-25714D01*
X33755Y-25847D01*
X33902Y-25995D01*
X34095Y-26075D01*
X34304Y-26075D01*
X34497Y-25995D01*
X34592Y-25900D01*
X34807Y-25900D01*
X34902Y-25995D01*
X35095Y-26075D01*
X35304Y-26075D01*
X35497Y-25995D01*
X35645Y-25848D01*
X35725Y-25655D01*
X35725Y-25446D01*
X35724Y-25443D01*
X35724Y-22875D01*
X35724Y-22776D01*
X35724Y-22226D01*
X35686Y-22134D01*
X35616Y-22064D01*
X35525Y-22026D01*
X35426Y-22026D01*
X34876Y-22026D01*
X34784Y-22064D01*
X34714Y-22134D01*
X34676Y-22225D01*
X34676Y-22324D01*
X34676Y-22327D01*
X34645Y-22253D01*
X34498Y-22105D01*
X34305Y-22025D01*
X34096Y-22025D01*
X33903Y-22105D01*
X33755Y-22252D01*
X33699Y-22385D01*
X33645Y-22253D01*
X33498Y-22105D01*
X33305Y-22025D01*
X33096Y-22025D01*
X32903Y-22105D01*
X32755Y-22252D01*
X32699Y-22385D01*
X32645Y-22253D01*
X32498Y-22105D01*
X32305Y-22025D01*
X32096Y-22025D01*
X31903Y-22105D01*
X31755Y-22252D01*
X31699Y-22385D01*
X31645Y-22253D01*
X31498Y-22105D01*
X31305Y-22025D01*
X31096Y-22025D01*
X30903Y-22105D01*
X30755Y-22252D01*
X30699Y-22385D01*
X30645Y-22253D01*
X30498Y-22105D01*
X30305Y-22025D01*
X30096Y-22025D01*
X29903Y-22105D01*
X29755Y-22252D01*
X29699Y-22385D01*
X29645Y-22253D01*
X29498Y-22105D01*
X29305Y-22025D01*
X29096Y-22025D01*
X28903Y-22105D01*
X28755Y-22252D01*
X28696Y-22392D01*
X28652Y-22283D01*
X28561Y-22260D01*
X28490Y-22331D01*
X28490Y-22189D01*
X28467Y-22098D01*
X28274Y-22031D01*
X28070Y-22042D01*
X27933Y-22098D01*
X27910Y-22189D01*
X28200Y-22479D01*
X28490Y-22189D01*
X28490Y-22331D01*
X28271Y-22550D01*
X28561Y-22840D01*
X28652Y-22817D01*
X28693Y-22698D01*
X28755Y-22847D01*
X28902Y-22995D01*
X29095Y-23075D01*
X29304Y-23075D01*
X29497Y-22995D01*
X29645Y-22848D01*
X29700Y-22714D01*
X29755Y-22847D01*
X29902Y-22995D01*
X30095Y-23075D01*
X30304Y-23075D01*
X30497Y-22995D01*
X30645Y-22848D01*
X30700Y-22714D01*
X30755Y-22847D01*
X30902Y-22995D01*
X31095Y-23075D01*
X31304Y-23075D01*
X31497Y-22995D01*
X31645Y-22848D01*
X31700Y-22714D01*
X31755Y-22847D01*
X31902Y-22995D01*
X32095Y-23075D01*
X32304Y-23075D01*
X32497Y-22995D01*
X32645Y-22848D01*
X32700Y-22714D01*
X32755Y-22847D01*
X32902Y-22995D01*
X33095Y-23075D01*
X33304Y-23075D01*
X33497Y-22995D01*
X33645Y-22848D01*
X33700Y-22714D01*
X33755Y-22847D01*
X33902Y-22995D01*
X34095Y-23075D01*
X34304Y-23075D01*
X34497Y-22995D01*
X34645Y-22848D01*
X34676Y-22773D01*
X34676Y-22874D01*
X34714Y-22966D01*
X34784Y-23036D01*
X34875Y-23074D01*
X34974Y-23074D01*
X35524Y-23074D01*
X35616Y-23036D01*
X35686Y-22966D01*
X35724Y-22875D01*
X35724Y-25443D01*
X35645Y-25253D01*
X35498Y-25105D01*
X35305Y-25025D01*
X35096Y-25025D01*
X34903Y-25105D01*
X34807Y-25200D01*
X34592Y-25200D01*
X34498Y-25105D01*
X34305Y-25025D01*
X34096Y-25025D01*
X33903Y-25105D01*
X33755Y-25252D01*
X33699Y-25385D01*
X33645Y-25253D01*
X33498Y-25105D01*
X33305Y-25025D01*
X33096Y-25025D01*
X32903Y-25105D01*
X32755Y-25252D01*
X32699Y-25385D01*
X32645Y-25253D01*
X32498Y-25105D01*
X32305Y-25025D01*
X32096Y-25025D01*
X32091Y-25026D01*
X32149Y-24890D01*
X32149Y-24711D01*
X32081Y-24546D01*
X31955Y-24420D01*
X31790Y-24351D01*
X31611Y-24351D01*
X31446Y-24419D01*
X31320Y-24545D01*
X31251Y-24710D01*
X31251Y-24889D01*
X31307Y-25026D01*
X31305Y-25025D01*
X31096Y-25025D01*
X30903Y-25105D01*
X30755Y-25252D01*
X30699Y-25385D01*
X30645Y-25253D01*
X30498Y-25105D01*
X30305Y-25025D01*
X30096Y-25025D01*
X29903Y-25105D01*
X29755Y-25252D01*
X29699Y-25385D01*
X29645Y-25253D01*
X29498Y-25105D01*
X29305Y-25025D01*
X29096Y-25025D01*
X28903Y-25105D01*
X28755Y-25252D01*
X28699Y-25385D01*
X28645Y-25253D01*
X28498Y-25105D01*
X28490Y-25101D01*
X28490Y-22911D01*
X28200Y-22621D01*
X28129Y-22692D01*
X28129Y-22550D01*
X27839Y-22260D01*
X27748Y-22283D01*
X27681Y-22476D01*
X27692Y-22680D01*
X27748Y-22817D01*
X27839Y-22840D01*
X28129Y-22550D01*
X28129Y-22692D01*
X27910Y-22911D01*
X27933Y-23002D01*
X28126Y-23069D01*
X28330Y-23058D01*
X28467Y-23002D01*
X28490Y-22911D01*
X28490Y-25101D01*
X28305Y-25025D01*
X28096Y-25025D01*
X27903Y-25105D01*
X27755Y-25252D01*
X27675Y-25445D01*
X27675Y-25654D01*
X27755Y-25847D01*
X27902Y-25995D01*
X28095Y-26075D01*
X28304Y-26075D01*
X28497Y-25995D01*
X28645Y-25848D01*
X28700Y-25714D01*
X28755Y-25847D01*
X28902Y-25995D01*
X29095Y-26075D01*
X29304Y-26075D01*
X29497Y-25995D01*
X29645Y-25848D01*
X29700Y-25714D01*
X29755Y-25847D01*
X29902Y-25995D01*
X30095Y-26075D01*
X30304Y-26075D01*
X30497Y-25995D01*
X30645Y-25848D01*
X30700Y-25714D01*
X30755Y-25847D01*
X30902Y-25995D01*
X31095Y-26075D01*
X31304Y-26075D01*
X31400Y-26035D01*
X31400Y-26300D01*
X31410Y-26350D01*
X27650Y-26350D01*
X27650Y-26650D01*
X31625Y-26650D01*
X32501Y-27525D01*
X32501Y-27639D01*
X32564Y-27792D01*
X32524Y-27776D01*
X32312Y-27775D01*
X32250Y-27837D01*
X32250Y-28250D01*
X32663Y-28250D01*
X32725Y-28188D01*
X32724Y-28074D01*
X32724Y-27975D01*
X32707Y-27935D01*
X32860Y-27999D01*
X33039Y-27999D01*
X33204Y-27931D01*
X33330Y-27805D01*
X33399Y-27640D01*
X33399Y-27461D01*
X33393Y-27447D01*
X33554Y-27381D01*
X33680Y-27255D01*
X33749Y-27090D01*
X33749Y-26911D01*
X33681Y-26746D01*
X33585Y-26650D01*
X37150Y-26650D01*
X37150Y-34750D01*
X36725Y-34750D01*
X36725Y-30912D01*
X36725Y-30688D01*
X36724Y-30574D01*
X36724Y-30475D01*
X36686Y-30384D01*
X36616Y-30314D01*
X36524Y-30276D01*
X36312Y-30275D01*
X36250Y-30337D01*
X36250Y-30750D01*
X36663Y-30750D01*
X36725Y-30688D01*
X36725Y-30912D01*
X36663Y-30850D01*
X36250Y-30850D01*
X36250Y-31263D01*
X36312Y-31325D01*
X36524Y-31324D01*
X36616Y-31286D01*
X36686Y-31216D01*
X36724Y-31125D01*
X36724Y-31026D01*
X36725Y-30912D01*
X36725Y-34750D01*
X36150Y-34750D01*
X36150Y-31263D01*
X36150Y-30900D01*
X36150Y-30850D01*
X36150Y-30750D01*
X36150Y-30700D01*
X36150Y-30337D01*
X36088Y-30275D01*
X35876Y-30276D01*
X35784Y-30314D01*
X35725Y-30373D01*
X35725Y-28412D01*
X35725Y-28188D01*
X35724Y-28074D01*
X35724Y-27975D01*
X35686Y-27884D01*
X35616Y-27814D01*
X35524Y-27776D01*
X35312Y-27775D01*
X35250Y-27837D01*
X35250Y-28250D01*
X35663Y-28250D01*
X35725Y-28188D01*
X35725Y-28412D01*
X35663Y-28350D01*
X35250Y-28350D01*
X35250Y-28763D01*
X35312Y-28825D01*
X35524Y-28824D01*
X35616Y-28786D01*
X35686Y-28716D01*
X35724Y-28625D01*
X35724Y-28526D01*
X35725Y-28412D01*
X35725Y-30373D01*
X35714Y-30384D01*
X35676Y-30475D01*
X35676Y-30574D01*
X35675Y-30577D01*
X35645Y-30503D01*
X35498Y-30355D01*
X35305Y-30275D01*
X35150Y-30275D01*
X35150Y-28763D01*
X35150Y-28400D01*
X35150Y-28350D01*
X35150Y-28250D01*
X35150Y-28200D01*
X35150Y-27837D01*
X35088Y-27775D01*
X34876Y-27776D01*
X34784Y-27814D01*
X34714Y-27884D01*
X34676Y-27975D01*
X34676Y-28074D01*
X34675Y-28077D01*
X34645Y-28003D01*
X34498Y-27855D01*
X34305Y-27775D01*
X34096Y-27775D01*
X33903Y-27855D01*
X33755Y-28002D01*
X33675Y-28195D01*
X33675Y-28404D01*
X33755Y-28597D01*
X33902Y-28745D01*
X34035Y-28800D01*
X33903Y-28855D01*
X33755Y-29002D01*
X33675Y-29195D01*
X33675Y-29404D01*
X33755Y-29597D01*
X33902Y-29745D01*
X34095Y-29825D01*
X34304Y-29825D01*
X34497Y-29745D01*
X34645Y-29598D01*
X34725Y-29405D01*
X34725Y-29196D01*
X34645Y-29003D01*
X34498Y-28855D01*
X34364Y-28799D01*
X34497Y-28745D01*
X34645Y-28598D01*
X34675Y-28523D01*
X34676Y-28526D01*
X34676Y-28625D01*
X34714Y-28716D01*
X34784Y-28786D01*
X34876Y-28824D01*
X35088Y-28825D01*
X35150Y-28763D01*
X35150Y-30275D01*
X35096Y-30275D01*
X34903Y-30355D01*
X34755Y-30502D01*
X34675Y-30695D01*
X34675Y-30904D01*
X34755Y-31097D01*
X34902Y-31245D01*
X35035Y-31300D01*
X34903Y-31355D01*
X34755Y-31502D01*
X34675Y-31695D01*
X34675Y-31904D01*
X34755Y-32097D01*
X34902Y-32245D01*
X35095Y-32325D01*
X35304Y-32325D01*
X35497Y-32245D01*
X35645Y-32098D01*
X35725Y-31905D01*
X35725Y-31696D01*
X35645Y-31503D01*
X35498Y-31355D01*
X35364Y-31299D01*
X35497Y-31245D01*
X35645Y-31098D01*
X35675Y-31023D01*
X35676Y-31026D01*
X35676Y-31125D01*
X35714Y-31216D01*
X35784Y-31286D01*
X35876Y-31324D01*
X36088Y-31325D01*
X36150Y-31263D01*
X36150Y-34750D01*
X34725Y-34750D01*
X34725Y-33412D01*
X34725Y-33188D01*
X34724Y-33074D01*
X34724Y-32975D01*
X34686Y-32884D01*
X34616Y-32814D01*
X34524Y-32776D01*
X34312Y-32775D01*
X34250Y-32837D01*
X34250Y-33250D01*
X34663Y-33250D01*
X34725Y-33188D01*
X34725Y-33412D01*
X34663Y-33350D01*
X34250Y-33350D01*
X34250Y-33763D01*
X34312Y-33825D01*
X34524Y-33824D01*
X34616Y-33786D01*
X34686Y-33716D01*
X34724Y-33625D01*
X34724Y-33526D01*
X34725Y-33412D01*
X34725Y-34750D01*
X33484Y-34750D01*
X33497Y-34745D01*
X33645Y-34598D01*
X33725Y-34405D01*
X33725Y-34196D01*
X33645Y-34003D01*
X33498Y-33855D01*
X33364Y-33799D01*
X33497Y-33745D01*
X33645Y-33598D01*
X33675Y-33523D01*
X33676Y-33526D01*
X33676Y-33625D01*
X33714Y-33716D01*
X33784Y-33786D01*
X33876Y-33824D01*
X34088Y-33825D01*
X34150Y-33763D01*
X34150Y-33400D01*
X34150Y-33350D01*
X34150Y-33250D01*
X34150Y-33200D01*
X34150Y-32837D01*
X34088Y-32775D01*
X33876Y-32776D01*
X33784Y-32814D01*
X33725Y-32873D01*
X33725Y-30912D01*
X33725Y-30688D01*
X33724Y-30574D01*
X33724Y-30475D01*
X33686Y-30384D01*
X33616Y-30314D01*
X33524Y-30276D01*
X33312Y-30275D01*
X33250Y-30337D01*
X33250Y-30750D01*
X33663Y-30750D01*
X33725Y-30688D01*
X33725Y-30912D01*
X33663Y-30850D01*
X33250Y-30850D01*
X33250Y-31263D01*
X33312Y-31325D01*
X33524Y-31324D01*
X33616Y-31286D01*
X33686Y-31216D01*
X33724Y-31125D01*
X33724Y-31026D01*
X33725Y-30912D01*
X33725Y-32873D01*
X33714Y-32884D01*
X33676Y-32975D01*
X33676Y-33074D01*
X33675Y-33077D01*
X33645Y-33003D01*
X33498Y-32855D01*
X33305Y-32775D01*
X33150Y-32775D01*
X33150Y-31263D01*
X33150Y-30900D01*
X33150Y-30850D01*
X33150Y-30750D01*
X33150Y-30700D01*
X33150Y-30337D01*
X33088Y-30275D01*
X32876Y-30276D01*
X32784Y-30314D01*
X32725Y-30373D01*
X32725Y-28412D01*
X32663Y-28350D01*
X32250Y-28350D01*
X32250Y-28763D01*
X32312Y-28825D01*
X32524Y-28824D01*
X32616Y-28786D01*
X32686Y-28716D01*
X32724Y-28625D01*
X32724Y-28526D01*
X32725Y-28412D01*
X32725Y-30373D01*
X32714Y-30384D01*
X32676Y-30475D01*
X32676Y-30574D01*
X32675Y-30577D01*
X32645Y-30503D01*
X32498Y-30355D01*
X32305Y-30275D01*
X32150Y-30275D01*
X32150Y-28763D01*
X32150Y-28400D01*
X32150Y-28350D01*
X32150Y-28250D01*
X32150Y-28200D01*
X32150Y-27837D01*
X32088Y-27775D01*
X31876Y-27776D01*
X31784Y-27814D01*
X31714Y-27884D01*
X31676Y-27975D01*
X31676Y-28074D01*
X31675Y-28077D01*
X31645Y-28003D01*
X31498Y-27855D01*
X31305Y-27775D01*
X31096Y-27775D01*
X30903Y-27855D01*
X30755Y-28002D01*
X30675Y-28195D01*
X30675Y-28404D01*
X30755Y-28597D01*
X30902Y-28745D01*
X31035Y-28800D01*
X30903Y-28855D01*
X30755Y-29002D01*
X30675Y-29195D01*
X30675Y-29404D01*
X30755Y-29597D01*
X30902Y-29745D01*
X31095Y-29825D01*
X31304Y-29825D01*
X31497Y-29745D01*
X31645Y-29598D01*
X31725Y-29405D01*
X31725Y-29196D01*
X31645Y-29003D01*
X31498Y-28855D01*
X31364Y-28799D01*
X31497Y-28745D01*
X31645Y-28598D01*
X31675Y-28523D01*
X31676Y-28526D01*
X31676Y-28625D01*
X31714Y-28716D01*
X31784Y-28786D01*
X31876Y-28824D01*
X32088Y-28825D01*
X32150Y-28763D01*
X32150Y-30275D01*
X32096Y-30275D01*
X31903Y-30355D01*
X31755Y-30502D01*
X31675Y-30695D01*
X31675Y-30904D01*
X31755Y-31097D01*
X31902Y-31245D01*
X32035Y-31300D01*
X31903Y-31355D01*
X31755Y-31502D01*
X31675Y-31695D01*
X31675Y-31904D01*
X31755Y-32097D01*
X31902Y-32245D01*
X32095Y-32325D01*
X32304Y-32325D01*
X32497Y-32245D01*
X32645Y-32098D01*
X32725Y-31905D01*
X32725Y-31696D01*
X32645Y-31503D01*
X32498Y-31355D01*
X32364Y-31299D01*
X32497Y-31245D01*
X32645Y-31098D01*
X32675Y-31023D01*
X32676Y-31026D01*
X32676Y-31125D01*
X32714Y-31216D01*
X32784Y-31286D01*
X32876Y-31324D01*
X33088Y-31325D01*
X33150Y-31263D01*
X33150Y-32775D01*
X33096Y-32775D01*
X32903Y-32855D01*
X32755Y-33002D01*
X32675Y-33195D01*
X32675Y-33404D01*
X32755Y-33597D01*
X32902Y-33745D01*
X33035Y-33800D01*
X32903Y-33855D01*
X32755Y-34002D01*
X32675Y-34195D01*
X32675Y-34404D01*
X32755Y-34597D01*
X32902Y-34745D01*
X32914Y-34750D01*
X31725Y-34750D01*
X31725Y-33412D01*
X31725Y-33188D01*
X31724Y-33074D01*
X31724Y-32975D01*
X31686Y-32884D01*
X31616Y-32814D01*
X31524Y-32776D01*
X31312Y-32775D01*
X31250Y-32837D01*
X31250Y-33250D01*
X31663Y-33250D01*
X31725Y-33188D01*
X31725Y-33412D01*
X31663Y-33350D01*
X31250Y-33350D01*
X31250Y-33763D01*
X31312Y-33825D01*
X31524Y-33824D01*
X31616Y-33786D01*
X31686Y-33716D01*
X31724Y-33625D01*
X31724Y-33526D01*
X31725Y-33412D01*
X31725Y-34750D01*
X30484Y-34750D01*
X30497Y-34745D01*
X30645Y-34598D01*
X30725Y-34405D01*
X30725Y-34196D01*
X30645Y-34003D01*
X30498Y-33855D01*
X30364Y-33799D01*
X30497Y-33745D01*
X30645Y-33598D01*
X30675Y-33523D01*
X30676Y-33526D01*
X30676Y-33625D01*
X30714Y-33716D01*
X30784Y-33786D01*
X30876Y-33824D01*
X31088Y-33825D01*
X31150Y-33763D01*
X31150Y-33400D01*
X31150Y-33350D01*
X31150Y-33250D01*
X31150Y-33200D01*
X31150Y-32837D01*
X31088Y-32775D01*
X30876Y-32776D01*
X30784Y-32814D01*
X30725Y-32873D01*
X30725Y-30912D01*
X30725Y-30688D01*
X30724Y-30574D01*
X30724Y-30475D01*
X30686Y-30384D01*
X30616Y-30314D01*
X30524Y-30276D01*
X30312Y-30275D01*
X30250Y-30337D01*
X30250Y-30750D01*
X30663Y-30750D01*
X30725Y-30688D01*
X30725Y-30912D01*
X30663Y-30850D01*
X30250Y-30850D01*
X30250Y-31263D01*
X30312Y-31325D01*
X30524Y-31324D01*
X30616Y-31286D01*
X30686Y-31216D01*
X30724Y-31125D01*
X30724Y-31026D01*
X30725Y-30912D01*
X30725Y-32873D01*
X30714Y-32884D01*
X30676Y-32975D01*
X30676Y-33074D01*
X30675Y-33077D01*
X30645Y-33003D01*
X30498Y-32855D01*
X30305Y-32775D01*
X30150Y-32775D01*
X30150Y-31263D01*
X30150Y-30900D01*
X30150Y-30850D01*
X30150Y-30750D01*
X30150Y-30700D01*
X30150Y-30337D01*
X30088Y-30275D01*
X29876Y-30276D01*
X29784Y-30314D01*
X29725Y-30373D01*
X29725Y-28412D01*
X29725Y-28188D01*
X29724Y-28074D01*
X29724Y-27975D01*
X29686Y-27884D01*
X29616Y-27814D01*
X29524Y-27776D01*
X29312Y-27775D01*
X29250Y-27837D01*
X29250Y-28250D01*
X29663Y-28250D01*
X29725Y-28188D01*
X29725Y-28412D01*
X29663Y-28350D01*
X29250Y-28350D01*
X29250Y-28763D01*
X29312Y-28825D01*
X29524Y-28824D01*
X29616Y-28786D01*
X29686Y-28716D01*
X29724Y-28625D01*
X29724Y-28526D01*
X29725Y-28412D01*
X29725Y-30373D01*
X29714Y-30384D01*
X29676Y-30475D01*
X29676Y-30574D01*
X29675Y-30577D01*
X29645Y-30503D01*
X29498Y-30355D01*
X29305Y-30275D01*
X29150Y-30275D01*
X29150Y-28763D01*
X29150Y-28400D01*
X29150Y-28350D01*
X29150Y-28250D01*
X29150Y-28200D01*
X29150Y-27837D01*
X29088Y-27775D01*
X28876Y-27776D01*
X28784Y-27814D01*
X28714Y-27884D01*
X28676Y-27975D01*
X28676Y-28074D01*
X28675Y-28077D01*
X28645Y-28003D01*
X28498Y-27855D01*
X28305Y-27775D01*
X28096Y-27775D01*
X27903Y-27855D01*
X27755Y-28002D01*
X27675Y-28195D01*
X27675Y-28404D01*
X27755Y-28597D01*
X27902Y-28745D01*
X28035Y-28800D01*
X27903Y-28855D01*
X27755Y-29002D01*
X27675Y-29195D01*
X27675Y-29404D01*
X27755Y-29597D01*
X27902Y-29745D01*
X28095Y-29825D01*
X28304Y-29825D01*
X28497Y-29745D01*
X28645Y-29598D01*
X28725Y-29405D01*
X28725Y-29196D01*
X28645Y-29003D01*
X28498Y-28855D01*
X28364Y-28799D01*
X28497Y-28745D01*
X28645Y-28598D01*
X28675Y-28523D01*
X28676Y-28526D01*
X28676Y-28625D01*
X28714Y-28716D01*
X28784Y-28786D01*
X28876Y-28824D01*
X29088Y-28825D01*
X29150Y-28763D01*
X29150Y-30275D01*
X29096Y-30275D01*
X28903Y-30355D01*
X28755Y-30502D01*
X28675Y-30695D01*
X28675Y-30904D01*
X28755Y-31097D01*
X28902Y-31245D01*
X29035Y-31300D01*
X28903Y-31355D01*
X28755Y-31502D01*
X28675Y-31695D01*
X28675Y-31904D01*
X28755Y-32097D01*
X28902Y-32245D01*
X29095Y-32325D01*
X29304Y-32325D01*
X29497Y-32245D01*
X29645Y-32098D01*
X29725Y-31905D01*
X29725Y-31696D01*
X29645Y-31503D01*
X29498Y-31355D01*
X29364Y-31299D01*
X29497Y-31245D01*
X29645Y-31098D01*
X29675Y-31023D01*
X29676Y-31026D01*
X29676Y-31125D01*
X29714Y-31216D01*
X29784Y-31286D01*
X29876Y-31324D01*
X30088Y-31325D01*
X30150Y-31263D01*
X30150Y-32775D01*
X30096Y-32775D01*
X29903Y-32855D01*
X29755Y-33002D01*
X29675Y-33195D01*
X29675Y-33404D01*
X29755Y-33597D01*
X29902Y-33745D01*
X30035Y-33800D01*
X29903Y-33855D01*
X29755Y-34002D01*
X29675Y-34195D01*
X29675Y-34404D01*
X29755Y-34597D01*
X29902Y-34745D01*
X29914Y-34750D01*
X28725Y-34750D01*
X28725Y-33412D01*
X28725Y-33188D01*
X28724Y-33074D01*
X28724Y-32975D01*
X28686Y-32884D01*
X28616Y-32814D01*
X28524Y-32776D01*
X28312Y-32775D01*
X28250Y-32837D01*
X28250Y-33250D01*
X28663Y-33250D01*
X28725Y-33188D01*
X28725Y-33412D01*
X28663Y-33350D01*
X28250Y-33350D01*
X28250Y-33763D01*
X28312Y-33825D01*
X28524Y-33824D01*
X28616Y-33786D01*
X28686Y-33716D01*
X28724Y-33625D01*
X28724Y-33526D01*
X28725Y-33412D01*
X28725Y-34750D01*
X27484Y-34750D01*
X27497Y-34745D01*
X27645Y-34598D01*
X27725Y-34405D01*
X27725Y-34196D01*
X27645Y-34003D01*
X27498Y-33855D01*
X27364Y-33799D01*
X27497Y-33745D01*
X27645Y-33598D01*
X27675Y-33523D01*
X27676Y-33526D01*
X27676Y-33625D01*
X27714Y-33716D01*
X27784Y-33786D01*
X27876Y-33824D01*
X28088Y-33825D01*
X28150Y-33763D01*
X28150Y-33400D01*
X28150Y-33350D01*
X28150Y-33250D01*
X28150Y-33200D01*
X28150Y-32837D01*
X28088Y-32775D01*
X27876Y-32776D01*
X27784Y-32814D01*
X27725Y-32873D01*
X27725Y-30912D01*
X27725Y-30688D01*
X27724Y-30574D01*
X27724Y-30475D01*
X27686Y-30384D01*
X27616Y-30314D01*
X27524Y-30276D01*
X27312Y-30275D01*
X27250Y-30337D01*
X27250Y-30750D01*
X27663Y-30750D01*
X27725Y-30688D01*
X27725Y-30912D01*
X27663Y-30850D01*
X27250Y-30850D01*
X27250Y-31263D01*
X27312Y-31325D01*
X27524Y-31324D01*
X27616Y-31286D01*
X27686Y-31216D01*
X27724Y-31125D01*
X27724Y-31026D01*
X27725Y-30912D01*
X27725Y-32873D01*
X27714Y-32884D01*
X27676Y-32975D01*
X27676Y-33074D01*
X27675Y-33077D01*
X27645Y-33003D01*
X27498Y-32855D01*
X27305Y-32775D01*
X27150Y-32775D01*
X27150Y-31263D01*
X27150Y-30900D01*
X27150Y-30850D01*
X27150Y-30750D01*
X27150Y-30700D01*
X27150Y-30337D01*
X27088Y-30275D01*
X26876Y-30276D01*
X26784Y-30314D01*
X26714Y-30384D01*
X26676Y-30475D01*
X26676Y-30574D01*
X26675Y-30577D01*
X26645Y-30503D01*
X26498Y-30355D01*
X26305Y-30275D01*
X26096Y-30275D01*
X25903Y-30355D01*
X25755Y-30502D01*
X25675Y-30695D01*
X25675Y-30904D01*
X25755Y-31097D01*
X25902Y-31245D01*
X26035Y-31300D01*
X25903Y-31355D01*
X25755Y-31502D01*
X25675Y-31695D01*
X25675Y-31904D01*
X25755Y-32097D01*
X25902Y-32245D01*
X26095Y-32325D01*
X26304Y-32325D01*
X26497Y-32245D01*
X26645Y-32098D01*
X26725Y-31905D01*
X26725Y-31696D01*
X26645Y-31503D01*
X26498Y-31355D01*
X26364Y-31299D01*
X26497Y-31245D01*
X26645Y-31098D01*
X26675Y-31023D01*
X26676Y-31026D01*
X26676Y-31125D01*
X26714Y-31216D01*
X26784Y-31286D01*
X26876Y-31324D01*
X27088Y-31325D01*
X27150Y-31263D01*
X27150Y-32775D01*
X27096Y-32775D01*
X26903Y-32855D01*
X26755Y-33002D01*
X26675Y-33195D01*
X26675Y-33404D01*
X26755Y-33597D01*
X26902Y-33745D01*
X27035Y-33800D01*
X26903Y-33855D01*
X26755Y-34002D01*
X26675Y-34195D01*
X26675Y-34404D01*
X26755Y-34597D01*
X26902Y-34745D01*
X26914Y-34750D01*
X24950Y-34750D01*
X24950Y-26350D01*
X22725Y-26350D01*
X22725Y-22405D01*
X22725Y-22196D01*
X22649Y-22012D01*
X22649Y-17690D01*
X22649Y-17511D01*
X22581Y-17346D01*
X22455Y-17220D01*
X22290Y-17151D01*
X22125Y-17151D01*
X22165Y-17111D01*
X22249Y-16909D01*
X22249Y-16691D01*
X22165Y-16489D01*
X22025Y-16349D01*
X22049Y-16349D01*
X22141Y-16311D01*
X22211Y-16241D01*
X22249Y-16150D01*
X22249Y-16051D01*
X22249Y-15451D01*
X22211Y-15359D01*
X22141Y-15289D01*
X22050Y-15251D01*
X21951Y-15251D01*
X21525Y-15251D01*
X21525Y-12612D01*
X21525Y-12388D01*
X21524Y-12176D01*
X21486Y-12084D01*
X21416Y-12014D01*
X21325Y-11976D01*
X21226Y-11976D01*
X21222Y-11975D01*
X21297Y-11945D01*
X21445Y-11798D01*
X21525Y-11605D01*
X21525Y-11396D01*
X21445Y-11203D01*
X21298Y-11055D01*
X21105Y-10975D01*
X20896Y-10975D01*
X20703Y-11055D01*
X20555Y-11202D01*
X20475Y-11395D01*
X20475Y-11604D01*
X20555Y-11797D01*
X20702Y-11945D01*
X20776Y-11975D01*
X20774Y-11976D01*
X20675Y-11976D01*
X20584Y-12014D01*
X20514Y-12084D01*
X20476Y-12176D01*
X20475Y-12388D01*
X20537Y-12450D01*
X20900Y-12450D01*
X20950Y-12450D01*
X21050Y-12450D01*
X21100Y-12450D01*
X21463Y-12450D01*
X21525Y-12388D01*
X21525Y-12612D01*
X21463Y-12550D01*
X21050Y-12550D01*
X21050Y-12963D01*
X21112Y-13025D01*
X21226Y-13024D01*
X21325Y-13024D01*
X21416Y-12986D01*
X21486Y-12916D01*
X21524Y-12824D01*
X21525Y-12612D01*
X21525Y-15251D01*
X21351Y-15251D01*
X21259Y-15289D01*
X21189Y-15359D01*
X21151Y-15450D01*
X21151Y-15475D01*
X21011Y-15335D01*
X20950Y-15309D01*
X20950Y-12963D01*
X20950Y-12550D01*
X20537Y-12550D01*
X20475Y-12612D01*
X20476Y-12824D01*
X20514Y-12916D01*
X20584Y-12986D01*
X20675Y-13024D01*
X20774Y-13024D01*
X20888Y-13025D01*
X20950Y-12963D01*
X20950Y-15309D01*
X20809Y-15251D01*
X20591Y-15251D01*
X20389Y-15335D01*
X20235Y-15489D01*
X20200Y-15573D01*
X20165Y-15489D01*
X20011Y-15335D01*
X19809Y-15251D01*
X19591Y-15251D01*
X19389Y-15335D01*
X19250Y-15474D01*
X19250Y-13112D01*
X19250Y-12888D01*
X19249Y-12451D01*
X19249Y-11150D01*
X19249Y-10852D01*
X19135Y-10577D01*
X18925Y-10366D01*
X18650Y-10251D01*
X18352Y-10251D01*
X18077Y-10365D01*
X17866Y-10575D01*
X17751Y-10850D01*
X17751Y-11148D01*
X17865Y-11423D01*
X18075Y-11634D01*
X18350Y-11749D01*
X18648Y-11749D01*
X18923Y-11635D01*
X19134Y-11425D01*
X19249Y-11150D01*
X19249Y-12451D01*
X19211Y-12359D01*
X19141Y-12289D01*
X19050Y-12251D01*
X18951Y-12251D01*
X18612Y-12250D01*
X18550Y-12312D01*
X18550Y-12950D01*
X19188Y-12950D01*
X19250Y-12888D01*
X19250Y-13112D01*
X19188Y-13050D01*
X18550Y-13050D01*
X18550Y-13688D01*
X18612Y-13750D01*
X18951Y-13749D01*
X19050Y-13749D01*
X19141Y-13711D01*
X19211Y-13641D01*
X19249Y-13549D01*
X19250Y-13112D01*
X19250Y-15474D01*
X19235Y-15489D01*
X19151Y-15691D01*
X19151Y-15909D01*
X19235Y-16111D01*
X19389Y-16265D01*
X19480Y-16302D01*
X19419Y-16328D01*
X19392Y-16422D01*
X19700Y-16729D01*
X20008Y-16422D01*
X19981Y-16328D01*
X19915Y-16304D01*
X20011Y-16265D01*
X20165Y-16111D01*
X20200Y-16026D01*
X20235Y-16111D01*
X20389Y-16265D01*
X20473Y-16300D01*
X20389Y-16335D01*
X20235Y-16489D01*
X20197Y-16580D01*
X20172Y-16519D01*
X20078Y-16492D01*
X19771Y-16800D01*
X20078Y-17108D01*
X20172Y-17081D01*
X20195Y-17015D01*
X20235Y-17111D01*
X20389Y-17265D01*
X20591Y-17349D01*
X20718Y-17349D01*
X20651Y-17510D01*
X20651Y-17689D01*
X20719Y-17854D01*
X20845Y-17980D01*
X21010Y-18049D01*
X21189Y-18049D01*
X21354Y-17981D01*
X21435Y-17900D01*
X21865Y-17900D01*
X21945Y-17980D01*
X22110Y-18049D01*
X22289Y-18049D01*
X22454Y-17981D01*
X22580Y-17855D01*
X22649Y-17690D01*
X22649Y-22012D01*
X22645Y-22003D01*
X22498Y-21855D01*
X22305Y-21775D01*
X22096Y-21775D01*
X21903Y-21855D01*
X21755Y-22002D01*
X21699Y-22135D01*
X21645Y-22003D01*
X21498Y-21855D01*
X21305Y-21775D01*
X21096Y-21775D01*
X20903Y-21855D01*
X20755Y-22002D01*
X20699Y-22135D01*
X20645Y-22003D01*
X20498Y-21855D01*
X20305Y-21775D01*
X20096Y-21775D01*
X20008Y-21811D01*
X20008Y-17178D01*
X19700Y-16871D01*
X19629Y-16941D01*
X19629Y-16800D01*
X19322Y-16492D01*
X19228Y-16519D01*
X19157Y-16721D01*
X19168Y-16934D01*
X19228Y-17081D01*
X19322Y-17108D01*
X19629Y-16800D01*
X19629Y-16941D01*
X19392Y-17178D01*
X19419Y-17272D01*
X19621Y-17343D01*
X19834Y-17332D01*
X19981Y-17272D01*
X20008Y-17178D01*
X20008Y-21811D01*
X19903Y-21855D01*
X19755Y-22002D01*
X19699Y-22135D01*
X19645Y-22003D01*
X19498Y-21855D01*
X19305Y-21775D01*
X19096Y-21775D01*
X18903Y-21855D01*
X18755Y-22002D01*
X18696Y-22142D01*
X18652Y-22033D01*
X18561Y-22010D01*
X18490Y-22081D01*
X18490Y-21939D01*
X18467Y-21848D01*
X18450Y-21842D01*
X18450Y-13688D01*
X18450Y-13050D01*
X18450Y-12950D01*
X18450Y-12312D01*
X18388Y-12250D01*
X18049Y-12251D01*
X17950Y-12251D01*
X17859Y-12289D01*
X17789Y-12359D01*
X17751Y-12451D01*
X17750Y-12888D01*
X17812Y-12950D01*
X18450Y-12950D01*
X18450Y-13050D01*
X17812Y-13050D01*
X17750Y-13112D01*
X17751Y-13549D01*
X17789Y-13641D01*
X17859Y-13711D01*
X17950Y-13749D01*
X18049Y-13749D01*
X18388Y-13750D01*
X18450Y-13688D01*
X18450Y-21842D01*
X18449Y-21841D01*
X18449Y-19950D01*
X18449Y-19851D01*
X18449Y-19251D01*
X18449Y-16750D01*
X18449Y-16651D01*
X18449Y-16051D01*
X18411Y-15959D01*
X18341Y-15889D01*
X18250Y-15851D01*
X18151Y-15851D01*
X17551Y-15851D01*
X17459Y-15889D01*
X17389Y-15959D01*
X17351Y-16050D01*
X17351Y-16112D01*
X17278Y-16092D01*
X17208Y-16162D01*
X17208Y-16022D01*
X17181Y-15928D01*
X16979Y-15857D01*
X16766Y-15868D01*
X16619Y-15928D01*
X16592Y-16022D01*
X16900Y-16329D01*
X17208Y-16022D01*
X17208Y-16162D01*
X16971Y-16400D01*
X17278Y-16708D01*
X17351Y-16687D01*
X17351Y-16749D01*
X17389Y-16841D01*
X17459Y-16911D01*
X17550Y-16949D01*
X17649Y-16949D01*
X18249Y-16949D01*
X18341Y-16911D01*
X18411Y-16841D01*
X18449Y-16750D01*
X18449Y-19251D01*
X18411Y-19159D01*
X18341Y-19089D01*
X18250Y-19051D01*
X18151Y-19051D01*
X17551Y-19051D01*
X17459Y-19089D01*
X17389Y-19159D01*
X17351Y-19250D01*
X17351Y-19312D01*
X17278Y-19292D01*
X17208Y-19362D01*
X17208Y-19222D01*
X17208Y-16778D01*
X16900Y-16471D01*
X16829Y-16541D01*
X16829Y-16400D01*
X16522Y-16092D01*
X16428Y-16119D01*
X16357Y-16321D01*
X16368Y-16534D01*
X16428Y-16681D01*
X16522Y-16708D01*
X16829Y-16400D01*
X16829Y-16541D01*
X16592Y-16778D01*
X16619Y-16872D01*
X16821Y-16943D01*
X17034Y-16932D01*
X17181Y-16872D01*
X17208Y-16778D01*
X17208Y-19222D01*
X17181Y-19128D01*
X16979Y-19057D01*
X16766Y-19068D01*
X16619Y-19128D01*
X16592Y-19222D01*
X16900Y-19529D01*
X17208Y-19222D01*
X17208Y-19362D01*
X16971Y-19600D01*
X17278Y-19908D01*
X17351Y-19887D01*
X17351Y-19949D01*
X17389Y-20041D01*
X17459Y-20111D01*
X17550Y-20149D01*
X17649Y-20149D01*
X18249Y-20149D01*
X18341Y-20111D01*
X18411Y-20041D01*
X18449Y-19950D01*
X18449Y-21841D01*
X18274Y-21781D01*
X18070Y-21792D01*
X17933Y-21848D01*
X17910Y-21939D01*
X18200Y-22229D01*
X18490Y-21939D01*
X18490Y-22081D01*
X18271Y-22300D01*
X18561Y-22590D01*
X18652Y-22567D01*
X18693Y-22448D01*
X18755Y-22597D01*
X18902Y-22745D01*
X19095Y-22825D01*
X19304Y-22825D01*
X19497Y-22745D01*
X19645Y-22598D01*
X19700Y-22464D01*
X19755Y-22597D01*
X19902Y-22745D01*
X20095Y-22825D01*
X20304Y-22825D01*
X20497Y-22745D01*
X20645Y-22598D01*
X20700Y-22464D01*
X20755Y-22597D01*
X20902Y-22745D01*
X21095Y-22825D01*
X21304Y-22825D01*
X21497Y-22745D01*
X21645Y-22598D01*
X21700Y-22464D01*
X21755Y-22597D01*
X21902Y-22745D01*
X22095Y-22825D01*
X22304Y-22825D01*
X22497Y-22745D01*
X22645Y-22598D01*
X22725Y-22405D01*
X22725Y-26350D01*
X22719Y-26350D01*
X22719Y-25374D01*
X22708Y-25170D01*
X22652Y-25033D01*
X22561Y-25010D01*
X22490Y-25081D01*
X22490Y-24939D01*
X22467Y-24848D01*
X22274Y-24781D01*
X22070Y-24792D01*
X21933Y-24848D01*
X21910Y-24939D01*
X22200Y-25229D01*
X22490Y-24939D01*
X22490Y-25081D01*
X22271Y-25300D01*
X22561Y-25590D01*
X22652Y-25567D01*
X22719Y-25374D01*
X22719Y-26350D01*
X22490Y-26350D01*
X22490Y-25661D01*
X22200Y-25371D01*
X22129Y-25442D01*
X22129Y-25300D01*
X21839Y-25010D01*
X21748Y-25033D01*
X21706Y-25151D01*
X21645Y-25003D01*
X21498Y-24855D01*
X21305Y-24775D01*
X21096Y-24775D01*
X20903Y-24855D01*
X20755Y-25002D01*
X20699Y-25135D01*
X20645Y-25003D01*
X20498Y-24855D01*
X20305Y-24775D01*
X20096Y-24775D01*
X19903Y-24855D01*
X19755Y-25002D01*
X19699Y-25135D01*
X19645Y-25003D01*
X19498Y-24855D01*
X19305Y-24775D01*
X19096Y-24775D01*
X18903Y-24855D01*
X18755Y-25002D01*
X18699Y-25135D01*
X18645Y-25003D01*
X18498Y-24855D01*
X18490Y-24851D01*
X18490Y-22661D01*
X18200Y-22371D01*
X18129Y-22442D01*
X18129Y-22300D01*
X17839Y-22010D01*
X17748Y-22033D01*
X17706Y-22151D01*
X17645Y-22003D01*
X17498Y-21855D01*
X17305Y-21775D01*
X17208Y-21775D01*
X17208Y-19978D01*
X16900Y-19671D01*
X16829Y-19741D01*
X16829Y-19600D01*
X16522Y-19292D01*
X16428Y-19319D01*
X16357Y-19521D01*
X16368Y-19734D01*
X16428Y-19881D01*
X16522Y-19908D01*
X16829Y-19600D01*
X16829Y-19741D01*
X16592Y-19978D01*
X16619Y-20072D01*
X16821Y-20143D01*
X17034Y-20132D01*
X17181Y-20072D01*
X17208Y-19978D01*
X17208Y-21775D01*
X17096Y-21775D01*
X16903Y-21855D01*
X16755Y-22002D01*
X16699Y-22135D01*
X16645Y-22003D01*
X16498Y-21855D01*
X16305Y-21775D01*
X16096Y-21775D01*
X15903Y-21855D01*
X15755Y-22002D01*
X15699Y-22135D01*
X15645Y-22003D01*
X15498Y-21855D01*
X15305Y-21775D01*
X15249Y-21775D01*
X15249Y-21300D01*
X15249Y-21201D01*
X15249Y-17701D01*
X15211Y-17609D01*
X15141Y-17539D01*
X15050Y-17501D01*
X14951Y-17501D01*
X14849Y-17501D01*
X14849Y-13400D01*
X14849Y-13301D01*
X14849Y-12601D01*
X14811Y-12509D01*
X14741Y-12439D01*
X14650Y-12401D01*
X14551Y-12401D01*
X13851Y-12401D01*
X13759Y-12439D01*
X13689Y-12509D01*
X13669Y-12556D01*
X13611Y-12498D01*
X13575Y-12533D01*
X13560Y-12487D01*
X13341Y-12407D01*
X13106Y-12418D01*
X12940Y-12487D01*
X12907Y-12586D01*
X13215Y-12894D01*
X13250Y-12929D01*
X13321Y-13000D01*
X13250Y-13071D01*
X13215Y-13106D01*
X13179Y-13142D01*
X13179Y-13000D01*
X12836Y-12657D01*
X12765Y-12680D01*
X12758Y-12661D01*
X12589Y-12492D01*
X12369Y-12401D01*
X12131Y-12401D01*
X11911Y-12492D01*
X11742Y-12661D01*
X11651Y-12881D01*
X11651Y-13119D01*
X11742Y-13339D01*
X11911Y-13508D01*
X12131Y-13599D01*
X12369Y-13599D01*
X12589Y-13508D01*
X12758Y-13339D01*
X12765Y-13319D01*
X12836Y-13343D01*
X13179Y-13000D01*
X13179Y-13142D01*
X12907Y-13414D01*
X12940Y-13513D01*
X13159Y-13593D01*
X13394Y-13582D01*
X13560Y-13513D01*
X13575Y-13466D01*
X13593Y-13484D01*
X13611Y-13502D01*
X13669Y-13443D01*
X13689Y-13491D01*
X13759Y-13561D01*
X13850Y-13599D01*
X13949Y-13599D01*
X14649Y-13599D01*
X14741Y-13561D01*
X14811Y-13491D01*
X14849Y-13400D01*
X14849Y-17501D01*
X13593Y-17501D01*
X11451Y-17501D01*
X11359Y-17539D01*
X11289Y-17609D01*
X11251Y-17700D01*
X11251Y-17799D01*
X11251Y-21299D01*
X11289Y-21391D01*
X11359Y-21461D01*
X11450Y-21499D01*
X11549Y-21499D01*
X15049Y-21499D01*
X15141Y-21461D01*
X15211Y-21391D01*
X15249Y-21300D01*
X15249Y-21775D01*
X15096Y-21775D01*
X14903Y-21855D01*
X14755Y-22002D01*
X14675Y-22195D01*
X14675Y-22404D01*
X14755Y-22597D01*
X14902Y-22745D01*
X15095Y-22825D01*
X15304Y-22825D01*
X15497Y-22745D01*
X15645Y-22598D01*
X15700Y-22464D01*
X15755Y-22597D01*
X15902Y-22745D01*
X16095Y-22825D01*
X16304Y-22825D01*
X16497Y-22745D01*
X16645Y-22598D01*
X16700Y-22464D01*
X16755Y-22597D01*
X16902Y-22745D01*
X17095Y-22825D01*
X17304Y-22825D01*
X17497Y-22745D01*
X17645Y-22598D01*
X17703Y-22457D01*
X17748Y-22567D01*
X17839Y-22590D01*
X18129Y-22300D01*
X18129Y-22442D01*
X17910Y-22661D01*
X17933Y-22752D01*
X18126Y-22819D01*
X18330Y-22808D01*
X18467Y-22752D01*
X18490Y-22661D01*
X18490Y-24851D01*
X18305Y-24775D01*
X18096Y-24775D01*
X17903Y-24855D01*
X17755Y-25002D01*
X17699Y-25135D01*
X17645Y-25003D01*
X17498Y-24855D01*
X17305Y-24775D01*
X17096Y-24775D01*
X16903Y-24855D01*
X16755Y-25002D01*
X16699Y-25135D01*
X16645Y-25003D01*
X16498Y-24855D01*
X16305Y-24775D01*
X16096Y-24775D01*
X15903Y-24855D01*
X15755Y-25002D01*
X15724Y-25076D01*
X15724Y-24976D01*
X15686Y-24884D01*
X15616Y-24814D01*
X15525Y-24776D01*
X15426Y-24776D01*
X14876Y-24776D01*
X14784Y-24814D01*
X14714Y-24884D01*
X14676Y-24975D01*
X14676Y-25074D01*
X14676Y-25624D01*
X14714Y-25716D01*
X14784Y-25786D01*
X14875Y-25824D01*
X14974Y-25824D01*
X15524Y-25824D01*
X15616Y-25786D01*
X15686Y-25716D01*
X15724Y-25625D01*
X15724Y-25526D01*
X15724Y-25522D01*
X15755Y-25597D01*
X15902Y-25745D01*
X16095Y-25825D01*
X16304Y-25825D01*
X16497Y-25745D01*
X16645Y-25598D01*
X16700Y-25464D01*
X16755Y-25597D01*
X16902Y-25745D01*
X17095Y-25825D01*
X17304Y-25825D01*
X17497Y-25745D01*
X17645Y-25598D01*
X17700Y-25464D01*
X17755Y-25597D01*
X17902Y-25745D01*
X18095Y-25825D01*
X18304Y-25825D01*
X18497Y-25745D01*
X18645Y-25598D01*
X18700Y-25464D01*
X18755Y-25597D01*
X18902Y-25745D01*
X19095Y-25825D01*
X19304Y-25825D01*
X19497Y-25745D01*
X19645Y-25598D01*
X19700Y-25464D01*
X19755Y-25597D01*
X19902Y-25745D01*
X20095Y-25825D01*
X20304Y-25825D01*
X20497Y-25745D01*
X20645Y-25598D01*
X20700Y-25464D01*
X20755Y-25597D01*
X20902Y-25745D01*
X21095Y-25825D01*
X21304Y-25825D01*
X21497Y-25745D01*
X21645Y-25598D01*
X21703Y-25457D01*
X21748Y-25567D01*
X21839Y-25590D01*
X22129Y-25300D01*
X22129Y-25442D01*
X21910Y-25661D01*
X21933Y-25752D01*
X22126Y-25819D01*
X22330Y-25808D01*
X22467Y-25752D01*
X22490Y-25661D01*
X22490Y-26350D01*
X13725Y-26350D01*
X13725Y-23405D01*
X13725Y-23196D01*
X13645Y-23003D01*
X13498Y-22855D01*
X13305Y-22775D01*
X13096Y-22775D01*
X12903Y-22855D01*
X12755Y-23002D01*
X12675Y-23195D01*
X12675Y-23404D01*
X12755Y-23597D01*
X12902Y-23745D01*
X13042Y-23803D01*
X12933Y-23848D01*
X12910Y-23939D01*
X13200Y-24229D01*
X13490Y-23939D01*
X13467Y-23848D01*
X13348Y-23806D01*
X13497Y-23745D01*
X13645Y-23598D01*
X13725Y-23405D01*
X13725Y-26350D01*
X13719Y-26350D01*
X13719Y-24374D01*
X13708Y-24170D01*
X13652Y-24033D01*
X13561Y-24010D01*
X13271Y-24300D01*
X13561Y-24590D01*
X13652Y-24567D01*
X13719Y-24374D01*
X13719Y-26350D01*
X13490Y-26350D01*
X13490Y-24661D01*
X13200Y-24371D01*
X13129Y-24442D01*
X13129Y-24300D01*
X12839Y-24010D01*
X12748Y-24033D01*
X12681Y-24226D01*
X12692Y-24430D01*
X12748Y-24567D01*
X12839Y-24590D01*
X13129Y-24300D01*
X13129Y-24442D01*
X12910Y-24661D01*
X12933Y-24752D01*
X13126Y-24819D01*
X13330Y-24808D01*
X13467Y-24752D01*
X13490Y-24661D01*
X13490Y-26350D01*
X10750Y-26350D01*
X10750Y-08850D01*
X48650Y-08850D01*
X48650Y-34750D01*
X48650Y-34750D01*
G37*
G54D26*
X48650Y-34750D02*
X48234Y-34750D01*
X48234Y-24256D01*
X48047Y-23802D01*
X47700Y-23455D01*
X47525Y-23382D01*
X47525Y-20605D01*
X47525Y-20396D01*
X47525Y-17605D01*
X47525Y-17396D01*
X47445Y-17203D01*
X47298Y-17055D01*
X47105Y-16975D01*
X46896Y-16975D01*
X46703Y-17055D01*
X46555Y-17202D01*
X46525Y-17274D01*
X46525Y-12605D01*
X46525Y-12396D01*
X46445Y-12203D01*
X46298Y-12055D01*
X46105Y-11975D01*
X45896Y-11975D01*
X45703Y-12055D01*
X45555Y-12202D01*
X45499Y-12335D01*
X45445Y-12203D01*
X45298Y-12055D01*
X45105Y-11975D01*
X44896Y-11975D01*
X44703Y-12055D01*
X44555Y-12202D01*
X44499Y-12335D01*
X44445Y-12203D01*
X44298Y-12055D01*
X44105Y-11975D01*
X43896Y-11975D01*
X43703Y-12055D01*
X43555Y-12202D01*
X43499Y-12335D01*
X43445Y-12203D01*
X43298Y-12055D01*
X43105Y-11975D01*
X42896Y-11975D01*
X42703Y-12055D01*
X42555Y-12202D01*
X42475Y-12395D01*
X42475Y-12604D01*
X42555Y-12797D01*
X42702Y-12945D01*
X42895Y-13025D01*
X43104Y-13025D01*
X43297Y-12945D01*
X43445Y-12798D01*
X43500Y-12664D01*
X43555Y-12797D01*
X43702Y-12945D01*
X43895Y-13025D01*
X44104Y-13025D01*
X44297Y-12945D01*
X44445Y-12798D01*
X44500Y-12664D01*
X44555Y-12797D01*
X44702Y-12945D01*
X44895Y-13025D01*
X45104Y-13025D01*
X45297Y-12945D01*
X45445Y-12798D01*
X45500Y-12664D01*
X45555Y-12797D01*
X45702Y-12945D01*
X45895Y-13025D01*
X46104Y-13025D01*
X46297Y-12945D01*
X46445Y-12798D01*
X46525Y-12605D01*
X46525Y-17274D01*
X46519Y-17288D01*
X46519Y-15574D01*
X46508Y-15370D01*
X46452Y-15233D01*
X46361Y-15210D01*
X46290Y-15281D01*
X46290Y-15139D01*
X46267Y-15048D01*
X46074Y-14981D01*
X45870Y-14992D01*
X45733Y-15048D01*
X45710Y-15139D01*
X46000Y-15429D01*
X46290Y-15139D01*
X46290Y-15281D01*
X46071Y-15500D01*
X46361Y-15790D01*
X46452Y-15767D01*
X46519Y-15574D01*
X46519Y-17288D01*
X46475Y-17395D01*
X46475Y-17604D01*
X46555Y-17797D01*
X46702Y-17945D01*
X46895Y-18025D01*
X47104Y-18025D01*
X47297Y-17945D01*
X47445Y-17798D01*
X47525Y-17605D01*
X47525Y-20396D01*
X47445Y-20203D01*
X47298Y-20055D01*
X47105Y-19975D01*
X46896Y-19975D01*
X46703Y-20055D01*
X46555Y-20202D01*
X46475Y-20395D01*
X46475Y-20604D01*
X46555Y-20797D01*
X46702Y-20945D01*
X46895Y-21025D01*
X47104Y-21025D01*
X47297Y-20945D01*
X47445Y-20798D01*
X47525Y-20605D01*
X47525Y-23382D01*
X47247Y-23267D01*
X46756Y-23266D01*
X46302Y-23453D01*
X46290Y-23465D01*
X46290Y-15861D01*
X46000Y-15571D01*
X45929Y-15642D01*
X45929Y-15500D01*
X45639Y-15210D01*
X45548Y-15233D01*
X45506Y-15351D01*
X45445Y-15203D01*
X45298Y-15055D01*
X45105Y-14975D01*
X44896Y-14975D01*
X44703Y-15055D01*
X44555Y-15202D01*
X44499Y-15335D01*
X44445Y-15203D01*
X44298Y-15055D01*
X44105Y-14975D01*
X43896Y-14975D01*
X43703Y-15055D01*
X43555Y-15202D01*
X43524Y-15276D01*
X43524Y-15176D01*
X43486Y-15084D01*
X43416Y-15014D01*
X43325Y-14976D01*
X43226Y-14976D01*
X42676Y-14976D01*
X42584Y-15014D01*
X42514Y-15084D01*
X42476Y-15175D01*
X42476Y-15274D01*
X42476Y-15824D01*
X42514Y-15916D01*
X42584Y-15986D01*
X42675Y-16024D01*
X42774Y-16024D01*
X43324Y-16024D01*
X43416Y-15986D01*
X43486Y-15916D01*
X43524Y-15825D01*
X43524Y-15726D01*
X43524Y-15722D01*
X43555Y-15797D01*
X43702Y-15945D01*
X43895Y-16025D01*
X44104Y-16025D01*
X44297Y-15945D01*
X44445Y-15798D01*
X44500Y-15664D01*
X44555Y-15797D01*
X44702Y-15945D01*
X44895Y-16025D01*
X45104Y-16025D01*
X45297Y-15945D01*
X45445Y-15798D01*
X45503Y-15657D01*
X45548Y-15767D01*
X45639Y-15790D01*
X45929Y-15500D01*
X45929Y-15642D01*
X45710Y-15861D01*
X45733Y-15952D01*
X45926Y-16019D01*
X46130Y-16008D01*
X46267Y-15952D01*
X46290Y-15861D01*
X46290Y-23465D01*
X46025Y-23730D01*
X46025Y-20605D01*
X46025Y-20396D01*
X46025Y-17605D01*
X46025Y-17396D01*
X45945Y-17203D01*
X45798Y-17055D01*
X45605Y-16975D01*
X45396Y-16975D01*
X45203Y-17055D01*
X45055Y-17202D01*
X44975Y-17395D01*
X44975Y-17604D01*
X45055Y-17797D01*
X45202Y-17945D01*
X45395Y-18025D01*
X45604Y-18025D01*
X45797Y-17945D01*
X45945Y-17798D01*
X46025Y-17605D01*
X46025Y-20396D01*
X45945Y-20203D01*
X45798Y-20055D01*
X45605Y-19975D01*
X45396Y-19975D01*
X45203Y-20055D01*
X45055Y-20202D01*
X44975Y-20395D01*
X44975Y-20604D01*
X45055Y-20797D01*
X45202Y-20945D01*
X45395Y-21025D01*
X45604Y-21025D01*
X45797Y-20945D01*
X45945Y-20798D01*
X46025Y-20605D01*
X46025Y-23730D01*
X45955Y-23800D01*
X45767Y-24253D01*
X45766Y-24744D01*
X45953Y-25198D01*
X46300Y-25545D01*
X46753Y-25733D01*
X47244Y-25734D01*
X47698Y-25547D01*
X48045Y-25200D01*
X48233Y-24747D01*
X48234Y-24256D01*
X48234Y-34750D01*
X44549Y-34750D01*
X44549Y-20109D01*
X44549Y-19891D01*
X44549Y-17109D01*
X44549Y-16891D01*
X44465Y-16689D01*
X44311Y-16535D01*
X44109Y-16451D01*
X43891Y-16451D01*
X43689Y-16535D01*
X43535Y-16689D01*
X43500Y-16773D01*
X43465Y-16689D01*
X43311Y-16535D01*
X43109Y-16451D01*
X42891Y-16451D01*
X42689Y-16535D01*
X42535Y-16689D01*
X42451Y-16891D01*
X42451Y-17109D01*
X42535Y-17311D01*
X42689Y-17465D01*
X42891Y-17549D01*
X43109Y-17549D01*
X43311Y-17465D01*
X43465Y-17311D01*
X43500Y-17226D01*
X43535Y-17311D01*
X43689Y-17465D01*
X43891Y-17549D01*
X44109Y-17549D01*
X44311Y-17465D01*
X44465Y-17311D01*
X44549Y-17109D01*
X44549Y-19891D01*
X44465Y-19689D01*
X44311Y-19535D01*
X44109Y-19451D01*
X43891Y-19451D01*
X43689Y-19535D01*
X43535Y-19689D01*
X43500Y-19773D01*
X43465Y-19689D01*
X43311Y-19535D01*
X43109Y-19451D01*
X42891Y-19451D01*
X42689Y-19535D01*
X42535Y-19689D01*
X42451Y-19891D01*
X42451Y-20109D01*
X42535Y-20311D01*
X42689Y-20465D01*
X42891Y-20549D01*
X43109Y-20549D01*
X43311Y-20465D01*
X43465Y-20311D01*
X43500Y-20226D01*
X43535Y-20311D01*
X43689Y-20465D01*
X43891Y-20549D01*
X44109Y-20549D01*
X44311Y-20465D01*
X44465Y-20311D01*
X44549Y-20109D01*
X44549Y-34750D01*
X43699Y-34750D01*
X43699Y-24140D01*
X43699Y-23862D01*
X43593Y-23605D01*
X43397Y-23408D01*
X43140Y-23301D01*
X42862Y-23301D01*
X42605Y-23407D01*
X42408Y-23603D01*
X42301Y-23860D01*
X42301Y-24138D01*
X42407Y-24395D01*
X42603Y-24592D01*
X42860Y-24699D01*
X43138Y-24699D01*
X43395Y-24593D01*
X43592Y-24397D01*
X43699Y-24140D01*
X43699Y-34750D01*
X43691Y-34750D01*
X43691Y-33114D01*
X43682Y-32841D01*
X43595Y-32630D01*
X43485Y-32586D01*
X43414Y-32657D01*
X43414Y-32515D01*
X43370Y-32405D01*
X43114Y-32309D01*
X42841Y-32318D01*
X42630Y-32405D01*
X42586Y-32515D01*
X43000Y-32929D01*
X43414Y-32515D01*
X43414Y-32657D01*
X43071Y-33000D01*
X43485Y-33414D01*
X43595Y-33370D01*
X43691Y-33114D01*
X43691Y-34750D01*
X43414Y-34750D01*
X43414Y-33485D01*
X43000Y-33071D01*
X42929Y-33142D01*
X42929Y-33000D01*
X42515Y-32586D01*
X42405Y-32630D01*
X42309Y-32886D01*
X42318Y-33159D01*
X42405Y-33370D01*
X42515Y-33414D01*
X42929Y-33000D01*
X42929Y-33142D01*
X42586Y-33485D01*
X42630Y-33595D01*
X42886Y-33691D01*
X43159Y-33682D01*
X43370Y-33595D01*
X43414Y-33485D01*
X43414Y-34750D01*
X38725Y-34750D01*
X38725Y-17905D01*
X38725Y-17696D01*
X38724Y-17693D01*
X38724Y-15125D01*
X38724Y-15026D01*
X38724Y-14476D01*
X38686Y-14384D01*
X38616Y-14314D01*
X38525Y-14276D01*
X38426Y-14276D01*
X37876Y-14276D01*
X37784Y-14314D01*
X37749Y-14349D01*
X37749Y-13150D01*
X37749Y-13051D01*
X37749Y-12451D01*
X37711Y-12359D01*
X37641Y-12289D01*
X37550Y-12251D01*
X37451Y-12251D01*
X36851Y-12251D01*
X36759Y-12289D01*
X36689Y-12359D01*
X36651Y-12450D01*
X36651Y-12475D01*
X36511Y-12335D01*
X36309Y-12251D01*
X36091Y-12251D01*
X35889Y-12335D01*
X35735Y-12489D01*
X35697Y-12580D01*
X35672Y-12519D01*
X35578Y-12492D01*
X35508Y-12562D01*
X35508Y-12422D01*
X35481Y-12328D01*
X35279Y-12257D01*
X35066Y-12268D01*
X34919Y-12328D01*
X34892Y-12422D01*
X35200Y-12729D01*
X35508Y-12422D01*
X35508Y-12562D01*
X35271Y-12800D01*
X35578Y-13108D01*
X35672Y-13081D01*
X35695Y-13015D01*
X35735Y-13111D01*
X35889Y-13265D01*
X36091Y-13349D01*
X36309Y-13349D01*
X36511Y-13265D01*
X36651Y-13125D01*
X36651Y-13149D01*
X36689Y-13241D01*
X36759Y-13311D01*
X36850Y-13349D01*
X36949Y-13349D01*
X37549Y-13349D01*
X37641Y-13311D01*
X37711Y-13241D01*
X37749Y-13150D01*
X37749Y-14349D01*
X37714Y-14384D01*
X37676Y-14475D01*
X37676Y-14574D01*
X37676Y-14577D01*
X37645Y-14503D01*
X37498Y-14355D01*
X37305Y-14275D01*
X37096Y-14275D01*
X36903Y-14355D01*
X36755Y-14502D01*
X36699Y-14635D01*
X36645Y-14503D01*
X36498Y-14355D01*
X36305Y-14275D01*
X36096Y-14275D01*
X35903Y-14355D01*
X35755Y-14502D01*
X35699Y-14635D01*
X35645Y-14503D01*
X35508Y-14365D01*
X35508Y-13178D01*
X35200Y-12871D01*
X35129Y-12941D01*
X35129Y-12800D01*
X34822Y-12492D01*
X34728Y-12519D01*
X34657Y-12721D01*
X34668Y-12934D01*
X34728Y-13081D01*
X34822Y-13108D01*
X35129Y-12800D01*
X35129Y-12941D01*
X34892Y-13178D01*
X34919Y-13272D01*
X35121Y-13343D01*
X35334Y-13332D01*
X35481Y-13272D01*
X35508Y-13178D01*
X35508Y-14365D01*
X35498Y-14355D01*
X35305Y-14275D01*
X35096Y-14275D01*
X34903Y-14355D01*
X34755Y-14502D01*
X34699Y-14635D01*
X34645Y-14503D01*
X34498Y-14355D01*
X34305Y-14275D01*
X34096Y-14275D01*
X33903Y-14355D01*
X33755Y-14502D01*
X33699Y-14635D01*
X33645Y-14503D01*
X33498Y-14355D01*
X33305Y-14275D01*
X33096Y-14275D01*
X32903Y-14355D01*
X32755Y-14502D01*
X32725Y-14573D01*
X32725Y-12905D01*
X32725Y-12696D01*
X32645Y-12503D01*
X32498Y-12355D01*
X32305Y-12275D01*
X32096Y-12275D01*
X31903Y-12355D01*
X31755Y-12502D01*
X31696Y-12642D01*
X31652Y-12533D01*
X31561Y-12510D01*
X31490Y-12581D01*
X31490Y-12439D01*
X31467Y-12348D01*
X31274Y-12281D01*
X31070Y-12292D01*
X30933Y-12348D01*
X30910Y-12439D01*
X31200Y-12729D01*
X31490Y-12439D01*
X31490Y-12581D01*
X31271Y-12800D01*
X31561Y-13090D01*
X31652Y-13067D01*
X31693Y-12948D01*
X31755Y-13097D01*
X31902Y-13245D01*
X32095Y-13325D01*
X32304Y-13325D01*
X32497Y-13245D01*
X32645Y-13098D01*
X32725Y-12905D01*
X32725Y-14573D01*
X32699Y-14635D01*
X32645Y-14503D01*
X32498Y-14355D01*
X32305Y-14275D01*
X32096Y-14275D01*
X31903Y-14355D01*
X31755Y-14502D01*
X31696Y-14642D01*
X31652Y-14533D01*
X31561Y-14510D01*
X31490Y-14581D01*
X31490Y-14439D01*
X31490Y-13161D01*
X31200Y-12871D01*
X31129Y-12942D01*
X31129Y-12800D01*
X30839Y-12510D01*
X30748Y-12533D01*
X30681Y-12726D01*
X30692Y-12930D01*
X30748Y-13067D01*
X30839Y-13090D01*
X31129Y-12800D01*
X31129Y-12942D01*
X30910Y-13161D01*
X30933Y-13252D01*
X31126Y-13319D01*
X31330Y-13308D01*
X31467Y-13252D01*
X31490Y-13161D01*
X31490Y-14439D01*
X31467Y-14348D01*
X31274Y-14281D01*
X31070Y-14292D01*
X30933Y-14348D01*
X30910Y-14439D01*
X31200Y-14729D01*
X31490Y-14439D01*
X31490Y-14581D01*
X31271Y-14800D01*
X31561Y-15090D01*
X31652Y-15067D01*
X31693Y-14948D01*
X31755Y-15097D01*
X31850Y-15192D01*
X31850Y-15655D01*
X31490Y-16015D01*
X31490Y-15161D01*
X31200Y-14871D01*
X31129Y-14942D01*
X31129Y-14800D01*
X30839Y-14510D01*
X30748Y-14533D01*
X30706Y-14651D01*
X30645Y-14503D01*
X30498Y-14355D01*
X30305Y-14275D01*
X30096Y-14275D01*
X29903Y-14355D01*
X29755Y-14502D01*
X29699Y-14635D01*
X29645Y-14503D01*
X29498Y-14355D01*
X29305Y-14275D01*
X29096Y-14275D01*
X28903Y-14355D01*
X28755Y-14502D01*
X28699Y-14635D01*
X28645Y-14503D01*
X28498Y-14355D01*
X28305Y-14275D01*
X28096Y-14275D01*
X27984Y-14321D01*
X27984Y-11006D01*
X27797Y-10552D01*
X27450Y-10205D01*
X26997Y-10017D01*
X26506Y-10016D01*
X26052Y-10203D01*
X25705Y-10550D01*
X25517Y-11003D01*
X25516Y-11494D01*
X25703Y-11948D01*
X26050Y-12295D01*
X26503Y-12483D01*
X26994Y-12484D01*
X27448Y-12297D01*
X27795Y-11950D01*
X27983Y-11497D01*
X27984Y-11006D01*
X27984Y-14321D01*
X27903Y-14355D01*
X27755Y-14502D01*
X27699Y-14635D01*
X27645Y-14503D01*
X27498Y-14355D01*
X27305Y-14275D01*
X27096Y-14275D01*
X26903Y-14355D01*
X26755Y-14502D01*
X26699Y-14635D01*
X26645Y-14503D01*
X26498Y-14355D01*
X26305Y-14275D01*
X26096Y-14275D01*
X25903Y-14355D01*
X25755Y-14502D01*
X25699Y-14635D01*
X25645Y-14503D01*
X25498Y-14355D01*
X25305Y-14275D01*
X25096Y-14275D01*
X24903Y-14355D01*
X24757Y-14500D01*
X24700Y-14500D01*
X24585Y-14523D01*
X24488Y-14588D01*
X23988Y-15088D01*
X23923Y-15185D01*
X23900Y-15300D01*
X23900Y-20965D01*
X23820Y-21045D01*
X23751Y-21210D01*
X23751Y-21389D01*
X23819Y-21554D01*
X23945Y-21680D01*
X24110Y-21749D01*
X24289Y-21749D01*
X24454Y-21681D01*
X24580Y-21555D01*
X24649Y-21390D01*
X24649Y-21211D01*
X24581Y-21046D01*
X24500Y-20965D01*
X24500Y-15424D01*
X24790Y-15133D01*
X24902Y-15245D01*
X25095Y-15325D01*
X25304Y-15325D01*
X25497Y-15245D01*
X25645Y-15098D01*
X25700Y-14964D01*
X25755Y-15097D01*
X25902Y-15245D01*
X26095Y-15325D01*
X26304Y-15325D01*
X26497Y-15245D01*
X26645Y-15098D01*
X26700Y-14964D01*
X26755Y-15097D01*
X26902Y-15245D01*
X27095Y-15325D01*
X27304Y-15325D01*
X27497Y-15245D01*
X27645Y-15098D01*
X27700Y-14964D01*
X27755Y-15097D01*
X27902Y-15245D01*
X28095Y-15325D01*
X28304Y-15325D01*
X28497Y-15245D01*
X28645Y-15098D01*
X28700Y-14964D01*
X28755Y-15097D01*
X28902Y-15245D01*
X29095Y-15325D01*
X29304Y-15325D01*
X29497Y-15245D01*
X29645Y-15098D01*
X29700Y-14964D01*
X29755Y-15097D01*
X29902Y-15245D01*
X30095Y-15325D01*
X30304Y-15325D01*
X30497Y-15245D01*
X30645Y-15098D01*
X30703Y-14957D01*
X30748Y-15067D01*
X30839Y-15090D01*
X31129Y-14800D01*
X31129Y-14942D01*
X30910Y-15161D01*
X30933Y-15252D01*
X31126Y-15319D01*
X31330Y-15308D01*
X31467Y-15252D01*
X31490Y-15161D01*
X31490Y-16015D01*
X30230Y-17275D01*
X30096Y-17275D01*
X29903Y-17355D01*
X29755Y-17502D01*
X29699Y-17635D01*
X29645Y-17503D01*
X29498Y-17355D01*
X29305Y-17275D01*
X29096Y-17275D01*
X28903Y-17355D01*
X28755Y-17502D01*
X28699Y-17635D01*
X28645Y-17503D01*
X28498Y-17355D01*
X28305Y-17275D01*
X28096Y-17275D01*
X27903Y-17355D01*
X27755Y-17502D01*
X27699Y-17635D01*
X27645Y-17503D01*
X27498Y-17355D01*
X27305Y-17275D01*
X27096Y-17275D01*
X26903Y-17355D01*
X26755Y-17502D01*
X26699Y-17635D01*
X26645Y-17503D01*
X26498Y-17355D01*
X26305Y-17275D01*
X26096Y-17275D01*
X25903Y-17355D01*
X25755Y-17502D01*
X25699Y-17635D01*
X25645Y-17503D01*
X25498Y-17355D01*
X25305Y-17275D01*
X25096Y-17275D01*
X24903Y-17355D01*
X24755Y-17502D01*
X24675Y-17695D01*
X24675Y-17904D01*
X24755Y-18097D01*
X24900Y-18242D01*
X24900Y-20965D01*
X24820Y-21045D01*
X24751Y-21210D01*
X24751Y-21389D01*
X24819Y-21554D01*
X24945Y-21680D01*
X25110Y-21749D01*
X25289Y-21749D01*
X25454Y-21681D01*
X25580Y-21555D01*
X25649Y-21390D01*
X25649Y-21211D01*
X25581Y-21046D01*
X25500Y-20965D01*
X25500Y-18242D01*
X25645Y-18098D01*
X25700Y-17964D01*
X25755Y-18097D01*
X25902Y-18245D01*
X26095Y-18325D01*
X26304Y-18325D01*
X26497Y-18245D01*
X26645Y-18098D01*
X26700Y-17964D01*
X26755Y-18097D01*
X26902Y-18245D01*
X27095Y-18325D01*
X27304Y-18325D01*
X27497Y-18245D01*
X27645Y-18098D01*
X27700Y-17964D01*
X27755Y-18097D01*
X27902Y-18245D01*
X28095Y-18325D01*
X28304Y-18325D01*
X28497Y-18245D01*
X28645Y-18098D01*
X28700Y-17964D01*
X28755Y-18097D01*
X28902Y-18245D01*
X29095Y-18325D01*
X29304Y-18325D01*
X29497Y-18245D01*
X29645Y-18098D01*
X29700Y-17964D01*
X29755Y-18097D01*
X29902Y-18245D01*
X30095Y-18325D01*
X30304Y-18325D01*
X30497Y-18245D01*
X30645Y-18098D01*
X30700Y-17964D01*
X30755Y-18097D01*
X30902Y-18245D01*
X31095Y-18325D01*
X31304Y-18325D01*
X31497Y-18245D01*
X31645Y-18098D01*
X31703Y-17957D01*
X31748Y-18067D01*
X31839Y-18090D01*
X32129Y-17800D01*
X31839Y-17510D01*
X31748Y-17533D01*
X31706Y-17651D01*
X31645Y-17503D01*
X31498Y-17355D01*
X31305Y-17275D01*
X31219Y-17275D01*
X32447Y-16048D01*
X32447Y-16047D01*
X32523Y-15934D01*
X32549Y-15800D01*
X32550Y-15800D01*
X32550Y-15192D01*
X32645Y-15098D01*
X32700Y-14964D01*
X32755Y-15097D01*
X32902Y-15245D01*
X33095Y-15325D01*
X33304Y-15325D01*
X33497Y-15245D01*
X33645Y-15098D01*
X33700Y-14964D01*
X33755Y-15097D01*
X33902Y-15245D01*
X34095Y-15325D01*
X34304Y-15325D01*
X34497Y-15245D01*
X34645Y-15098D01*
X34700Y-14964D01*
X34755Y-15097D01*
X34902Y-15245D01*
X35095Y-15325D01*
X35304Y-15325D01*
X35497Y-15245D01*
X35645Y-15098D01*
X35700Y-14964D01*
X35755Y-15097D01*
X35902Y-15245D01*
X36095Y-15325D01*
X36304Y-15325D01*
X36497Y-15245D01*
X36645Y-15098D01*
X36700Y-14964D01*
X36755Y-15097D01*
X36902Y-15245D01*
X37095Y-15325D01*
X37304Y-15325D01*
X37497Y-15245D01*
X37645Y-15098D01*
X37676Y-15023D01*
X37676Y-15124D01*
X37714Y-15216D01*
X37784Y-15286D01*
X37875Y-15324D01*
X37974Y-15324D01*
X38524Y-15324D01*
X38616Y-15286D01*
X38686Y-15216D01*
X38724Y-15125D01*
X38724Y-17693D01*
X38645Y-17503D01*
X38498Y-17355D01*
X38305Y-17275D01*
X38096Y-17275D01*
X37903Y-17355D01*
X37755Y-17502D01*
X37699Y-17635D01*
X37645Y-17503D01*
X37498Y-17355D01*
X37305Y-17275D01*
X37096Y-17275D01*
X36903Y-17355D01*
X36755Y-17502D01*
X36699Y-17635D01*
X36645Y-17503D01*
X36498Y-17355D01*
X36305Y-17275D01*
X36096Y-17275D01*
X35903Y-17355D01*
X35755Y-17502D01*
X35699Y-17635D01*
X35645Y-17503D01*
X35498Y-17355D01*
X35305Y-17275D01*
X35096Y-17275D01*
X34903Y-17355D01*
X34755Y-17502D01*
X34699Y-17635D01*
X34645Y-17503D01*
X34498Y-17355D01*
X34305Y-17275D01*
X34096Y-17275D01*
X33903Y-17355D01*
X33755Y-17502D01*
X33699Y-17635D01*
X33645Y-17503D01*
X33498Y-17355D01*
X33305Y-17275D01*
X33096Y-17275D01*
X32903Y-17355D01*
X32755Y-17502D01*
X32696Y-17642D01*
X32652Y-17533D01*
X32561Y-17510D01*
X32490Y-17581D01*
X32490Y-17439D01*
X32467Y-17348D01*
X32274Y-17281D01*
X32070Y-17292D01*
X31933Y-17348D01*
X31910Y-17439D01*
X32200Y-17729D01*
X32490Y-17439D01*
X32490Y-17581D01*
X32271Y-17800D01*
X32561Y-18090D01*
X32652Y-18067D01*
X32693Y-17948D01*
X32755Y-18097D01*
X32902Y-18245D01*
X33095Y-18325D01*
X33304Y-18325D01*
X33497Y-18245D01*
X33645Y-18098D01*
X33700Y-17964D01*
X33755Y-18097D01*
X33902Y-18245D01*
X34095Y-18325D01*
X34304Y-18325D01*
X34497Y-18245D01*
X34645Y-18098D01*
X34700Y-17964D01*
X34755Y-18097D01*
X34902Y-18245D01*
X35095Y-18325D01*
X35304Y-18325D01*
X35497Y-18245D01*
X35645Y-18098D01*
X35700Y-17964D01*
X35755Y-18097D01*
X35902Y-18245D01*
X36095Y-18325D01*
X36304Y-18325D01*
X36497Y-18245D01*
X36645Y-18098D01*
X36700Y-17964D01*
X36755Y-18097D01*
X36902Y-18245D01*
X37095Y-18325D01*
X37304Y-18325D01*
X37497Y-18245D01*
X37645Y-18098D01*
X37700Y-17964D01*
X37755Y-18097D01*
X37902Y-18245D01*
X38095Y-18325D01*
X38304Y-18325D01*
X38497Y-18245D01*
X38645Y-18098D01*
X38725Y-17905D01*
X38725Y-34750D01*
X37725Y-34750D01*
X37725Y-24705D01*
X37725Y-24496D01*
X37719Y-24481D01*
X37719Y-23674D01*
X37708Y-23470D01*
X37652Y-23333D01*
X37561Y-23310D01*
X37490Y-23381D01*
X37490Y-23239D01*
X37467Y-23148D01*
X37274Y-23081D01*
X37070Y-23092D01*
X36933Y-23148D01*
X36910Y-23239D01*
X37200Y-23529D01*
X37490Y-23239D01*
X37490Y-23381D01*
X37271Y-23600D01*
X37561Y-23890D01*
X37652Y-23867D01*
X37719Y-23674D01*
X37719Y-24481D01*
X37645Y-24303D01*
X37498Y-24155D01*
X37357Y-24096D01*
X37467Y-24052D01*
X37490Y-23961D01*
X37200Y-23671D01*
X37129Y-23742D01*
X37129Y-23600D01*
X36839Y-23310D01*
X36748Y-23333D01*
X36681Y-23526D01*
X36692Y-23730D01*
X36748Y-23867D01*
X36839Y-23890D01*
X37129Y-23600D01*
X37129Y-23742D01*
X36910Y-23961D01*
X36933Y-24052D01*
X37051Y-24093D01*
X36903Y-24155D01*
X36755Y-24302D01*
X36675Y-24495D01*
X36675Y-24704D01*
X36755Y-24897D01*
X36902Y-25045D01*
X37095Y-25125D01*
X37304Y-25125D01*
X37497Y-25045D01*
X37645Y-24898D01*
X37725Y-24705D01*
X37725Y-34750D01*
X37450Y-34750D01*
X37450Y-26350D01*
X36649Y-26350D01*
X36649Y-20640D01*
X36649Y-20461D01*
X36581Y-20296D01*
X36455Y-20170D01*
X36290Y-20101D01*
X36111Y-20101D01*
X35946Y-20169D01*
X35865Y-20250D01*
X32490Y-20250D01*
X32490Y-18161D01*
X32200Y-17871D01*
X31910Y-18161D01*
X31933Y-18252D01*
X32126Y-18319D01*
X32330Y-18308D01*
X32467Y-18252D01*
X32490Y-18161D01*
X32490Y-20250D01*
X32385Y-20250D01*
X32305Y-20170D01*
X32140Y-20101D01*
X31961Y-20101D01*
X31796Y-20169D01*
X31670Y-20295D01*
X31601Y-20460D01*
X31601Y-20639D01*
X31669Y-20804D01*
X31795Y-20930D01*
X31960Y-20999D01*
X32139Y-20999D01*
X32304Y-20931D01*
X32385Y-20850D01*
X35865Y-20850D01*
X35945Y-20930D01*
X36110Y-20999D01*
X36289Y-20999D01*
X36454Y-20931D01*
X36580Y-20805D01*
X36649Y-20640D01*
X36649Y-26350D01*
X36199Y-26350D01*
X36199Y-21599D01*
X36199Y-21401D01*
X36123Y-21218D01*
X35983Y-21077D01*
X35799Y-21001D01*
X35601Y-21001D01*
X35418Y-21077D01*
X35344Y-21150D01*
X33055Y-21150D01*
X32983Y-21077D01*
X32799Y-21001D01*
X32601Y-21001D01*
X32418Y-21077D01*
X32277Y-21217D01*
X32201Y-21401D01*
X32201Y-21599D01*
X32277Y-21782D01*
X32417Y-21923D01*
X32601Y-21999D01*
X32799Y-21999D01*
X32982Y-21923D01*
X33055Y-21850D01*
X35344Y-21850D01*
X35417Y-21923D01*
X35601Y-21999D01*
X35799Y-21999D01*
X35982Y-21923D01*
X36123Y-21783D01*
X36199Y-21599D01*
X36199Y-26350D01*
X33082Y-26350D01*
X33149Y-26190D01*
X33149Y-26075D01*
X33304Y-26075D01*
X33497Y-25995D01*
X33645Y-25848D01*
X33700Y-25714D01*
X33755Y-25847D01*
X33902Y-25995D01*
X34095Y-26075D01*
X34304Y-26075D01*
X34497Y-25995D01*
X34592Y-25900D01*
X34807Y-25900D01*
X34902Y-25995D01*
X35095Y-26075D01*
X35304Y-26075D01*
X35497Y-25995D01*
X35645Y-25848D01*
X35725Y-25655D01*
X35725Y-25446D01*
X35724Y-25443D01*
X35724Y-22875D01*
X35724Y-22776D01*
X35724Y-22226D01*
X35686Y-22134D01*
X35616Y-22064D01*
X35525Y-22026D01*
X35426Y-22026D01*
X34876Y-22026D01*
X34784Y-22064D01*
X34714Y-22134D01*
X34676Y-22225D01*
X34676Y-22324D01*
X34676Y-22327D01*
X34645Y-22253D01*
X34498Y-22105D01*
X34305Y-22025D01*
X34096Y-22025D01*
X33903Y-22105D01*
X33755Y-22252D01*
X33699Y-22385D01*
X33645Y-22253D01*
X33498Y-22105D01*
X33305Y-22025D01*
X33096Y-22025D01*
X32903Y-22105D01*
X32755Y-22252D01*
X32699Y-22385D01*
X32645Y-22253D01*
X32498Y-22105D01*
X32305Y-22025D01*
X32096Y-22025D01*
X31903Y-22105D01*
X31755Y-22252D01*
X31699Y-22385D01*
X31645Y-22253D01*
X31498Y-22105D01*
X31305Y-22025D01*
X31096Y-22025D01*
X30903Y-22105D01*
X30755Y-22252D01*
X30699Y-22385D01*
X30645Y-22253D01*
X30498Y-22105D01*
X30305Y-22025D01*
X30096Y-22025D01*
X29903Y-22105D01*
X29755Y-22252D01*
X29699Y-22385D01*
X29645Y-22253D01*
X29498Y-22105D01*
X29305Y-22025D01*
X29096Y-22025D01*
X28903Y-22105D01*
X28755Y-22252D01*
X28696Y-22392D01*
X28652Y-22283D01*
X28561Y-22260D01*
X28490Y-22331D01*
X28490Y-22189D01*
X28467Y-22098D01*
X28274Y-22031D01*
X28070Y-22042D01*
X27933Y-22098D01*
X27910Y-22189D01*
X28200Y-22479D01*
X28490Y-22189D01*
X28490Y-22331D01*
X28271Y-22550D01*
X28561Y-22840D01*
X28652Y-22817D01*
X28693Y-22698D01*
X28755Y-22847D01*
X28902Y-22995D01*
X29095Y-23075D01*
X29304Y-23075D01*
X29497Y-22995D01*
X29645Y-22848D01*
X29700Y-22714D01*
X29755Y-22847D01*
X29902Y-22995D01*
X30095Y-23075D01*
X30304Y-23075D01*
X30497Y-22995D01*
X30645Y-22848D01*
X30700Y-22714D01*
X30755Y-22847D01*
X30902Y-22995D01*
X31095Y-23075D01*
X31304Y-23075D01*
X31497Y-22995D01*
X31645Y-22848D01*
X31700Y-22714D01*
X31755Y-22847D01*
X31902Y-22995D01*
X32095Y-23075D01*
X32304Y-23075D01*
X32497Y-22995D01*
X32645Y-22848D01*
X32700Y-22714D01*
X32755Y-22847D01*
X32902Y-22995D01*
X33095Y-23075D01*
X33304Y-23075D01*
X33497Y-22995D01*
X33645Y-22848D01*
X33700Y-22714D01*
X33755Y-22847D01*
X33902Y-22995D01*
X34095Y-23075D01*
X34304Y-23075D01*
X34497Y-22995D01*
X34645Y-22848D01*
X34676Y-22773D01*
X34676Y-22874D01*
X34714Y-22966D01*
X34784Y-23036D01*
X34875Y-23074D01*
X34974Y-23074D01*
X35524Y-23074D01*
X35616Y-23036D01*
X35686Y-22966D01*
X35724Y-22875D01*
X35724Y-25443D01*
X35645Y-25253D01*
X35498Y-25105D01*
X35305Y-25025D01*
X35096Y-25025D01*
X34903Y-25105D01*
X34807Y-25200D01*
X34592Y-25200D01*
X34498Y-25105D01*
X34305Y-25025D01*
X34096Y-25025D01*
X33903Y-25105D01*
X33755Y-25252D01*
X33699Y-25385D01*
X33645Y-25253D01*
X33498Y-25105D01*
X33305Y-25025D01*
X33096Y-25025D01*
X32903Y-25105D01*
X32755Y-25252D01*
X32699Y-25385D01*
X32645Y-25253D01*
X32498Y-25105D01*
X32305Y-25025D01*
X32096Y-25025D01*
X32091Y-25026D01*
X32149Y-24890D01*
X32149Y-24711D01*
X32081Y-24546D01*
X31955Y-24420D01*
X31790Y-24351D01*
X31611Y-24351D01*
X31446Y-24419D01*
X31320Y-24545D01*
X31251Y-24710D01*
X31251Y-24889D01*
X31307Y-25026D01*
X31305Y-25025D01*
X31096Y-25025D01*
X30903Y-25105D01*
X30755Y-25252D01*
X30699Y-25385D01*
X30645Y-25253D01*
X30498Y-25105D01*
X30305Y-25025D01*
X30096Y-25025D01*
X29903Y-25105D01*
X29755Y-25252D01*
X29699Y-25385D01*
X29645Y-25253D01*
X29498Y-25105D01*
X29305Y-25025D01*
X29096Y-25025D01*
X28903Y-25105D01*
X28755Y-25252D01*
X28699Y-25385D01*
X28645Y-25253D01*
X28498Y-25105D01*
X28490Y-25101D01*
X28490Y-22911D01*
X28200Y-22621D01*
X28129Y-22692D01*
X28129Y-22550D01*
X27839Y-22260D01*
X27748Y-22283D01*
X27681Y-22476D01*
X27692Y-22680D01*
X27748Y-22817D01*
X27839Y-22840D01*
X28129Y-22550D01*
X28129Y-22692D01*
X27910Y-22911D01*
X27933Y-23002D01*
X28126Y-23069D01*
X28330Y-23058D01*
X28467Y-23002D01*
X28490Y-22911D01*
X28490Y-25101D01*
X28305Y-25025D01*
X28096Y-25025D01*
X27903Y-25105D01*
X27755Y-25252D01*
X27675Y-25445D01*
X27675Y-25654D01*
X27755Y-25847D01*
X27902Y-25995D01*
X28095Y-26075D01*
X28304Y-26075D01*
X28497Y-25995D01*
X28645Y-25848D01*
X28700Y-25714D01*
X28755Y-25847D01*
X28902Y-25995D01*
X29095Y-26075D01*
X29304Y-26075D01*
X29497Y-25995D01*
X29645Y-25848D01*
X29700Y-25714D01*
X29755Y-25847D01*
X29902Y-25995D01*
X30095Y-26075D01*
X30304Y-26075D01*
X30497Y-25995D01*
X30645Y-25848D01*
X30700Y-25714D01*
X30755Y-25847D01*
X30902Y-25995D01*
X31095Y-26075D01*
X31304Y-26075D01*
X31400Y-26035D01*
X31400Y-26300D01*
X31410Y-26350D01*
X27650Y-26350D01*
X27650Y-26650D01*
X31625Y-26650D01*
X32501Y-27525D01*
X32501Y-27639D01*
X32564Y-27792D01*
X32524Y-27776D01*
X32312Y-27775D01*
X32250Y-27837D01*
X32250Y-28250D01*
X32663Y-28250D01*
X32725Y-28188D01*
X32724Y-28074D01*
X32724Y-27975D01*
X32707Y-27935D01*
X32860Y-27999D01*
X33039Y-27999D01*
X33204Y-27931D01*
X33330Y-27805D01*
X33399Y-27640D01*
X33399Y-27461D01*
X33393Y-27447D01*
X33554Y-27381D01*
X33680Y-27255D01*
X33749Y-27090D01*
X33749Y-26911D01*
X33681Y-26746D01*
X33585Y-26650D01*
X37150Y-26650D01*
X37150Y-34750D01*
X36725Y-34750D01*
X36725Y-30912D01*
X36725Y-30688D01*
X36724Y-30574D01*
X36724Y-30475D01*
X36686Y-30384D01*
X36616Y-30314D01*
X36524Y-30276D01*
X36312Y-30275D01*
X36250Y-30337D01*
X36250Y-30750D01*
X36663Y-30750D01*
X36725Y-30688D01*
X36725Y-30912D01*
X36663Y-30850D01*
X36250Y-30850D01*
X36250Y-31263D01*
X36312Y-31325D01*
X36524Y-31324D01*
X36616Y-31286D01*
X36686Y-31216D01*
X36724Y-31125D01*
X36724Y-31026D01*
X36725Y-30912D01*
X36725Y-34750D01*
X36150Y-34750D01*
X36150Y-31263D01*
X36150Y-30900D01*
X36150Y-30850D01*
X36150Y-30750D01*
X36150Y-30700D01*
X36150Y-30337D01*
X36088Y-30275D01*
X35876Y-30276D01*
X35784Y-30314D01*
X35725Y-30373D01*
X35725Y-28412D01*
X35725Y-28188D01*
X35724Y-28074D01*
X35724Y-27975D01*
X35686Y-27884D01*
X35616Y-27814D01*
X35524Y-27776D01*
X35312Y-27775D01*
X35250Y-27837D01*
X35250Y-28250D01*
X35663Y-28250D01*
X35725Y-28188D01*
X35725Y-28412D01*
X35663Y-28350D01*
X35250Y-28350D01*
X35250Y-28763D01*
X35312Y-28825D01*
X35524Y-28824D01*
X35616Y-28786D01*
X35686Y-28716D01*
X35724Y-28625D01*
X35724Y-28526D01*
X35725Y-28412D01*
X35725Y-30373D01*
X35714Y-30384D01*
X35676Y-30475D01*
X35676Y-30574D01*
X35675Y-30577D01*
X35645Y-30503D01*
X35498Y-30355D01*
X35305Y-30275D01*
X35150Y-30275D01*
X35150Y-28763D01*
X35150Y-28400D01*
X35150Y-28350D01*
X35150Y-28250D01*
X35150Y-28200D01*
X35150Y-27837D01*
X35088Y-27775D01*
X34876Y-27776D01*
X34784Y-27814D01*
X34714Y-27884D01*
X34676Y-27975D01*
X34676Y-28074D01*
X34675Y-28077D01*
X34645Y-28003D01*
X34498Y-27855D01*
X34305Y-27775D01*
X34096Y-27775D01*
X33903Y-27855D01*
X33755Y-28002D01*
X33675Y-28195D01*
X33675Y-28404D01*
X33755Y-28597D01*
X33902Y-28745D01*
X34035Y-28800D01*
X33903Y-28855D01*
X33755Y-29002D01*
X33675Y-29195D01*
X33675Y-29404D01*
X33755Y-29597D01*
X33902Y-29745D01*
X34095Y-29825D01*
X34304Y-29825D01*
X34497Y-29745D01*
X34645Y-29598D01*
X34725Y-29405D01*
X34725Y-29196D01*
X34645Y-29003D01*
X34498Y-28855D01*
X34364Y-28799D01*
X34497Y-28745D01*
X34645Y-28598D01*
X34675Y-28523D01*
X34676Y-28526D01*
X34676Y-28625D01*
X34714Y-28716D01*
X34784Y-28786D01*
X34876Y-28824D01*
X35088Y-28825D01*
X35150Y-28763D01*
X35150Y-30275D01*
X35096Y-30275D01*
X34903Y-30355D01*
X34755Y-30502D01*
X34675Y-30695D01*
X34675Y-30904D01*
X34755Y-31097D01*
X34902Y-31245D01*
X35035Y-31300D01*
X34903Y-31355D01*
X34755Y-31502D01*
X34675Y-31695D01*
X34675Y-31904D01*
X34755Y-32097D01*
X34902Y-32245D01*
X35095Y-32325D01*
X35304Y-32325D01*
X35497Y-32245D01*
X35645Y-32098D01*
X35725Y-31905D01*
X35725Y-31696D01*
X35645Y-31503D01*
X35498Y-31355D01*
X35364Y-31299D01*
X35497Y-31245D01*
X35645Y-31098D01*
X35675Y-31023D01*
X35676Y-31026D01*
X35676Y-31125D01*
X35714Y-31216D01*
X35784Y-31286D01*
X35876Y-31324D01*
X36088Y-31325D01*
X36150Y-31263D01*
X36150Y-34750D01*
X34725Y-34750D01*
X34725Y-33412D01*
X34725Y-33188D01*
X34724Y-33074D01*
X34724Y-32975D01*
X34686Y-32884D01*
X34616Y-32814D01*
X34524Y-32776D01*
X34312Y-32775D01*
X34250Y-32837D01*
X34250Y-33250D01*
X34663Y-33250D01*
X34725Y-33188D01*
X34725Y-33412D01*
X34663Y-33350D01*
X34250Y-33350D01*
X34250Y-33763D01*
X34312Y-33825D01*
X34524Y-33824D01*
X34616Y-33786D01*
X34686Y-33716D01*
X34724Y-33625D01*
X34724Y-33526D01*
X34725Y-33412D01*
X34725Y-34750D01*
X33484Y-34750D01*
X33497Y-34745D01*
X33645Y-34598D01*
X33725Y-34405D01*
X33725Y-34196D01*
X33645Y-34003D01*
X33498Y-33855D01*
X33364Y-33799D01*
X33497Y-33745D01*
X33645Y-33598D01*
X33675Y-33523D01*
X33676Y-33526D01*
X33676Y-33625D01*
X33714Y-33716D01*
X33784Y-33786D01*
X33876Y-33824D01*
X34088Y-33825D01*
X34150Y-33763D01*
X34150Y-33400D01*
X34150Y-33350D01*
X34150Y-33250D01*
X34150Y-33200D01*
X34150Y-32837D01*
X34088Y-32775D01*
X33876Y-32776D01*
X33784Y-32814D01*
X33725Y-32873D01*
X33725Y-30912D01*
X33725Y-30688D01*
X33724Y-30574D01*
X33724Y-30475D01*
X33686Y-30384D01*
X33616Y-30314D01*
X33524Y-30276D01*
X33312Y-30275D01*
X33250Y-30337D01*
X33250Y-30750D01*
X33663Y-30750D01*
X33725Y-30688D01*
X33725Y-30912D01*
X33663Y-30850D01*
X33250Y-30850D01*
X33250Y-31263D01*
X33312Y-31325D01*
X33524Y-31324D01*
X33616Y-31286D01*
X33686Y-31216D01*
X33724Y-31125D01*
X33724Y-31026D01*
X33725Y-30912D01*
X33725Y-32873D01*
X33714Y-32884D01*
X33676Y-32975D01*
X33676Y-33074D01*
X33675Y-33077D01*
X33645Y-33003D01*
X33498Y-32855D01*
X33305Y-32775D01*
X33150Y-32775D01*
X33150Y-31263D01*
X33150Y-30900D01*
X33150Y-30850D01*
X33150Y-30750D01*
X33150Y-30700D01*
X33150Y-30337D01*
X33088Y-30275D01*
X32876Y-30276D01*
X32784Y-30314D01*
X32725Y-30373D01*
X32725Y-28412D01*
X32663Y-28350D01*
X32250Y-28350D01*
X32250Y-28763D01*
X32312Y-28825D01*
X32524Y-28824D01*
X32616Y-28786D01*
X32686Y-28716D01*
X32724Y-28625D01*
X32724Y-28526D01*
X32725Y-28412D01*
X32725Y-30373D01*
X32714Y-30384D01*
X32676Y-30475D01*
X32676Y-30574D01*
X32675Y-30577D01*
X32645Y-30503D01*
X32498Y-30355D01*
X32305Y-30275D01*
X32150Y-30275D01*
X32150Y-28763D01*
X32150Y-28400D01*
X32150Y-28350D01*
X32150Y-28250D01*
X32150Y-28200D01*
X32150Y-27837D01*
X32088Y-27775D01*
X31876Y-27776D01*
X31784Y-27814D01*
X31714Y-27884D01*
X31676Y-27975D01*
X31676Y-28074D01*
X31675Y-28077D01*
X31645Y-28003D01*
X31498Y-27855D01*
X31305Y-27775D01*
X31096Y-27775D01*
X30903Y-27855D01*
X30755Y-28002D01*
X30675Y-28195D01*
X30675Y-28404D01*
X30755Y-28597D01*
X30902Y-28745D01*
X31035Y-28800D01*
X30903Y-28855D01*
X30755Y-29002D01*
X30675Y-29195D01*
X30675Y-29404D01*
X30755Y-29597D01*
X30902Y-29745D01*
X31095Y-29825D01*
X31304Y-29825D01*
X31497Y-29745D01*
X31645Y-29598D01*
X31725Y-29405D01*
X31725Y-29196D01*
X31645Y-29003D01*
X31498Y-28855D01*
X31364Y-28799D01*
X31497Y-28745D01*
X31645Y-28598D01*
X31675Y-28523D01*
X31676Y-28526D01*
X31676Y-28625D01*
X31714Y-28716D01*
X31784Y-28786D01*
X31876Y-28824D01*
X32088Y-28825D01*
X32150Y-28763D01*
X32150Y-30275D01*
X32096Y-30275D01*
X31903Y-30355D01*
X31755Y-30502D01*
X31675Y-30695D01*
X31675Y-30904D01*
X31755Y-31097D01*
X31902Y-31245D01*
X32035Y-31300D01*
X31903Y-31355D01*
X31755Y-31502D01*
X31675Y-31695D01*
X31675Y-31904D01*
X31755Y-32097D01*
X31902Y-32245D01*
X32095Y-32325D01*
X32304Y-32325D01*
X32497Y-32245D01*
X32645Y-32098D01*
X32725Y-31905D01*
X32725Y-31696D01*
X32645Y-31503D01*
X32498Y-31355D01*
X32364Y-31299D01*
X32497Y-31245D01*
X32645Y-31098D01*
X32675Y-31023D01*
X32676Y-31026D01*
X32676Y-31125D01*
X32714Y-31216D01*
X32784Y-31286D01*
X32876Y-31324D01*
X33088Y-31325D01*
X33150Y-31263D01*
X33150Y-32775D01*
X33096Y-32775D01*
X32903Y-32855D01*
X32755Y-33002D01*
X32675Y-33195D01*
X32675Y-33404D01*
X32755Y-33597D01*
X32902Y-33745D01*
X33035Y-33800D01*
X32903Y-33855D01*
X32755Y-34002D01*
X32675Y-34195D01*
X32675Y-34404D01*
X32755Y-34597D01*
X32902Y-34745D01*
X32914Y-34750D01*
X31725Y-34750D01*
X31725Y-33412D01*
X31725Y-33188D01*
X31724Y-33074D01*
X31724Y-32975D01*
X31686Y-32884D01*
X31616Y-32814D01*
X31524Y-32776D01*
X31312Y-32775D01*
X31250Y-32837D01*
X31250Y-33250D01*
X31663Y-33250D01*
X31725Y-33188D01*
X31725Y-33412D01*
X31663Y-33350D01*
X31250Y-33350D01*
X31250Y-33763D01*
X31312Y-33825D01*
X31524Y-33824D01*
X31616Y-33786D01*
X31686Y-33716D01*
X31724Y-33625D01*
X31724Y-33526D01*
X31725Y-33412D01*
X31725Y-34750D01*
X30484Y-34750D01*
X30497Y-34745D01*
X30645Y-34598D01*
X30725Y-34405D01*
X30725Y-34196D01*
X30645Y-34003D01*
X30498Y-33855D01*
X30364Y-33799D01*
X30497Y-33745D01*
X30645Y-33598D01*
X30675Y-33523D01*
X30676Y-33526D01*
X30676Y-33625D01*
X30714Y-33716D01*
X30784Y-33786D01*
X30876Y-33824D01*
X31088Y-33825D01*
X31150Y-33763D01*
X31150Y-33400D01*
X31150Y-33350D01*
X31150Y-33250D01*
X31150Y-33200D01*
X31150Y-32837D01*
X31088Y-32775D01*
X30876Y-32776D01*
X30784Y-32814D01*
X30725Y-32873D01*
X30725Y-30912D01*
X30725Y-30688D01*
X30724Y-30574D01*
X30724Y-30475D01*
X30686Y-30384D01*
X30616Y-30314D01*
X30524Y-30276D01*
X30312Y-30275D01*
X30250Y-30337D01*
X30250Y-30750D01*
X30663Y-30750D01*
X30725Y-30688D01*
X30725Y-30912D01*
X30663Y-30850D01*
X30250Y-30850D01*
X30250Y-31263D01*
X30312Y-31325D01*
X30524Y-31324D01*
X30616Y-31286D01*
X30686Y-31216D01*
X30724Y-31125D01*
X30724Y-31026D01*
X30725Y-30912D01*
X30725Y-32873D01*
X30714Y-32884D01*
X30676Y-32975D01*
X30676Y-33074D01*
X30675Y-33077D01*
X30645Y-33003D01*
X30498Y-32855D01*
X30305Y-32775D01*
X30150Y-32775D01*
X30150Y-31263D01*
X30150Y-30900D01*
X30150Y-30850D01*
X30150Y-30750D01*
X30150Y-30700D01*
X30150Y-30337D01*
X30088Y-30275D01*
X29876Y-30276D01*
X29784Y-30314D01*
X29725Y-30373D01*
X29725Y-28412D01*
X29725Y-28188D01*
X29724Y-28074D01*
X29724Y-27975D01*
X29686Y-27884D01*
X29616Y-27814D01*
X29524Y-27776D01*
X29312Y-27775D01*
X29250Y-27837D01*
X29250Y-28250D01*
X29663Y-28250D01*
X29725Y-28188D01*
X29725Y-28412D01*
X29663Y-28350D01*
X29250Y-28350D01*
X29250Y-28763D01*
X29312Y-28825D01*
X29524Y-28824D01*
X29616Y-28786D01*
X29686Y-28716D01*
X29724Y-28625D01*
X29724Y-28526D01*
X29725Y-28412D01*
X29725Y-30373D01*
X29714Y-30384D01*
X29676Y-30475D01*
X29676Y-30574D01*
X29675Y-30577D01*
X29645Y-30503D01*
X29498Y-30355D01*
X29305Y-30275D01*
X29150Y-30275D01*
X29150Y-28763D01*
X29150Y-28400D01*
X29150Y-28350D01*
X29150Y-28250D01*
X29150Y-28200D01*
X29150Y-27837D01*
X29088Y-27775D01*
X28876Y-27776D01*
X28784Y-27814D01*
X28714Y-27884D01*
X28676Y-27975D01*
X28676Y-28074D01*
X28675Y-28077D01*
X28645Y-28003D01*
X28498Y-27855D01*
X28305Y-27775D01*
X28096Y-27775D01*
X27903Y-27855D01*
X27755Y-28002D01*
X27675Y-28195D01*
X27675Y-28404D01*
X27755Y-28597D01*
X27902Y-28745D01*
X28035Y-28800D01*
X27903Y-28855D01*
X27755Y-29002D01*
X27675Y-29195D01*
X27675Y-29404D01*
X27755Y-29597D01*
X27902Y-29745D01*
X28095Y-29825D01*
X28304Y-29825D01*
X28497Y-29745D01*
X28645Y-29598D01*
X28725Y-29405D01*
X28725Y-29196D01*
X28645Y-29003D01*
X28498Y-28855D01*
X28364Y-28799D01*
X28497Y-28745D01*
X28645Y-28598D01*
X28675Y-28523D01*
X28676Y-28526D01*
X28676Y-28625D01*
X28714Y-28716D01*
X28784Y-28786D01*
X28876Y-28824D01*
X29088Y-28825D01*
X29150Y-28763D01*
X29150Y-30275D01*
X29096Y-30275D01*
X28903Y-30355D01*
X28755Y-30502D01*
X28675Y-30695D01*
X28675Y-30904D01*
X28755Y-31097D01*
X28902Y-31245D01*
X29035Y-31300D01*
X28903Y-31355D01*
X28755Y-31502D01*
X28675Y-31695D01*
X28675Y-31904D01*
X28755Y-32097D01*
X28902Y-32245D01*
X29095Y-32325D01*
X29304Y-32325D01*
X29497Y-32245D01*
X29645Y-32098D01*
X29725Y-31905D01*
X29725Y-31696D01*
X29645Y-31503D01*
X29498Y-31355D01*
X29364Y-31299D01*
X29497Y-31245D01*
X29645Y-31098D01*
X29675Y-31023D01*
X29676Y-31026D01*
X29676Y-31125D01*
X29714Y-31216D01*
X29784Y-31286D01*
X29876Y-31324D01*
X30088Y-31325D01*
X30150Y-31263D01*
X30150Y-32775D01*
X30096Y-32775D01*
X29903Y-32855D01*
X29755Y-33002D01*
X29675Y-33195D01*
X29675Y-33404D01*
X29755Y-33597D01*
X29902Y-33745D01*
X30035Y-33800D01*
X29903Y-33855D01*
X29755Y-34002D01*
X29675Y-34195D01*
X29675Y-34404D01*
X29755Y-34597D01*
X29902Y-34745D01*
X29914Y-34750D01*
X28725Y-34750D01*
X28725Y-33412D01*
X28725Y-33188D01*
X28724Y-33074D01*
X28724Y-32975D01*
X28686Y-32884D01*
X28616Y-32814D01*
X28524Y-32776D01*
X28312Y-32775D01*
X28250Y-32837D01*
X28250Y-33250D01*
X28663Y-33250D01*
X28725Y-33188D01*
X28725Y-33412D01*
X28663Y-33350D01*
X28250Y-33350D01*
X28250Y-33763D01*
X28312Y-33825D01*
X28524Y-33824D01*
X28616Y-33786D01*
X28686Y-33716D01*
X28724Y-33625D01*
X28724Y-33526D01*
X28725Y-33412D01*
X28725Y-34750D01*
X27484Y-34750D01*
X27497Y-34745D01*
X27645Y-34598D01*
X27725Y-34405D01*
X27725Y-34196D01*
X27645Y-34003D01*
X27498Y-33855D01*
X27364Y-33799D01*
X27497Y-33745D01*
X27645Y-33598D01*
X27675Y-33523D01*
X27676Y-33526D01*
X27676Y-33625D01*
X27714Y-33716D01*
X27784Y-33786D01*
X27876Y-33824D01*
X28088Y-33825D01*
X28150Y-33763D01*
X28150Y-33400D01*
X28150Y-33350D01*
X28150Y-33250D01*
X28150Y-33200D01*
X28150Y-32837D01*
X28088Y-32775D01*
X27876Y-32776D01*
X27784Y-32814D01*
X27725Y-32873D01*
X27725Y-30912D01*
X27725Y-30688D01*
X27724Y-30574D01*
X27724Y-30475D01*
X27686Y-30384D01*
X27616Y-30314D01*
X27524Y-30276D01*
X27312Y-30275D01*
X27250Y-30337D01*
X27250Y-30750D01*
X27663Y-30750D01*
X27725Y-30688D01*
X27725Y-30912D01*
X27663Y-30850D01*
X27250Y-30850D01*
X27250Y-31263D01*
X27312Y-31325D01*
X27524Y-31324D01*
X27616Y-31286D01*
X27686Y-31216D01*
X27724Y-31125D01*
X27724Y-31026D01*
X27725Y-30912D01*
X27725Y-32873D01*
X27714Y-32884D01*
X27676Y-32975D01*
X27676Y-33074D01*
X27675Y-33077D01*
X27645Y-33003D01*
X27498Y-32855D01*
X27305Y-32775D01*
X27150Y-32775D01*
X27150Y-31263D01*
X27150Y-30900D01*
X27150Y-30850D01*
X27150Y-30750D01*
X27150Y-30700D01*
X27150Y-30337D01*
X27088Y-30275D01*
X26876Y-30276D01*
X26784Y-30314D01*
X26714Y-30384D01*
X26676Y-30475D01*
X26676Y-30574D01*
X26675Y-30577D01*
X26645Y-30503D01*
X26498Y-30355D01*
X26305Y-30275D01*
X26096Y-30275D01*
X25903Y-30355D01*
X25755Y-30502D01*
X25675Y-30695D01*
X25675Y-30904D01*
X25755Y-31097D01*
X25902Y-31245D01*
X26035Y-31300D01*
X25903Y-31355D01*
X25755Y-31502D01*
X25675Y-31695D01*
X25675Y-31904D01*
X25755Y-32097D01*
X25902Y-32245D01*
X26095Y-32325D01*
X26304Y-32325D01*
X26497Y-32245D01*
X26645Y-32098D01*
X26725Y-31905D01*
X26725Y-31696D01*
X26645Y-31503D01*
X26498Y-31355D01*
X26364Y-31299D01*
X26497Y-31245D01*
X26645Y-31098D01*
X26675Y-31023D01*
X26676Y-31026D01*
X26676Y-31125D01*
X26714Y-31216D01*
X26784Y-31286D01*
X26876Y-31324D01*
X27088Y-31325D01*
X27150Y-31263D01*
X27150Y-32775D01*
X27096Y-32775D01*
X26903Y-32855D01*
X26755Y-33002D01*
X26675Y-33195D01*
X26675Y-33404D01*
X26755Y-33597D01*
X26902Y-33745D01*
X27035Y-33800D01*
X26903Y-33855D01*
X26755Y-34002D01*
X26675Y-34195D01*
X26675Y-34404D01*
X26755Y-34597D01*
X26902Y-34745D01*
X26914Y-34750D01*
X24950Y-34750D01*
X24950Y-26350D01*
X22725Y-26350D01*
X22725Y-22405D01*
X22725Y-22196D01*
X22649Y-22012D01*
X22649Y-17690D01*
X22649Y-17511D01*
X22581Y-17346D01*
X22455Y-17220D01*
X22290Y-17151D01*
X22125Y-17151D01*
X22165Y-17111D01*
X22249Y-16909D01*
X22249Y-16691D01*
X22165Y-16489D01*
X22025Y-16349D01*
X22049Y-16349D01*
X22141Y-16311D01*
X22211Y-16241D01*
X22249Y-16150D01*
X22249Y-16051D01*
X22249Y-15451D01*
X22211Y-15359D01*
X22141Y-15289D01*
X22050Y-15251D01*
X21951Y-15251D01*
X21525Y-15251D01*
X21525Y-12612D01*
X21525Y-12388D01*
X21524Y-12176D01*
X21486Y-12084D01*
X21416Y-12014D01*
X21325Y-11976D01*
X21226Y-11976D01*
X21222Y-11975D01*
X21297Y-11945D01*
X21445Y-11798D01*
X21525Y-11605D01*
X21525Y-11396D01*
X21445Y-11203D01*
X21298Y-11055D01*
X21105Y-10975D01*
X20896Y-10975D01*
X20703Y-11055D01*
X20555Y-11202D01*
X20475Y-11395D01*
X20475Y-11604D01*
X20555Y-11797D01*
X20702Y-11945D01*
X20776Y-11975D01*
X20774Y-11976D01*
X20675Y-11976D01*
X20584Y-12014D01*
X20514Y-12084D01*
X20476Y-12176D01*
X20475Y-12388D01*
X20537Y-12450D01*
X20900Y-12450D01*
X20950Y-12450D01*
X21050Y-12450D01*
X21100Y-12450D01*
X21463Y-12450D01*
X21525Y-12388D01*
X21525Y-12612D01*
X21463Y-12550D01*
X21050Y-12550D01*
X21050Y-12963D01*
X21112Y-13025D01*
X21226Y-13024D01*
X21325Y-13024D01*
X21416Y-12986D01*
X21486Y-12916D01*
X21524Y-12824D01*
X21525Y-12612D01*
X21525Y-15251D01*
X21351Y-15251D01*
X21259Y-15289D01*
X21189Y-15359D01*
X21151Y-15450D01*
X21151Y-15475D01*
X21011Y-15335D01*
X20950Y-15309D01*
X20950Y-12963D01*
X20950Y-12550D01*
X20537Y-12550D01*
X20475Y-12612D01*
X20476Y-12824D01*
X20514Y-12916D01*
X20584Y-12986D01*
X20675Y-13024D01*
X20774Y-13024D01*
X20888Y-13025D01*
X20950Y-12963D01*
X20950Y-15309D01*
X20809Y-15251D01*
X20591Y-15251D01*
X20389Y-15335D01*
X20235Y-15489D01*
X20200Y-15573D01*
X20165Y-15489D01*
X20011Y-15335D01*
X19809Y-15251D01*
X19591Y-15251D01*
X19389Y-15335D01*
X19250Y-15474D01*
X19250Y-13112D01*
X19250Y-12888D01*
X19249Y-12451D01*
X19249Y-11150D01*
X19249Y-10852D01*
X19135Y-10577D01*
X18925Y-10366D01*
X18650Y-10251D01*
X18352Y-10251D01*
X18077Y-10365D01*
X17866Y-10575D01*
X17751Y-10850D01*
X17751Y-11148D01*
X17865Y-11423D01*
X18075Y-11634D01*
X18350Y-11749D01*
X18648Y-11749D01*
X18923Y-11635D01*
X19134Y-11425D01*
X19249Y-11150D01*
X19249Y-12451D01*
X19211Y-12359D01*
X19141Y-12289D01*
X19050Y-12251D01*
X18951Y-12251D01*
X18612Y-12250D01*
X18550Y-12312D01*
X18550Y-12950D01*
X19188Y-12950D01*
X19250Y-12888D01*
X19250Y-13112D01*
X19188Y-13050D01*
X18550Y-13050D01*
X18550Y-13688D01*
X18612Y-13750D01*
X18951Y-13749D01*
X19050Y-13749D01*
X19141Y-13711D01*
X19211Y-13641D01*
X19249Y-13549D01*
X19250Y-13112D01*
X19250Y-15474D01*
X19235Y-15489D01*
X19151Y-15691D01*
X19151Y-15909D01*
X19235Y-16111D01*
X19389Y-16265D01*
X19480Y-16302D01*
X19419Y-16328D01*
X19392Y-16422D01*
X19700Y-16729D01*
X20008Y-16422D01*
X19981Y-16328D01*
X19915Y-16304D01*
X20011Y-16265D01*
X20165Y-16111D01*
X20200Y-16026D01*
X20235Y-16111D01*
X20389Y-16265D01*
X20473Y-16300D01*
X20389Y-16335D01*
X20235Y-16489D01*
X20197Y-16580D01*
X20172Y-16519D01*
X20078Y-16492D01*
X19771Y-16800D01*
X20078Y-17108D01*
X20172Y-17081D01*
X20195Y-17015D01*
X20235Y-17111D01*
X20389Y-17265D01*
X20591Y-17349D01*
X20718Y-17349D01*
X20651Y-17510D01*
X20651Y-17689D01*
X20719Y-17854D01*
X20845Y-17980D01*
X21010Y-18049D01*
X21189Y-18049D01*
X21354Y-17981D01*
X21435Y-17900D01*
X21865Y-17900D01*
X21945Y-17980D01*
X22110Y-18049D01*
X22289Y-18049D01*
X22454Y-17981D01*
X22580Y-17855D01*
X22649Y-17690D01*
X22649Y-22012D01*
X22645Y-22003D01*
X22498Y-21855D01*
X22305Y-21775D01*
X22096Y-21775D01*
X21903Y-21855D01*
X21755Y-22002D01*
X21699Y-22135D01*
X21645Y-22003D01*
X21498Y-21855D01*
X21305Y-21775D01*
X21096Y-21775D01*
X20903Y-21855D01*
X20755Y-22002D01*
X20699Y-22135D01*
X20645Y-22003D01*
X20498Y-21855D01*
X20305Y-21775D01*
X20096Y-21775D01*
X20008Y-21811D01*
X20008Y-17178D01*
X19700Y-16871D01*
X19629Y-16941D01*
X19629Y-16800D01*
X19322Y-16492D01*
X19228Y-16519D01*
X19157Y-16721D01*
X19168Y-16934D01*
X19228Y-17081D01*
X19322Y-17108D01*
X19629Y-16800D01*
X19629Y-16941D01*
X19392Y-17178D01*
X19419Y-17272D01*
X19621Y-17343D01*
X19834Y-17332D01*
X19981Y-17272D01*
X20008Y-17178D01*
X20008Y-21811D01*
X19903Y-21855D01*
X19755Y-22002D01*
X19699Y-22135D01*
X19645Y-22003D01*
X19498Y-21855D01*
X19305Y-21775D01*
X19096Y-21775D01*
X18903Y-21855D01*
X18755Y-22002D01*
X18696Y-22142D01*
X18652Y-22033D01*
X18561Y-22010D01*
X18490Y-22081D01*
X18490Y-21939D01*
X18467Y-21848D01*
X18450Y-21842D01*
X18450Y-13688D01*
X18450Y-13050D01*
X18450Y-12950D01*
X18450Y-12312D01*
X18388Y-12250D01*
X18049Y-12251D01*
X17950Y-12251D01*
X17859Y-12289D01*
X17789Y-12359D01*
X17751Y-12451D01*
X17750Y-12888D01*
X17812Y-12950D01*
X18450Y-12950D01*
X18450Y-13050D01*
X17812Y-13050D01*
X17750Y-13112D01*
X17751Y-13549D01*
X17789Y-13641D01*
X17859Y-13711D01*
X17950Y-13749D01*
X18049Y-13749D01*
X18388Y-13750D01*
X18450Y-13688D01*
X18450Y-21842D01*
X18449Y-21841D01*
X18449Y-19950D01*
X18449Y-19851D01*
X18449Y-19251D01*
X18449Y-16750D01*
X18449Y-16651D01*
X18449Y-16051D01*
X18411Y-15959D01*
X18341Y-15889D01*
X18250Y-15851D01*
X18151Y-15851D01*
X17551Y-15851D01*
X17459Y-15889D01*
X17389Y-15959D01*
X17351Y-16050D01*
X17351Y-16112D01*
X17278Y-16092D01*
X17208Y-16162D01*
X17208Y-16022D01*
X17181Y-15928D01*
X16979Y-15857D01*
X16766Y-15868D01*
X16619Y-15928D01*
X16592Y-16022D01*
X16900Y-16329D01*
X17208Y-16022D01*
X17208Y-16162D01*
X16971Y-16400D01*
X17278Y-16708D01*
X17351Y-16687D01*
X17351Y-16749D01*
X17389Y-16841D01*
X17459Y-16911D01*
X17550Y-16949D01*
X17649Y-16949D01*
X18249Y-16949D01*
X18341Y-16911D01*
X18411Y-16841D01*
X18449Y-16750D01*
X18449Y-19251D01*
X18411Y-19159D01*
X18341Y-19089D01*
X18250Y-19051D01*
X18151Y-19051D01*
X17551Y-19051D01*
X17459Y-19089D01*
X17389Y-19159D01*
X17351Y-19250D01*
X17351Y-19312D01*
X17278Y-19292D01*
X17208Y-19362D01*
X17208Y-19222D01*
X17208Y-16778D01*
X16900Y-16471D01*
X16829Y-16541D01*
X16829Y-16400D01*
X16522Y-16092D01*
X16428Y-16119D01*
X16357Y-16321D01*
X16368Y-16534D01*
X16428Y-16681D01*
X16522Y-16708D01*
X16829Y-16400D01*
X16829Y-16541D01*
X16592Y-16778D01*
X16619Y-16872D01*
X16821Y-16943D01*
X17034Y-16932D01*
X17181Y-16872D01*
X17208Y-16778D01*
X17208Y-19222D01*
X17181Y-19128D01*
X16979Y-19057D01*
X16766Y-19068D01*
X16619Y-19128D01*
X16592Y-19222D01*
X16900Y-19529D01*
X17208Y-19222D01*
X17208Y-19362D01*
X16971Y-19600D01*
X17278Y-19908D01*
X17351Y-19887D01*
X17351Y-19949D01*
X17389Y-20041D01*
X17459Y-20111D01*
X17550Y-20149D01*
X17649Y-20149D01*
X18249Y-20149D01*
X18341Y-20111D01*
X18411Y-20041D01*
X18449Y-19950D01*
X18449Y-21841D01*
X18274Y-21781D01*
X18070Y-21792D01*
X17933Y-21848D01*
X17910Y-21939D01*
X18200Y-22229D01*
X18490Y-21939D01*
X18490Y-22081D01*
X18271Y-22300D01*
X18561Y-22590D01*
X18652Y-22567D01*
X18693Y-22448D01*
X18755Y-22597D01*
X18902Y-22745D01*
X19095Y-22825D01*
X19304Y-22825D01*
X19497Y-22745D01*
X19645Y-22598D01*
X19700Y-22464D01*
X19755Y-22597D01*
X19902Y-22745D01*
X20095Y-22825D01*
X20304Y-22825D01*
X20497Y-22745D01*
X20645Y-22598D01*
X20700Y-22464D01*
X20755Y-22597D01*
X20902Y-22745D01*
X21095Y-22825D01*
X21304Y-22825D01*
X21497Y-22745D01*
X21645Y-22598D01*
X21700Y-22464D01*
X21755Y-22597D01*
X21902Y-22745D01*
X22095Y-22825D01*
X22304Y-22825D01*
X22497Y-22745D01*
X22645Y-22598D01*
X22725Y-22405D01*
X22725Y-26350D01*
X22719Y-26350D01*
X22719Y-25374D01*
X22708Y-25170D01*
X22652Y-25033D01*
X22561Y-25010D01*
X22490Y-25081D01*
X22490Y-24939D01*
X22467Y-24848D01*
X22274Y-24781D01*
X22070Y-24792D01*
X21933Y-24848D01*
X21910Y-24939D01*
X22200Y-25229D01*
X22490Y-24939D01*
X22490Y-25081D01*
X22271Y-25300D01*
X22561Y-25590D01*
X22652Y-25567D01*
X22719Y-25374D01*
X22719Y-26350D01*
X22490Y-26350D01*
X22490Y-25661D01*
X22200Y-25371D01*
X22129Y-25442D01*
X22129Y-25300D01*
X21839Y-25010D01*
X21748Y-25033D01*
X21706Y-25151D01*
X21645Y-25003D01*
X21498Y-24855D01*
X21305Y-24775D01*
X21096Y-24775D01*
X20903Y-24855D01*
X20755Y-25002D01*
X20699Y-25135D01*
X20645Y-25003D01*
X20498Y-24855D01*
X20305Y-24775D01*
X20096Y-24775D01*
X19903Y-24855D01*
X19755Y-25002D01*
X19699Y-25135D01*
X19645Y-25003D01*
X19498Y-24855D01*
X19305Y-24775D01*
X19096Y-24775D01*
X18903Y-24855D01*
X18755Y-25002D01*
X18699Y-25135D01*
X18645Y-25003D01*
X18498Y-24855D01*
X18490Y-24851D01*
X18490Y-22661D01*
X18200Y-22371D01*
X18129Y-22442D01*
X18129Y-22300D01*
X17839Y-22010D01*
X17748Y-22033D01*
X17706Y-22151D01*
X17645Y-22003D01*
X17498Y-21855D01*
X17305Y-21775D01*
X17208Y-21775D01*
X17208Y-19978D01*
X16900Y-19671D01*
X16829Y-19741D01*
X16829Y-19600D01*
X16522Y-19292D01*
X16428Y-19319D01*
X16357Y-19521D01*
X16368Y-19734D01*
X16428Y-19881D01*
X16522Y-19908D01*
X16829Y-19600D01*
X16829Y-19741D01*
X16592Y-19978D01*
X16619Y-20072D01*
X16821Y-20143D01*
X17034Y-20132D01*
X17181Y-20072D01*
X17208Y-19978D01*
X17208Y-21775D01*
X17096Y-21775D01*
X16903Y-21855D01*
X16755Y-22002D01*
X16699Y-22135D01*
X16645Y-22003D01*
X16498Y-21855D01*
X16305Y-21775D01*
X16096Y-21775D01*
X15903Y-21855D01*
X15755Y-22002D01*
X15699Y-22135D01*
X15645Y-22003D01*
X15498Y-21855D01*
X15305Y-21775D01*
X15249Y-21775D01*
X15249Y-21300D01*
X15249Y-21201D01*
X15249Y-17701D01*
X15211Y-17609D01*
X15141Y-17539D01*
X15050Y-17501D01*
X14951Y-17501D01*
X14849Y-17501D01*
X14849Y-13400D01*
X14849Y-13301D01*
X14849Y-12601D01*
X14811Y-12509D01*
X14741Y-12439D01*
X14650Y-12401D01*
X14551Y-12401D01*
X13851Y-12401D01*
X13759Y-12439D01*
X13689Y-12509D01*
X13669Y-12556D01*
X13611Y-12498D01*
X13575Y-12533D01*
X13560Y-12487D01*
X13341Y-12407D01*
X13106Y-12418D01*
X12940Y-12487D01*
X12907Y-12586D01*
X13215Y-12894D01*
X13250Y-12929D01*
X13321Y-13000D01*
X13250Y-13071D01*
X13215Y-13106D01*
X13179Y-13142D01*
X13179Y-13000D01*
X12836Y-12657D01*
X12765Y-12680D01*
X12758Y-12661D01*
X12589Y-12492D01*
X12369Y-12401D01*
X12131Y-12401D01*
X11911Y-12492D01*
X11742Y-12661D01*
X11651Y-12881D01*
X11651Y-13119D01*
X11742Y-13339D01*
X11911Y-13508D01*
X12131Y-13599D01*
X12369Y-13599D01*
X12589Y-13508D01*
X12758Y-13339D01*
X12765Y-13319D01*
X12836Y-13343D01*
X13179Y-13000D01*
X13179Y-13142D01*
X12907Y-13414D01*
X12940Y-13513D01*
X13159Y-13593D01*
X13394Y-13582D01*
X13560Y-13513D01*
X13575Y-13466D01*
X13593Y-13484D01*
X13611Y-13502D01*
X13669Y-13443D01*
X13689Y-13491D01*
X13759Y-13561D01*
X13850Y-13599D01*
X13949Y-13599D01*
X14649Y-13599D01*
X14741Y-13561D01*
X14811Y-13491D01*
X14849Y-13400D01*
X14849Y-17501D01*
X13593Y-17501D01*
X11451Y-17501D01*
X11359Y-17539D01*
X11289Y-17609D01*
X11251Y-17700D01*
X11251Y-17799D01*
X11251Y-21299D01*
X11289Y-21391D01*
X11359Y-21461D01*
X11450Y-21499D01*
X11549Y-21499D01*
X15049Y-21499D01*
X15141Y-21461D01*
X15211Y-21391D01*
X15249Y-21300D01*
X15249Y-21775D01*
X15096Y-21775D01*
X14903Y-21855D01*
X14755Y-22002D01*
X14675Y-22195D01*
X14675Y-22404D01*
X14755Y-22597D01*
X14902Y-22745D01*
X15095Y-22825D01*
X15304Y-22825D01*
X15497Y-22745D01*
X15645Y-22598D01*
X15700Y-22464D01*
X15755Y-22597D01*
X15902Y-22745D01*
X16095Y-22825D01*
X16304Y-22825D01*
X16497Y-22745D01*
X16645Y-22598D01*
X16700Y-22464D01*
X16755Y-22597D01*
X16902Y-22745D01*
X17095Y-22825D01*
X17304Y-22825D01*
X17497Y-22745D01*
X17645Y-22598D01*
X17703Y-22457D01*
X17748Y-22567D01*
X17839Y-22590D01*
X18129Y-22300D01*
X18129Y-22442D01*
X17910Y-22661D01*
X17933Y-22752D01*
X18126Y-22819D01*
X18330Y-22808D01*
X18467Y-22752D01*
X18490Y-22661D01*
X18490Y-24851D01*
X18305Y-24775D01*
X18096Y-24775D01*
X17903Y-24855D01*
X17755Y-25002D01*
X17699Y-25135D01*
X17645Y-25003D01*
X17498Y-24855D01*
X17305Y-24775D01*
X17096Y-24775D01*
X16903Y-24855D01*
X16755Y-25002D01*
X16699Y-25135D01*
X16645Y-25003D01*
X16498Y-24855D01*
X16305Y-24775D01*
X16096Y-24775D01*
X15903Y-24855D01*
X15755Y-25002D01*
X15724Y-25076D01*
X15724Y-24976D01*
X15686Y-24884D01*
X15616Y-24814D01*
X15525Y-24776D01*
X15426Y-24776D01*
X14876Y-24776D01*
X14784Y-24814D01*
X14714Y-24884D01*
X14676Y-24975D01*
X14676Y-25074D01*
X14676Y-25624D01*
X14714Y-25716D01*
X14784Y-25786D01*
X14875Y-25824D01*
X14974Y-25824D01*
X15524Y-25824D01*
X15616Y-25786D01*
X15686Y-25716D01*
X15724Y-25625D01*
X15724Y-25526D01*
X15724Y-25522D01*
X15755Y-25597D01*
X15902Y-25745D01*
X16095Y-25825D01*
X16304Y-25825D01*
X16497Y-25745D01*
X16645Y-25598D01*
X16700Y-25464D01*
X16755Y-25597D01*
X16902Y-25745D01*
X17095Y-25825D01*
X17304Y-25825D01*
X17497Y-25745D01*
X17645Y-25598D01*
X17700Y-25464D01*
X17755Y-25597D01*
X17902Y-25745D01*
X18095Y-25825D01*
X18304Y-25825D01*
X18497Y-25745D01*
X18645Y-25598D01*
X18700Y-25464D01*
X18755Y-25597D01*
X18902Y-25745D01*
X19095Y-25825D01*
X19304Y-25825D01*
X19497Y-25745D01*
X19645Y-25598D01*
X19700Y-25464D01*
X19755Y-25597D01*
X19902Y-25745D01*
X20095Y-25825D01*
X20304Y-25825D01*
X20497Y-25745D01*
X20645Y-25598D01*
X20700Y-25464D01*
X20755Y-25597D01*
X20902Y-25745D01*
X21095Y-25825D01*
X21304Y-25825D01*
X21497Y-25745D01*
X21645Y-25598D01*
X21703Y-25457D01*
X21748Y-25567D01*
X21839Y-25590D01*
X22129Y-25300D01*
X22129Y-25442D01*
X21910Y-25661D01*
X21933Y-25752D01*
X22126Y-25819D01*
X22330Y-25808D01*
X22467Y-25752D01*
X22490Y-25661D01*
X22490Y-26350D01*
X13725Y-26350D01*
X13725Y-23405D01*
X13725Y-23196D01*
X13645Y-23003D01*
X13498Y-22855D01*
X13305Y-22775D01*
X13096Y-22775D01*
X12903Y-22855D01*
X12755Y-23002D01*
X12675Y-23195D01*
X12675Y-23404D01*
X12755Y-23597D01*
X12902Y-23745D01*
X13042Y-23803D01*
X12933Y-23848D01*
X12910Y-23939D01*
X13200Y-24229D01*
X13490Y-23939D01*
X13467Y-23848D01*
X13348Y-23806D01*
X13497Y-23745D01*
X13645Y-23598D01*
X13725Y-23405D01*
X13725Y-26350D01*
X13719Y-26350D01*
X13719Y-24374D01*
X13708Y-24170D01*
X13652Y-24033D01*
X13561Y-24010D01*
X13271Y-24300D01*
X13561Y-24590D01*
X13652Y-24567D01*
X13719Y-24374D01*
X13719Y-26350D01*
X13490Y-26350D01*
X13490Y-24661D01*
X13200Y-24371D01*
X13129Y-24442D01*
X13129Y-24300D01*
X12839Y-24010D01*
X12748Y-24033D01*
X12681Y-24226D01*
X12692Y-24430D01*
X12748Y-24567D01*
X12839Y-24590D01*
X13129Y-24300D01*
X13129Y-24442D01*
X12910Y-24661D01*
X12933Y-24752D01*
X13126Y-24819D01*
X13330Y-24808D01*
X13467Y-24752D01*
X13490Y-24661D01*
X13490Y-26350D01*
X10750Y-26350D01*
X10750Y-08850D01*
X48650Y-08850D01*
X48650Y-34750D01*
M02*
