M48
;DRILL file {PCBnew (2011-05-25)-stable} date Thu 21 Jun 2012 00:23:21 BST
;FORMAT={-:-/ absolute / inch / decimal}
FMAT,2
INCH,TZ
T1C0.025
T2C0.032
T3C0.040
T4C0.045
T5C0.060
T6C0.120
T7C0.197
%
G90
G05
M72
T1
X1.220Y2.750
X1.420Y2.980
X1.670Y2.730
X2.110Y1.760
X2.220Y1.760
X2.420Y2.130
X2.520Y2.130
X3.170Y2.480
X3.205Y2.055
X3.270Y2.150
X3.270Y2.610
X3.295Y2.755
X3.330Y2.700
X3.570Y2.150
X3.620Y2.055
T2
X1.320Y2.330
X1.320Y2.430
X1.370Y3.320
X1.370Y3.420
X1.470Y2.820
X1.470Y2.920
X1.470Y3.320
X1.470Y3.570
X1.520Y2.230
X1.520Y2.530
X1.570Y2.820
X1.570Y3.070
X1.570Y3.170
X1.570Y3.570
X1.620Y2.230
X1.620Y2.530
X1.670Y3.070
X1.670Y3.320
X1.670Y3.420
X1.670Y3.570
X1.690Y1.640
X1.690Y1.960
X1.720Y2.230
X1.720Y2.530
X1.770Y2.820
X1.770Y2.920
X1.770Y3.320
X1.770Y3.570
X1.790Y1.640
X1.790Y1.960
X1.820Y2.230
X1.820Y2.530
X1.870Y2.820
X1.870Y3.070
X1.870Y3.170
X1.870Y3.570
X1.920Y2.230
X1.920Y2.530
X1.970Y3.070
X1.970Y3.320
X1.970Y3.420
X1.970Y3.570
X2.020Y2.230
X2.020Y2.530
X2.070Y2.820
X2.070Y2.920
X2.070Y3.320
X2.070Y3.570
X2.100Y1.150
X2.100Y1.250
X2.120Y2.230
X2.120Y2.530
X2.170Y2.820
X2.170Y3.070
X2.170Y3.170
X2.170Y3.570
X2.220Y2.230
X2.220Y2.530
X2.270Y3.070
X2.270Y3.320
X2.270Y3.420
X2.270Y3.570
X2.370Y3.320
X2.370Y3.570
X2.520Y1.480
X2.520Y1.780
X2.620Y1.480
X2.620Y1.780
X2.620Y3.080
X2.620Y3.180
X2.620Y3.580
X2.720Y1.480
X2.720Y1.780
X2.720Y3.080
X2.720Y3.330
X2.720Y3.430
X2.720Y3.580
X2.820Y1.480
X2.820Y1.780
X2.820Y2.255
X2.820Y2.555
X2.820Y2.830
X2.820Y2.930
X2.820Y3.330
X2.820Y3.580
X2.920Y1.480
X2.920Y1.780
X2.920Y2.255
X2.920Y2.555
X2.920Y2.830
X2.920Y3.080
X2.920Y3.180
X2.920Y3.580
X3.020Y1.480
X3.020Y1.780
X3.020Y2.255
X3.020Y2.555
X3.020Y3.080
X3.020Y3.330
X3.020Y3.430
X3.020Y3.580
X3.120Y1.280
X3.120Y1.480
X3.120Y1.780
X3.120Y2.255
X3.120Y2.555
X3.120Y2.830
X3.120Y2.930
X3.120Y3.330
X3.120Y3.580
X3.220Y1.280
X3.220Y1.480
X3.220Y1.780
X3.220Y2.255
X3.220Y2.555
X3.220Y2.830
X3.220Y3.080
X3.220Y3.180
X3.220Y3.580
X3.320Y1.480
X3.320Y1.780
X3.320Y2.255
X3.320Y2.555
X3.320Y3.080
X3.320Y3.330
X3.320Y3.430
X3.320Y3.580
X3.420Y1.480
X3.420Y1.780
X3.420Y2.255
X3.420Y2.555
X3.420Y2.830
X3.420Y2.930
X3.420Y3.330
X3.420Y3.580
X3.520Y1.480
X3.520Y1.780
X3.520Y2.255
X3.520Y2.555
X3.520Y2.830
X3.520Y3.080
X3.520Y3.180
X3.520Y3.580
X3.620Y1.480
X3.620Y1.780
X3.620Y3.080
X3.720Y1.480
X3.720Y1.780
X3.720Y2.360
X3.720Y2.460
X3.820Y1.480
X3.820Y1.780
X4.300Y1.250
X4.300Y1.550
X4.300Y1.700
X4.300Y2.000
X4.400Y1.250
X4.400Y1.550
X4.400Y1.700
X4.400Y2.000
X4.500Y1.250
X4.500Y1.550
X4.550Y1.750
X4.550Y2.050
X4.600Y1.250
X4.600Y1.550
X4.700Y1.750
X4.700Y2.050
T3
X1.970Y1.580
X1.970Y1.680
X2.070Y1.580
X2.070Y1.680
X2.170Y1.580
X2.170Y1.680
X3.520Y1.280
X3.620Y1.280
X3.720Y1.280
X4.300Y2.400
X4.300Y3.300
T4
X1.225Y1.300
X1.325Y1.300
X1.425Y1.300
T5
X1.850Y1.100
X1.850Y1.300
T6
X1.325Y1.950
T7
X1.250Y3.100
X2.675Y1.125
X4.700Y2.450
T0
M30
