G04 (created by PCBNEW-RS274X (2011-05-25)-stable) date Thu 21 Jun 2012 00:23:00 BST*
G01*
G70*
G90*
%MOIN*%
G04 Gerber Fmt 3.4, Leading zero omitted, Abs format*
%FSLAX34Y34*%
G04 APERTURE LIST*
%ADD10C,0.006000*%
%ADD11C,0.015000*%
%ADD12R,0.075000X0.075000*%
%ADD13C,0.075000*%
%ADD14C,0.080000*%
%ADD15R,0.080000X0.080000*%
%ADD16C,0.110000*%
%ADD17C,0.090000*%
%ADD18R,0.090000X0.090000*%
%ADD19R,0.370000X0.370000*%
%ADD20C,0.216900*%
%ADD21R,0.120000X0.120000*%
%ADD22C,0.120000*%
G04 APERTURE END LIST*
G54D10*
G54D11*
X49200Y-08300D02*
X49200Y-10300D01*
X10200Y-08300D02*
X49200Y-08300D01*
X10200Y-10300D02*
X10200Y-08300D01*
X49200Y-36800D02*
X49200Y-10300D01*
X10200Y-36800D02*
X49200Y-36800D01*
X10200Y-36800D02*
X10200Y-35800D01*
X10200Y-10300D02*
X10200Y-36800D01*
G54D12*
X28200Y-33300D03*
G54D13*
X27200Y-33300D03*
X27200Y-34300D03*
G54D12*
X18700Y-28200D03*
G54D13*
X17700Y-28200D03*
X17700Y-29200D03*
G54D12*
X19700Y-30700D03*
G54D13*
X18700Y-30700D03*
X18700Y-31700D03*
G54D12*
X23700Y-33200D03*
G54D13*
X22700Y-33200D03*
X22700Y-34200D03*
G54D12*
X22700Y-30700D03*
G54D13*
X21700Y-30700D03*
X21700Y-31700D03*
G54D12*
X21700Y-28200D03*
G54D13*
X20700Y-28200D03*
X20700Y-29200D03*
G54D12*
X20700Y-33200D03*
G54D13*
X19700Y-33200D03*
X19700Y-34200D03*
G54D12*
X30200Y-30800D03*
G54D13*
X29200Y-30800D03*
X29200Y-31800D03*
G54D12*
X29200Y-28300D03*
G54D13*
X28200Y-28300D03*
X28200Y-29300D03*
G54D12*
X17700Y-33200D03*
G54D13*
X16700Y-33200D03*
X16700Y-34200D03*
G54D12*
X27200Y-30800D03*
G54D13*
X26200Y-30800D03*
X26200Y-31800D03*
G54D12*
X31200Y-33300D03*
G54D13*
X30200Y-33300D03*
X30200Y-34300D03*
G54D12*
X32200Y-28300D03*
G54D13*
X31200Y-28300D03*
X31200Y-29300D03*
G54D12*
X33200Y-30800D03*
G54D13*
X32200Y-30800D03*
X32200Y-31800D03*
G54D12*
X34200Y-33300D03*
G54D13*
X33200Y-33300D03*
X33200Y-34300D03*
G54D12*
X35200Y-28300D03*
G54D13*
X34200Y-28300D03*
X34200Y-29300D03*
G54D12*
X36200Y-30800D03*
G54D13*
X35200Y-30800D03*
X35200Y-31800D03*
G54D12*
X15700Y-28200D03*
G54D13*
X14700Y-28200D03*
X14700Y-29200D03*
G54D12*
X14700Y-33200D03*
G54D13*
X13700Y-33200D03*
X13700Y-34200D03*
G54D12*
X16700Y-30700D03*
G54D13*
X15700Y-30700D03*
X15700Y-31700D03*
G54D12*
X14700Y-35700D03*
G54D13*
X15700Y-35700D03*
X16700Y-35700D03*
X17700Y-35700D03*
X18700Y-35700D03*
X19700Y-35700D03*
X20700Y-35700D03*
X21700Y-35700D03*
X22700Y-35700D03*
X23700Y-35700D03*
G54D12*
X35200Y-35800D03*
G54D13*
X34200Y-35800D03*
X33200Y-35800D03*
X32200Y-35800D03*
X31200Y-35800D03*
X30200Y-35800D03*
X29200Y-35800D03*
X28200Y-35800D03*
X27200Y-35800D03*
X26200Y-35800D03*
G54D14*
X44000Y-17000D03*
X43000Y-17000D03*
X44000Y-20000D03*
X43000Y-20000D03*
G54D15*
X21700Y-15800D03*
G54D14*
X21700Y-16800D03*
X20700Y-15800D03*
X20700Y-16800D03*
X19700Y-15800D03*
X19700Y-16800D03*
G54D15*
X37200Y-12800D03*
G54D14*
X36200Y-12800D03*
X35200Y-12800D03*
G54D12*
X43000Y-15500D03*
G54D13*
X44000Y-15500D03*
X45000Y-15500D03*
X46000Y-15500D03*
X46000Y-12500D03*
X45000Y-12500D03*
X44000Y-12500D03*
X43000Y-12500D03*
X37200Y-14800D03*
X36200Y-14800D03*
X35200Y-14800D03*
X34200Y-14800D03*
X33200Y-14800D03*
X32200Y-14800D03*
X31200Y-14800D03*
X30200Y-14800D03*
X29200Y-14800D03*
X28200Y-14800D03*
X27200Y-14800D03*
X26200Y-14800D03*
X25200Y-14800D03*
G54D12*
X38200Y-14800D03*
G54D13*
X25200Y-17800D03*
X26200Y-17800D03*
X27200Y-17800D03*
X28200Y-17800D03*
X29200Y-17800D03*
X30200Y-17800D03*
X31200Y-17800D03*
X32200Y-17800D03*
X33200Y-17800D03*
X34200Y-17800D03*
X35200Y-17800D03*
X36200Y-17800D03*
X37200Y-17800D03*
X38200Y-17800D03*
G54D12*
X35200Y-22550D03*
G54D13*
X34200Y-22550D03*
X33200Y-22550D03*
X32200Y-22550D03*
X31200Y-22550D03*
X30200Y-22550D03*
X29200Y-22550D03*
X28200Y-22550D03*
X28200Y-25550D03*
X29200Y-25550D03*
X30200Y-25550D03*
X31200Y-25550D03*
X32200Y-25550D03*
X33200Y-25550D03*
X34200Y-25550D03*
X35200Y-25550D03*
G54D12*
X15200Y-25300D03*
G54D13*
X16200Y-25300D03*
X17200Y-25300D03*
X18200Y-25300D03*
X19200Y-25300D03*
X20200Y-25300D03*
X21200Y-25300D03*
X22200Y-25300D03*
X22200Y-22300D03*
X21200Y-22300D03*
X20200Y-22300D03*
X19200Y-22300D03*
X18200Y-22300D03*
X17200Y-22300D03*
X16200Y-22300D03*
X15200Y-22300D03*
G54D16*
X43000Y-33000D03*
X43000Y-24000D03*
G54D15*
X17900Y-16400D03*
G54D14*
X16900Y-16400D03*
G54D15*
X17900Y-19600D03*
G54D14*
X16900Y-19600D03*
G54D13*
X32200Y-12800D03*
X31200Y-12800D03*
X37200Y-24600D03*
X37200Y-23600D03*
X13200Y-23300D03*
X13200Y-24300D03*
X45500Y-20500D03*
X45500Y-17500D03*
X47000Y-20500D03*
X47000Y-17500D03*
G54D17*
X12250Y-13000D03*
G54D18*
X14250Y-13000D03*
G54D17*
X13250Y-13000D03*
G54D19*
X13250Y-19500D03*
G54D12*
X21000Y-12500D03*
G54D13*
X21000Y-11500D03*
G54D20*
X47000Y-24500D03*
X12500Y-31000D03*
X26750Y-11250D03*
G54D21*
X18500Y-13000D03*
G54D22*
X18500Y-11000D03*
M02*
